<svg xmlns="http://www.w3.org/2000/svg" xmlns:xlink="http://www.w3.org/1999/xlink" version="1.1" x="0px" y="0px" viewBox="0 0 100 100" enable-background="new 0 0 100 100" xml:space="preserve"><path fill="#000000" d="M75.731,3.324H22.648c-11.559,0-20.965,9.346-20.965,20.828v51.555c0,11.488,9.406,20.828,20.965,20.828   h53.083c11.559,0,20.961-9.34,20.961-20.828V24.152C96.692,12.67,87.29,3.324,75.731,3.324z M85.824,75.707   c0,5.53-4.529,10.029-10.093,10.029H22.648c-5.566,0-10.098-4.499-10.098-10.029V24.152c0-5.53,4.531-10.032,10.098-10.032h53.083   c5.563,0,10.093,4.502,10.093,10.032V75.707z"/><path fill="#000000" d="M71.578,19.941c-3.364-1.757-7.528-0.472-9.301,2.876L42.778,59.692l-7.564-12.655   c-0.973-1.625-4.408-1.38-7.677,0.553c-3.275,1.928-5.143,4.805-4.164,6.432l13.216,22.124c0.562,1.558,1.672,2.938,3.269,3.772   c3.368,1.759,7.536,0.472,9.302-2.876l25.313-47.86C76.241,25.834,74.946,21.701,71.578,19.941z"/></svg>