<svg xmlns="http://www.w3.org/2000/svg" xmlns:xlink="http://www.w3.org/1999/xlink" version="1.1" x="0px" y="0px" viewBox="0 0 100 100" enable-background="new 0 0 100 96" xml:space="preserve"><path d="M98,70c-1.1,0-2-0.9-2-2V20H16c-1.104,0-2-0.896-2-2c0-1.1,0.896-2,2-2h82c1.1,0,2,0.9,2,2v50C100,69.1,99.1,70,98,70z"/><path d="M30,40H14c-1.104,0-2,0.9-2,2v20c0,1.1,0.896,2,2,2h16c1.104,0,2-0.9,2-2V42C32,40.9,31.104,40,30,40z"/><path d="M90,24H2c-1.104,0-2,0.9-2,2v52c0,1.1,0.896,2,2,2h88c1.1,0,2-0.9,2-2V26C92,24.9,91.1,24,90,24z M36,62  c0,3.309-2.692,6-6,6H14c-3.308,0-6-2.691-6-6V42c0-3.308,2.692-6,6-6h16c3.308,0,6,2.692,6,6V62z M80,60H44c-1.104,0-2-0.9-2-2  s0.896-2,2-2h36c1.1,0,2,0.9,2,2S81.1,60,80,60z M80,48H44c-1.104,0-2-0.896-2-2c0-1.1,0.896-2,2-2h36c1.1,0,2,0.9,2,2  C82,47.104,81.1,48,80,48z"/></svg>