<svg xmlns="http://www.w3.org/2000/svg" xmlns:xlink="http://www.w3.org/1999/xlink" version="1.1" x="0px" y="0px" viewBox="0 0 100 100" enable-background="new 0 0 100 100" xml:space="preserve"><path d="M96.336,22l-16.1-18C79.667,3.364,78.854,3,78,3H5.9c-1.657,0-3,1.343-3,3v88c0,1.657,1.343,3,3,3H94.1   c1.657,0,3-1.343,3-3V24C97.1,23.262,96.828,22.55,96.336,22z M28.5,6h41v23.5h-41V6z M79.5,94h-61V51.5h61V94z M94.1,94H82.5V50   c0-0.829-0.672-1.5-1.5-1.5H17c-0.829,0-1.5,0.671-1.5,1.5v44H5.9V6h20.6v24.5c0,0.552,0.448,1,1,1h43c0.553,0,1-0.448,1-1V6H78   l16.1,18V94z"/><path d="M63,9.5h-7c-0.828,0-1.5,0.671-1.5,1.5v14c0,0.829,0.672,1.5,1.5,1.5h7c0.828,0,1.5-0.671,1.5-1.5V11   C64.5,10.171,63.828,9.5,63,9.5z"/><path d="M27.5,62.5h44c0.553,0,1-0.447,1-1s-0.447-1-1-1h-44c-0.552,0-1,0.447-1,1S26.948,62.5,27.5,62.5z"/><path d="M27.5,73.5h44c0.553,0,1-0.447,1-1s-0.447-1-1-1h-44c-0.552,0-1,0.447-1,1S26.948,73.5,27.5,73.5z"/><path d="M27.5,84.5h44c0.553,0,1-0.447,1-1s-0.447-1-1-1h-44c-0.552,0-1,0.447-1,1S26.948,84.5,27.5,84.5z"/></svg>