<svg xmlns:dc="http://purl.org/dc/elements/1.1/" xmlns:cc="http://creativecommons.org/ns#" xmlns:rdf="http://www.w3.org/1999/02/22-rdf-syntax-ns#" xmlns:svg="http://www.w3.org/2000/svg" xmlns="http://www.w3.org/2000/svg" version="1.1" viewBox="5 5 88.00001 88" xml:space="preserve" x="0px" y="0px"><path d="M 9.71875,12.25 C 7.1315898,12.25 5,14.376656 5,16.96875 l 0,36.0625 C 5,55.618427 7.1315898,57.75 9.71875,57.75 l 21.6875,0 0,4.125 -5.53125,0 c -1.082095,0 -1.9375,0.855394 -1.9375,1.9375 l 0,2.1875 27.4375,0 c 0.04825,-0.639473 0.134545,-1.28309 0.25,-1.90625 0.171103,-0.99256 0.751844,-1.719867 1.53125,-2.21875 l -3.5,0 0,-4.125 6.71875,0 c -0.590355,-0.796628 -0.891253,-1.802717 -0.84375,-2.78125 l -45.8125,0 c -1.0968462,0 -1.9375,-0.84066 -1.9375,-1.9375 l 0,-36.0625 C 7.78125,15.866974 8.6219038,15 9.71875,15 l 61.625,0 c 1.096811,0 1.96875,0.866974 1.96875,1.96875 l 0,27.15625 c 0.919318,0.01724 1.828286,-0.02612 2.75,0.03125 l 0,-27.1875 c 0,-2.592094 -2.131608,-4.71875 -4.71875,-4.71875 l -61.625,0 z M 74.4375,46.65625 c -0.831027,0 -1.639374,0.06409 -2.46875,0.15625 -0.53095,0.05901 -1,0.520584 -1,1.125 l 0,3.25 c 0,0.453321 -0.35304,0.931256 -0.8125,1.0625 -1.127728,0.322222 -2.222111,0.72236 -3.1875,1.28125 -0.471488,0.272958 -0.959864,0.215255 -1.34375,-0.15625 l -2.34375,-2.25 C 62.857228,50.714683 62.214686,50.667581 61.75,51.03125 c -1.273267,0.996461 -2.409064,2.217245 -3.46875,3.5 -0.375757,0.4549 -0.308979,1.116102 0.0625,1.5 L 60.625,58.375 c 0.336421,0.347644 0.392312,0.89531 0.15625,1.34375 C 60.261732,60.705884 59.808606,61.774735 59.5,62.90625 59.355278,63.436888 58.966345,63.75 58.4375,63.75 l -3.25,0 c -0.604382,0 -1.06124,0.362991 -1.125,0.96875 -0.08737,0.829888 -0.15625,1.66895 -0.15625,2.5 0,0.831067 0.06407,1.670638 0.15625,2.5 0.05897,0.530946 0.520618,0.96875 1.125,0.96875 l 3.25,0 c 0.453308,0 0.931224,0.384278 1.0625,0.84375 0.322213,1.127723 0.722357,2.190872 1.28125,3.15625 0.273005,0.471467 0.215264,0.991103 -0.15625,1.375 l -2.28125,2.34375 c -0.410342,0.424017 -0.426132,1.035374 -0.0625,1.5 0.996488,1.273284 2.186011,2.409089 3.46875,3.46875 0.454887,0.375787 1.147363,0.309001 1.53125,-0.0625 L 65.625,81.03125 c 0.347634,-0.336412 0.895268,-0.392283 1.34375,-0.15625 0.987127,0.519532 2.055979,0.972637 3.1875,1.28125 0.530642,0.144708 0.8125,0.533677 0.8125,1.0625 l 0,3.25 c 0,0.604398 0.394239,1.092506 1,1.15625 0.829902,0.08737 1.637723,0.125 2.46875,0.125 0.831044,0 1.670608,-0.03284 2.5,-0.125 0.530932,-0.05895 1,-0.551852 1,-1.15625 l 0,-3.25 c 0,-0.453303 0.353059,-0.931256 0.8125,-1.0625 1.127747,-0.322222 2.222113,-0.722342 3.1875,-1.28125 0.47149,-0.272977 0.959862,-0.215237 1.34375,0.15625 L 85.625,83.3125 c 0.424042,0.410335 1.066547,0.426152 1.53125,0.0625 1.273248,-0.996479 2.409136,-2.185994 3.46875,-3.46875 0.375832,-0.454863 0.277749,-1.11612 -0.09375,-1.5 l -2.25,-2.34375 c -0.336401,-0.347643 -0.392277,-0.926541 -0.15625,-1.375 0.519536,-0.987116 0.972628,-2.024716 1.28125,-3.15625 0.144723,-0.530656 0.533655,-0.84375 1.0625,-0.84375 l 3.25,0 c 0.604378,0 1.061239,-0.363009 1.125,-0.96875 C 94.9311,68.888862 95,68.049817 95,67.21875 c 0,-0.83105 -0.0641,-1.670638 -0.15625,-2.5 C 94.78474,64.187804 94.323128,63.75 93.71875,63.75 l -3.25,0 c -0.45329,0 -0.931223,-0.384314 -1.0625,-0.84375 -0.322194,-1.127723 -0.722341,-2.222085 -1.28125,-3.1875 -0.272951,-0.471466 -0.215244,-0.959816 0.15625,-1.34375 l 2.25,-2.34375 c 0.410342,-0.424017 0.457439,-1.035302 0.09375,-1.5 -0.99647,-1.273265 -2.186012,-2.440339 -3.46875,-3.5 C 86.701343,50.655446 86.008907,50.753518 85.625,51.125 l -2.34375,2.25 C 82.933616,53.711412 82.385964,53.767282 81.9375,53.53125 80.950375,53.011735 79.881503,52.558613 78.75,52.25 78.219341,52.105274 77.9375,51.716378 77.9375,51.1875 l 0,-3.25 c 0,-0.604416 -0.394257,-1.06122 -1,-1.125 -0.829919,-0.08737 -1.668956,-0.15625 -2.5,-0.15625 z M 74.375,56.9375 c 5.66624,0 10.28125,4.615 10.28125,10.28125 0,5.666268 -4.61501,10.28125 -10.28125,10.28125 -5.666257,0 -10.28125,-4.614982 -10.28125,-10.28125 0,-5.66625 4.614993,-10.28125 10.28125,-10.28125 z" transform="translate(0,-5e-6)" style="" fill="#000000" fill-opacity="1" fill-rule="nonzero" stroke="none"/></svg>