<svg xmlns="http://www.w3.org/2000/svg" xmlns:xlink="http://www.w3.org/1999/xlink" version="1.1" x="0px" y="0px" viewBox="0 0 48 48" enable-background="new 0 0 48 48" xml:space="preserve"><g><path d="M42.135,48H5.865c-0.552,0-1-0.447-1-1V1c0-0.552,0.448-1,1-1h36.27c0.553,0,1,0.448,1,1v46   C43.135,47.553,42.688,48,42.135,48z M6.865,46h34.27V2H6.865V46z"></path><path d="M24,42.43c-7.32,0-13.275-5.955-13.275-13.275c0-2.635,0.781-5.179,2.229-7.346h-1.229c-0.552,0-1-0.448-1-1V6.57   c0-0.552,0.448-1,1-1h24.548c0.553,0,1,0.448,1,1v14.238c0,0.552-0.447,1-1,1h-1.229c1.448,2.168,2.229,4.712,2.229,7.346   C37.273,36.475,31.319,42.43,24,42.43z M12.725,19.808h2.292c0.398,0,0.758,0.236,0.917,0.601c0.159,0.365,0.086,0.789-0.185,1.081   c-1.95,2.097-3.024,4.819-3.024,7.665c0,6.217,5.058,11.275,11.275,11.275c6.216,0,11.273-5.059,11.273-11.275   c0-2.844-1.074-5.566-3.023-7.666c-0.271-0.292-0.343-0.716-0.185-1.08c0.159-0.365,0.52-0.601,0.917-0.601h2.291V7.57H12.725   V19.808z"></path><path d="M30.664,11.935H17.243c-0.552,0-1-0.448-1-1s0.448-1,1-1h13.421c0.553,0,1,0.448,1,1S31.217,11.935,30.664,11.935z"></path><path d="M30.664,16.804H17.243c-0.552,0-1-0.448-1-1s0.448-1,1-1h13.421c0.553,0,1,0.448,1,1S31.217,16.804,30.664,16.804z"></path><path d="M24.2,33.328c-2.327,0-4.22-1.894-4.22-4.221c0-2.326,1.893-4.219,4.22-4.219s4.22,1.893,4.22,4.219   C28.42,31.435,26.527,33.328,24.2,33.328z M24.2,26.889c-1.224,0-2.22,0.995-2.22,2.219c0,1.225,0.996,2.221,2.22,2.221   c1.224,0,2.22-0.996,2.22-2.221C26.42,27.884,25.424,26.889,24.2,26.889z"></path></g></svg>