<svg xmlns="http://www.w3.org/2000/svg" xmlns:xlink="http://www.w3.org/1999/xlink" version="1.1" x="0px" y="0px" viewBox="5 5 30 30" enable-background="new 0 0 40 40" xml:space="preserve"><path fill-rule="evenodd" clip-rule="evenodd" d="M27,7.5v6h6L27,7.5z M25,7.5H14v9c3.9,0,7.2,2.5,8.5,6H30v1h-7.2  c0.1,0.3,0.1,0.7,0.2,1H30v1h-7c0,0.3,0,0.7-0.1,1H30v1h-7.2c-0.5,2-1.6,3.8-3.1,5c5.2,0,13.3,0,13.3,0v-17h-8V7.5z M14,18.5  c-3.9,0-7,3.1-7,7c0,3.9,3.1,7,7,7c3.9,0,7-3.1,7-7C21,21.6,17.9,18.5,14,18.5z M14,28.5v-2h-3v-2h3v-2l4,3L14,28.5z"/></svg>