<svg xmlns="http://www.w3.org/2000/svg" xmlns:xlink="http://www.w3.org/1999/xlink" version="1.1" x="0px" y="0px" viewBox="0 0 100 100" enable-background="new 0 0 100 100" xml:space="preserve"><path d="M50,5c24.854,0,45,20.147,45,45c0,24.854-20.146,45-45,45C25.147,95,5,74.854,5,50C5,25.147,25.147,5,50,5z M50,58.5  c6.075,0,11-4.807,11-10.733V30.205c0-5.927-4.925-10.732-11-10.732s-11,4.805-11,10.732v17.562C39,53.693,43.925,58.5,50,58.5z   M69.625,43.25c-0.5-3.5-4.688-1.812-4.208,0c3.396,25.438-33.479,27.75-30.75-0.03c-0.542-3.095-4.292-1.97-4.292,0.03  c-0.898,15.098,7.942,22.826,17.475,23.801v4.715H39c-1.104,0-2,0.974-2,2.174c0,1.201,0.896,2.176,2,2.176h22  c1.104,0,2-0.975,2-2.176c0-1.2-0.896-2.174-2-2.174h-8.85v-4.729C61.978,65.969,71.102,57.822,69.625,43.25z"/></svg>