<svg xmlns="http://www.w3.org/2000/svg" xmlns:xlink="http://www.w3.org/1999/xlink" version="1.1" x="0px" y="0px" viewBox="0 0 96 96" enable-background="new 0 0 96 96" xml:space="preserve"><path d="M82,76c-2.208,0-4,1.792-4,4v8h-8c-2.208,0-4,1.792-4,4s1.792,4,4,4h12c2.208,0,4-1.792,4-4V80C86,77.792,84.208,76,82,76z"/><path d="M34,16c-2.208,0-4,1.792-4,4v4h-4c-2.208,0-4,1.792-4,4s1.792,4,4,4h8c2.208,0,4-1.792,4-4v-8C38,17.792,36.208,16,34,16z"/><path d="M26,88h-8v-8c0-2.208-1.792-4-4-4s-4,1.792-4,4v12c0,2.208,1.792,4,4,4h12c2.208,0,4-1.792,4-4S28.208,88,26,88z"/><path d="M82,0H70c-2.208,0-4,1.792-4,4s1.792,4,4,4h8v8c0,2.208,1.792,4,4,4s4-1.792,4-4V4C86,1.792,84.208,0,82,0z"/><path d="M54,88h-8c-2.208,0-4,1.792-4,4s1.792,4,4,4h8c2.208,0,4-1.792,4-4S56.208,88,54,88z"/><path d="M54,0h-8c-2.208,0-4,1.792-4,4s1.792,4,4,4h8c2.208,0,4-1.792,4-4S56.208,0,54,0z"/><path d="M82,52c-2.208,0-4,1.792-4,4v8c0,2.208,1.792,4,4,4s4-1.792,4-4v-8C86,53.792,84.208,52,82,52z"/><path d="M82,28c-2.208,0-4,1.792-4,4v8c0,2.208,1.792,4,4,4s4-1.792,4-4v-8C86,29.792,84.208,28,82,28z"/><path d="M14,72c2.208,0,4-1.792,4-4v-8c0-2.208-1.792-4-4-4s-4,1.792-4,4v8C10,70.208,11.792,72,14,72z"/><path d="M14,48c2.208,0,4-1.792,4-4v-8c0-2.208-1.792-4-4-4s-4,1.792-4,4v8C10,46.208,11.792,48,14,48z"/><path d="M21.196,21.68c0.972,0,1.944-0.352,2.716-1.064l9.352-8.64c1.62-1.5,1.724-4.028,0.224-5.652  c-1.5-1.62-4.028-1.72-5.652-0.224l-9.352,8.64c-1.62,1.5-1.724,4.028-0.224,5.652C19.048,21.248,20.12,21.68,21.196,21.68z"/></svg>