<svg xmlns:x="http://ns.adobe.com/Extensibility/1.0/" xmlns:i="http://ns.adobe.com/AdobeIllustrator/10.0/" xmlns:graph="http://ns.adobe.com/Graphs/1.0/" xmlns="http://www.w3.org/2000/svg" xmlns:xlink="http://www.w3.org/1999/xlink" version="1.1" x="0px" y="0px" viewBox="5 5 90 90" enable-background="new 0 0 100 100" xml:space="preserve"><path d="M94.004,42.14l-43.198-21.6c-0.507-0.252-1.104-0.252-1.611,0l-43.2,21.6C5.385,42.445,5,43.068,5,43.75     c0,0.682,0.385,1.305,0.994,1.61l1.707,0.853V57.25c0,0.666,0.365,1.276,0.952,1.587l40.485,21.592     c0.003,0.002,0.006,0.004,0.009,0.006l0.005,0.002c0.003,0.002,0.006,0.004,0.01,0.005c0.057,0.032,0.115,0.059,0.176,0.08     c0.017,0.008,0.032,0.013,0.049,0.02c0.048,0.018,0.098,0.033,0.148,0.047c0.018,0.006,0.038,0.011,0.055,0.016     c0.05,0.009,0.101,0.018,0.153,0.025c0.017,0.003,0.034,0.007,0.053,0.009c0.066,0.007,0.135,0.013,0.204,0.013     c0.068,0,0.137-0.006,0.204-0.013c0.018-0.002,0.036-0.006,0.053-0.009c0.052-0.008,0.103-0.017,0.152-0.025     c0.018-0.005,0.038-0.01,0.056-0.016c0.05-0.014,0.1-0.029,0.148-0.047c0.018-0.007,0.033-0.012,0.049-0.02     c0.061-0.021,0.12-0.048,0.177-0.08c0.002-0.001,0.006-0.003,0.009-0.005l0.005-0.002c0.002-0.002,0.006-0.004,0.009-0.006     l40.487-21.592c0.585-0.311,0.952-0.921,0.952-1.587V46.214l1.703-0.854C94.613,45.055,95,44.432,95,43.75     C95,43.068,94.613,42.445,94.004,42.14z M50,63.338L16.226,46.45L50,29.562L83.775,46.45L50,63.338z M50,24.163l38.717,19.358     c-0.01,0.075-0.016,0.151-0.016,0.23v0.237l-0.901,0.45L50.806,25.94c-0.507-0.252-1.104-0.252-1.611,0L12.2,44.438l-0.899-0.451     V43.75c0-0.079-0.007-0.155-0.018-0.229L50,24.163z M11.301,48.013L48.2,66.461v9.391L11.301,56.17V48.013z M88.701,56.17     L51.802,75.852v-9.391l36.899-18.448V56.17z"/><path d="M58.306,43.257l0.091-0.996c0.682-0.743,1.061-1.596,1.061-2.521c0-3.017-4.032-5.291-9.378-5.291     c-5.347,0-9.378,2.274-9.378,5.291c0,0.925,0.38,1.778,1.06,2.521l0.985,10.833c0.053,2.4,3.188,4.205,7.333,4.205     s7.279-1.805,7.335-4.205l0.052-0.59c1.59-0.578,3.144-1.811,3.564-3.598C61.345,47.583,61.118,45.533,58.306,43.257z      M50.079,36.851c4.262,0,6.98,1.711,6.98,2.89c0,1.177-2.719,2.889-6.98,2.889c-4.261,0-6.979-1.711-6.979-2.889     C43.1,38.562,45.818,36.851,50.079,36.851z M50.079,54.898c-3.061,0-4.935-1.209-4.935-1.868c0-0.034,0-0.072-0.004-0.109     l-0.814-8.946c1.567,0.666,3.547,1.054,5.753,1.054c2.204,0,4.184-0.388,5.754-1.054l-0.6,6.565     c-3.115,0.32-6.747-1.063-8.006-4.212c-0.246-0.615-0.944-0.914-1.56-0.668c-0.615,0.247-0.916,0.945-0.669,1.561     c1.587,3.964,5.619,5.771,9.337,5.771c0.228,0,0.454-0.01,0.68-0.023c0,0.021-0.002,0.04-0.002,0.062     C55.014,53.689,53.139,54.898,50.079,54.898z M58.695,48.355c-0.12,0.508-0.492,0.96-0.972,1.315l0.304-3.335     C58.602,47.065,58.837,47.758,58.695,48.355z"/></svg>