<svg xmlns="http://www.w3.org/2000/svg" xmlns:xlink="http://www.w3.org/1999/xlink" version="1.1" viewBox="0 0 96 96" x="0px" y="0px"><path d="M79.836 45.96c-1.1 0-2-0.896-2-2 0-17.252-8.752-26-26-26-1.1 0-2-0.896-2-2s0.9-2 2-2c19.628 0 30 10.372 30 30 0 1.104-0.9 2-2 2z" fill="#000000"/><path d="M55.836 25.916c-0.512 0-1.024-0.196-1.416-0.584l-8-8c-0.376-0.376-0.588-0.888-0.584-1.42 0-0.532 0.216-1.040 0.592-1.416l8-7.916c0.78-0.776 2.052-0.772 2.828 0.016 0.772 0.784 0.764 2.052-0.016 2.828l-6.576 6.504 6.584 6.58c0.776 0.78 0.776 2.048 0 2.828-0.388 0.388-0.9 0.58-1.412 0.58z" fill="#000000"/><path d="M79.792 49.96c-0.332 0-1.044-0.212-1.42-0.592l-7.916-8c-0.776-0.784-0.768-2.052 0.016-2.828 0.776-0.776 2.052-0.772 2.828 0.016l6.504 6.572 6.58-6.584c0.78-0.78 2.048-0.78 2.828 0s0.78 2.048 0 2.828l-8 8c-0.38 0.376-0.888 0.588-1.42 0.588z" fill="#000000"/><path d="M42 68h-40c-1.104 0-2-0.9-2-2v-64c0-1.104 0.896-2 2-2h40c1.104 0 2 0.896 2 2v64c0 1.1-0.896 2-2 2zM4 64h36v-60h-36v60z" fill="#000000"/><path d="M94 96c-1.1 0-2-0.9-2-2v-4c0-1.1 0.9-2 2-2s2 0.9 2 2v4c0 1.1-0.9 2-2 2zM86 96h-4c-1.1 0-2-0.9-2-2s0.9-2 2-2h4c1.1 0 2 0.9 2 2s-0.9 2-2 2zM74 96h-4c-1.1 0-2-0.9-2-2s0.9-2 2-2h4c1.1 0 2 0.9 2 2s-0.9 2-2 2zM62 96h-4c-1.1 0-2-0.9-2-2s0.9-2 2-2h4c1.1 0 2 0.9 2 2s-0.9 2-2 2zM50 96h-4c-1.104 0-2-0.9-2-2s0.896-2 2-2h4c1.1 0 2 0.9 2 2s-0.9 2-2 2zM38 96h-4c-1.104 0-2-0.9-2-2s0.896-2 2-2h4c1.104 0 2 0.9 2 2s-0.896 2-2 2zM30 92c-1.104 0-2-0.9-2-2v-4c0-1.1 0.896-2 2-2s2 0.9 2 2v4c0 1.1-0.896 2-2 2zM94 84c-1.1 0-2-0.9-2-2v-4c0-1.1 0.9-2 2-2s2 0.9 2 2v4c0 1.1-0.9 2-2 2zM30 80c-1.104 0-2-0.9-2-2v-4c0-1.1 0.896-2 2-2s2 0.9 2 2v4c0 1.1-0.896 2-2 2zM94 72c-1.1 0-2-0.9-2-2v-4c0-1.1 0.9-2 2-2s2 0.9 2 2v4c0 1.1-0.9 2-2 2zM30 68c-1.104 0-2-0.9-2-2v-4c0-1.1 0.896-2 2-2s2 0.9 2 2v4c0 1.1-0.896 2-2 2zM94 60c-1.1 0-2-0.9-2-2v-2h-2c-1.1 0-2-0.9-2-2s0.9-2 2-2h4c1.1 0 2 0.9 2 2v4c0 1.1-0.9 2-2 2zM82 56h-4c-1.1 0-2-0.9-2-2s0.9-2 2-2h4c1.1 0 2 0.9 2 2s-0.9 2-2 2zM70 56h-4c-1.1 0-2-0.9-2-2s0.9-2 2-2h4c1.1 0 2 0.9 2 2s-0.9 2-2 2zM58 56h-4c-1.1 0-2-0.9-2-2s0.9-2 2-2h4c1.1 0 2 0.9 2 2s-0.9 2-2 2zM46 56h-4c-1.104 0-2-0.9-2-2s0.896-2 2-2h4c1.104 0 2 0.9 2 2s-0.896 2-2 2zM34 56h-4c-1.104 0-2-0.9-2-2s0.896-2 2-2h4c1.104 0 2 0.9 2 2s-0.896 2-2 2z" fill="#000000"/></svg>