<svg xmlns="http://www.w3.org/2000/svg" xmlns:xlink="http://www.w3.org/1999/xlink" version="1.1" viewBox="0 0 96 96" x="0px" y="0px"><path d="M42 68h-40c-1.1 0-2-0.9-2-2v-64c0-1.104 0.9-2 2-2h40c1.1 0 2 0.896 2 2v64c0 1.1-0.9 2-2 2zM4 64h36v-60h-36v60z" fill="#000000"/><path d="M94 96h-64c-1.1 0-2-0.9-2-2v-40c0-1.1 0.9-2 2-2h64c1.1 0 2 0.9 2 2v40c0 1.1-0.9 2-2 2zM32 92h60v-36h-60v36z" fill="#000000"/><path d="M79.836 45.96c-1.1 0-2-0.896-2-2 0-17.252-8.752-26-26-26-1.1 0-2-0.896-2-2s0.9-2 2-2c19.624 0 30 10.372 30 30 0 1.104-0.9 2-2 2z" fill="#000000"/><path d="M59.836 29.916c-0.512 0-1.024-0.196-1.416-0.584l-12-12c-0.376-0.376-0.584-0.888-0.584-1.416s0.22-1.040 0.584-1.416l12-11.916c0.78-0.78 2.056-0.768 2.828 0.008 0.776 0.784 0.768 2.052-0.008 2.832l-10.584 10.5 10.584 10.584c0.776 0.78 0.776 2.048 0 2.828-0.38 0.388-0.892 0.58-1.404 0.58z" fill="#000000"/><path d="M79.792 49.96v0c-0.536 0-1.044-0.212-1.416-0.588l-11.916-12c-0.78-0.784-0.772-2.052 0.008-2.832 0.788-0.78 2.056-0.768 2.828 0.008l10.504 10.584 10.584-10.584c0.78-0.78 2.048-0.78 2.828 0s0.78 2.048 0 2.828l-12 12c-0.38 0.372-0.888 0.584-1.42 0.584z" fill="#000000"/>></svg>