<svg xmlns="http://www.w3.org/2000/svg" xmlns:xlink="http://www.w3.org/1999/xlink" version="1.1" x="0px" y="0px" viewBox="0 0 96 96" enable-background="new 0 0 96 96" xml:space="preserve"><path d="M30,52h14V2c0-1.104-0.896-2-2-2H2C0.896,0,0,0.896,0,2v64c0,1.1,0.896,2,2,2h26V54C28,52.9,28.896,52,30,52z"/><path d="M58.42,29.332c0.393,0.388,0.904,0.584,1.416,0.584s1.023-0.196,1.416-0.584c0.78-0.784,0.78-2.048,0-2.832l-8.484-8.48  c16.301,0.324,24.713,8.752,25.008,25.068l-8.483-8.54c-0.78-0.784-2.048-0.788-2.828-0.012c-0.784,0.78-0.788,2.048-0.008,2.828  l11.916,12c0.376,0.38,1.048,0.604,1.42,0.592c0.532,0,1.04-0.212,1.416-0.584l12-12c0.78-0.784,0.78-2.048,0-2.832  s-2.048-0.78-2.828,0l-8.571,8.572c-0.301-18.8-10.373-28.852-29.192-29.132l8.624-8.568c0.783-0.776,0.787-2.044,0.008-2.828  c-0.78-0.784-2.044-0.788-2.828-0.008l-12,11.916c-0.376,0.376-0.588,0.884-0.588,1.416c0,0.532,0.208,1.044,0.584,1.42  L58.42,29.332L58.42,29.332z"/><path d="M94,52H44v14c0,1.1-0.896,2-2,2H28v26c0,1.1,0.896,2,2,2h64c1.1,0,2-0.9,2-2V54C96,52.9,95.1,52,94,52z"/><path d="M32,56h8v8h-8V56z"/></svg>