<svg xmlns="http://www.w3.org/2000/svg" xmlns:xlink="http://www.w3.org/1999/xlink" version="1.1" x="0px" y="0px" viewBox="0 0 100 100" enable-background="new 0 0 100 100" xml:space="preserve"><path d="M95,35.748V19.043H69.666h-1.321H44.322V19.03H17.667v15.075H5V50.81h12.667v13.443H5v16.704h25.334h1.321h24.022v0.013  h26.655V65.895H95V49.19H82.333V35.748H95z M69.666,20.677H93.69v13.436H69.666V20.677z M81.023,35.751v13.437H56.989V35.751H81.023  z M44.322,64.253V50.824h24.022v13.437H56.989v-0.008H44.322z M55.678,35.748v13.426H31.655V35.739h11.355v0.009H55.678z   M44.322,20.677h24.022v13.436H56.989v-0.008H44.322V20.677z M18.977,20.665h24.034v13.437H18.977V20.665z M6.309,35.739h24.025  v13.435H6.309V35.739z M30.334,79.322H6.309V65.887h24.025V79.322z M18.977,64.248V50.812h24.034v13.436H18.977z M55.678,79.322  H31.655V65.887h11.355v0.008h12.667V79.322z M81.023,79.335H56.989V65.899h24.034V79.335z M93.69,64.261H69.666V50.824H93.69V64.261  z"/></svg>