<svg xmlns="http://www.w3.org/2000/svg" xmlns:xlink="http://www.w3.org/1999/xlink" version="1.1" baseProfile="tiny" x="0px" y="0px" viewBox="0 0 100 100" xml:space="preserve"><path fill="#000000" d="M21.7,38.3c7.5-7.6,17.6-11.7,28.2-11.7c10.7,0,20.7,4.2,28.3,11.7c0.4,0.4,1,0.7,1.6,0.7  c0.6,0,1.1-0.2,1.6-0.7c0.9-0.9,0.9-2.3,0-3.2c-8.4-8.4-19.5-13-31.4-13c-11.9,0-23,4.6-31.4,13c-0.9,0.9-0.9,2.3,0,3.2  C19.5,39.2,20.9,39.2,21.7,38.3z"></path><path fill="#000000" d="M69.3,49.5c0.6,0,1.1-0.2,1.6-0.7c0.9-0.9,0.9-2.3,0-3.2C65.3,40.1,57.9,37,50,37c-7.9,0-15.3,3.1-20.9,8.7  c-0.9,0.9-0.9,2.3,0,3.2c0.9,0.9,2.3,0.9,3.2,0c4.7-4.7,11-7.4,17.7-7.4c6.7,0,13,2.6,17.8,7.4C68.2,49.3,68.8,49.5,69.3,49.5z"></path><path fill="#000000" d="M58.8,60c0.6,0,1.1-0.2,1.6-0.6c0.9-0.9,0.9-2.3,0-3.2c-2.8-2.8-6.5-4.3-10.4-4.3c-3.9,0-7.6,1.5-10.4,4.3  c-0.9,0.9-0.9,2.3,0,3.2c0.9,0.9,2.3,0.9,3.2,0c1.9-1.9,4.5-3,7.2-3c2.7,0,5.3,1.1,7.2,3C57.7,59.8,58.2,60,58.8,60z"></path><circle fill="#000000" cx="50" cy="71.9" r="4.6"></circle></svg>