<svg xmlns="http://www.w3.org/2000/svg" viewBox="0 0 100 100"><path d="M86.932 77.886H8.936c-2.485 0-4.5-2.015-4.5-4.5V28.953c0-2.485 2.015-4.5 4.5-4.5h77.996c2.485 0 4.5 2.015 4.5 4.5v8.08l2.248.882c1.724.675 2.858 2.338 2.858 4.19v17.388c0 1.852-1.134 3.515-2.858 4.19l-2.248.88v8.823c0 2.485-2.015 4.5-4.5 4.5zm-73.496-9h68.996v-7.393c0-1.852 1.134-3.515 2.858-4.19l2.248-.88v-11.25l-2.248-.88c-1.724-.675-2.858-2.338-2.858-4.19v-6.65H13.436v35.433z"/><path d="M40.3 38.69H19.23v25.218h46.256M81.88 32.4v39.084l6.417-2.613V31.82"/></svg>