<svg xmlns="http://www.w3.org/2000/svg" viewBox="5 5 90 90"><path d="M44.1 61.3l-.6.4.6-.4M46.4 31L5.7 54.7l43.9 25.7 40-24.1L46.4 31zm-1.3 31.2L43 63.4l-.9-.5c-2.1-1.2-5.5-1.2-7.6 0l-.8-.4c2.5-1.5 6.6-1.5 9.1 0l1.2-.7-3.1-1.8 1.1-.7c2.1-1.2 2.1-3.2 0-4.5l.8-.4c2.5 1.5 2.5 3.9 0 5.4l-.8-.4L53.3 66l21.6-12.6-18-10.5L55 44l-1.1-.6 1.9-1.1-11.1-6.5-8.5 5 11.1 6.5 1.9-1.1 1.1.7c2.2 1.3 5.7 1.3 7.8 0l.8.5c-2.6 1.5-6.8 1.5-9.4 0l.8-.5-14.9 8.8 1.9 1.1-1.1.7-3-1.7 13.1-7.7-11.1-6.5L13.6 54l21.9 12.8 1.9-1.1.9.5-3 1.7-23.7-13.8 33.5-19.6 32.3 18.9-23.7 13.8-8.6-5zm12-6.6l7.8-4.5-1.9-.3 4.8-1.2-2 2.8-.5-1.1-7.8 4.5 3.5 2 .5-1.1 2 2.8-4.8-1.2 1.9-.3-3.5-2-7.1 4.1 1.9.3-4.8 1.2 2-2.8.5 1.1 7.1-4.1-7.7-4.5-.5 1.1-2-2.8 4.8 1.2-1.9.3 7.7 4.5zm-32.8.1l-4.8 1.2 2-2.8.5 1.1 11.5-6.7-2.1-1.2-.5 1.1-2-2.8 4.8 1.2-1.9.2 2.1 1.2 3.5-2.1-1.9-.3 4.8-1.2-2 2.8-.5-1.1-3.5 2.1 2.3 1.4.5-1.1 2 2.8-4.8-1.2 1.9-.3-2.3-1.4-11.5 6.7 1.9.4zm32.4 13.4l23.8-14 .5.3-23.8 14-.5-.3zm2.8 1.7l23.9-14 .5.3-23.8 14-.6-.3zM89.2 53.8c0-2 1.5-4.3 3.2-5.2.5-.2.9-.3 1.3-.3.2 0 .5 0 .7.1L50.8 22.9c-.6-.4-1.4-.4-2.3 0-1.8.9-3.2 3.2-3.2 5.2 0 .8.3 1.5.7 1.9.2.2.4.3.7.4l43.5 25.5c-.6-.4-1-1.1-1-2.1z"/><path d="M93.7 48.7c-.3 0-.7.1-1.1.3-1.6.8-3 2.9-3 4.8 0 1.2.6 1.9 1.5 1.9.3 0 .7-.1 1.1-.3 1.6-.8 3-2.9 3-4.8 0-1.1-.6-1.9-1.5-1.9zm-1.3 4.9c-.7.3-1.2 0-1.2-.8s.6-1.7 1.2-2 1.2 0 1.2.8c.1.8-.5 1.7-1.2 2z"/></svg>