<svg xmlns="http://www.w3.org/2000/svg" viewBox="20 10 260 260"><path d="M275 44H41c-2.8 0-5 2.2-5 5v68.5l-8.4-5.1c-1.8-1.1-4-.9-5.7.3-1.6 1.3-2.3 3.4-1.7 5.4L36 169.9V217c0 2.8 2.2 5 5 5h10.9l8.8 28.9c.4 1.3 1.3 2.3 2.4 3 .7.4 1.5.6 2.3.6.5 0 1-.1 1.5-.2L172.4 222H275c2.8 0 5-2.2 5-5V49c0-2.8-2.2-5-5-5zM46 212v-9.4l2.9 9.4H46zm15 5.4v-.4c0-1.2-.4-2.2-1.1-3.1l-26.3-86.2 138.3 84-103.1 31.5-7.8-25.8zm209-5.4h-81.1c-.3-1.2-1.1-2.4-2.2-3L46 123.6V54h224v158zM51 76c0-2.8 2.2-5 5-5h184v-9c0-2.8 2.2-5 5-5s5 2.2 5 5v9h11c2.8 0 5 2.2 5 5s-2.2 5-5 5h-11v123c0 2.8-2.2 5-5 5s-5-2.2-5-5V81H56c-2.8 0-5-2.2-5-5zm73.6 121.6l-53.8-32.3c-1.8-1.1-4-.9-5.7.3-1.6 1.3-2.3 3.4-1.7 5.4L77 215.6c.7 2.2 2.6 3.5 4.8 3.5.5 0 1-.1 1.5-.2l40.2-12.3c1.9-.6 3.3-2.2 3.5-4.2.2-1.8-.8-3.7-2.4-4.8zm-39.5 10.3l-8.3-27.3 33 19.8-24.7 7.5zm141.8-30.8c-.1-.2-.2-.3-.2-.5-.2-.3-.3-.5-.5-.7 0 0 0-.1-.1-.1l-44.9-51.3c.8-.2 1.6-.5 2.2-1.1 2.1-1.8 2.3-5 .5-7.1l-23.5-26.8c-1.8-2.1-5-2.3-7.1-.5-.7.6-1.1 1.3-1.4 2.1V91c-1.9-2.2-4.6-3.4-7.5-3.4-2.4 0-4.8.9-6.6 2.5l-3.2 2.8c-2 1.8-3.2 4.2-3.4 6.9-.2 2.7.7 5.2 2.5 7.3l3.1 3.6 71 81.1.1.1.6.6c.2.1.3.2.5.3l19.6 11.5c.8.5 1.7.7 2.5.7 1.2 0 2.4-.4 3.3-1.2 1.6-1.4 2.2-3.7 1.3-5.7l-8.8-21zm-14.9 4.3l-64.4-73.6 1.6-1.4 1.6-1.4 64.4 73.6-1.6 1.4-1.6 1.4zm8 6.2l.2-.1.2-.1.3.6-.7-.4z"/></svg>