<svg xmlns="http://www.w3.org/2000/svg" width="20" height="20" viewBox="0 0 20 20"><path d="M16.648 5.143L7.65.503c-1.233-.648-3.663.606-4.36 1.71-.312.494-.29.85-.29 1.052l.11 10.475c.008.223.29.522.528.67.5.306 8.06 5.025 8.273 5.16.116.07.253.104.387.104.114 0 .23-.025.333-.077.228-.112.37-.328.37-.565v-11c0-.23-.134-.44-.352-.556L4.47 2.91c.092-.18.456-.56 1.125-.91.705-.37 1.232-.23 1.353-.183 0 0 7.85 4.2 8.09 4.326s.244.144.244.357v10.44c0 .52.528.734.917.734.386 0 .8-.38.8-.734V5.698c0-.23-.135-.44-.352-.555z"/></svg>