<svg xmlns="http://www.w3.org/2000/svg" viewBox="0 0 100 100"><style>.st0{display:none;} .st1{display:inline;fill:none;stroke:#EC008C;stroke-width:0.25;stroke-miterlimit:10;}</style><path d="M31.6 2.5h-23c-1 0-1.8.8-1.8 1.9v91.5c0 1 .8 1.9 1.8 1.9h23c1 0 1.8-.8 1.8-1.9V89c0-1-.8-1.9-1.8-1.9H17.5v-74h14.1c1 0 1.8-.8 1.8-1.9V4.3c0-1-.8-1.8-1.8-1.8zM93.1 7.6s0-.1 0 0V4.3c0-1-.8-1.9-1.8-1.9h-23c-1 0-1.8.8-1.8 1.9v6.9c0 1 .8 1.9 1.8 1.9h14.1V87h-14c-1 0-1.8.8-1.8 1.9v6.9c0 1 .8 1.9 1.8 1.9h23c1 0 1.8-.8 1.8-1.9v-1.4V7.6z"/><g class="st0"><path class="st1" d="M2.5 2.5h95v95h-95z"/></g></svg>