<svg xmlns="http://www.w3.org/2000/svg" baseProfile="tiny" viewBox="11 12 78 78"><path fill-rule="evenodd" d="M69.162 26.365l-.26.24L26.6 68.907c-.497.498-.855.955-1.095 1.375-4.08-5.275-6.466-12-6.466-19.4 0-17.594 13.25-30.964 30.84-30.964 7.383 0 14.03 2.37 19.282 6.447zm-37.288 50.04c.378-.233.776-.573 1.213-1.013L75.39 33.09l.08-.08c3.482 5.035 5.492 11.203 5.492 17.988C80.962 68.568 67.57 82.08 50 82.08c-6.865 0-13.092-2.07-18.126-5.674zM11 51c0 21.55 17.47 38.998 39 38.998s39-17.45 39-39S71.53 12 50 12 11 29.45 11 51z"/></svg>