<svg xmlns="http://www.w3.org/2000/svg" viewBox="5 5 90 90"><path fill="none" d="M0 0h100v100H0z"/><path d="M12.913 91.9c-.79 0-1.55-.32-2.105-.918-.778-.82-.99-2.02-.565-3.063l6.522-15.886C9.162 64.99 5 55.92 5 46.28 5 25.23 25.185 8.1 50 8.1s45 17.13 45 38.18-20.185 38.18-45 38.18c-3.56 0-7.2-.39-10.833-1.156l-25.337 8.45c-.3.098-.613.145-.917.145zM50 13.873c-21.63 0-39.224 14.536-39.224 32.406 0 8.56 4.007 16.63 11.296 22.74.964.81 1.295 2.146.815 3.308l-4.913 11.957 20.12-6.708c.502-.165 1.04-.192 1.552-.075 3.474.79 6.964 1.184 10.354 1.184 21.634 0 39.23-14.537 39.23-32.405 0-17.87-17.596-32.406-39.23-32.406z"/></svg>