<svg xmlns="http://www.w3.org/2000/svg" viewBox="0 0 100 100"><path d="M75.73 3.324H22.65c-11.56 0-20.965 9.346-20.965 20.828v51.555c0 11.488 9.406 20.828 20.965 20.828H75.73c11.56 0 20.962-9.34 20.962-20.828V24.152c0-11.482-9.402-20.828-20.96-20.828zm10.094 72.383c0 5.53-4.53 10.03-10.093 10.03H22.65c-5.566 0-10.098-4.5-10.098-10.03V24.152c0-5.53 4.53-10.032 10.098-10.032H75.73c5.564 0 10.094 4.502 10.094 10.032v51.555z"/><path d="M71.578 19.94c-3.364-1.756-7.528-.47-9.3 2.877l-19.5 36.875-7.564-12.655c-.973-1.625-4.408-1.38-7.677.553-3.275 1.928-5.143 4.805-4.164 6.432L36.59 76.146c.56 1.558 1.67 2.938 3.268 3.772 3.368 1.76 7.536.472 9.302-2.876l25.313-47.86c1.768-3.348.473-7.48-2.895-9.24z"/></svg>