<svg xmlns="http://www.w3.org/2000/svg" width="86.314" height="100" viewBox="0 0 86.314 100"><path fill="#010101" d="M21.053 24.21h44.21v6.316h-44.21V24.21zM21.053 46.316h44.21v6.315h-44.21v-6.314zM21.053 67.368h44.21v6.315h-44.21v-6.315z"/><path fill="#010101" d="M82.106 0H4.21C1.578 0 0 1.578 0 4.21v91.58C0 98.422 1.578 100 4.21 100h77.895c2.632 0 4.21-1.578 4.21-4.21V4.21c0-2.632-1.577-4.21-4.21-4.21zM80 91.58c0 1.314-.79 2.103-2.105 2.103H8.42c-1.315 0-2.104-.79-2.104-2.104V8.42c0-1.315.79-2.105 2.105-2.105h69.474c1.316 0 2.105.79 2.105 2.106v83.16z"/></svg>