<svg xmlns="http://www.w3.org/2000/svg" viewBox="0 0 100 125"><path d="M64.398 62.04H55v-9.404H45v9.404h-9.398v10H45v9.403h10V72.04h9.398"/><path d="M71.42 72.04v-10c7.49 0 13.58-6.098 13.58-13.593 0-7.483-6.09-13.57-13.58-13.57-1.017 0-2.064.128-3.11.38l-3.577.868-1.89-3.16c-3.522-5.888-9.688-9.404-16.49-9.404-10.606 0-19.235 8.63-19.235 19.24v5h-5C18.193 47.8 15 50.992 15 54.92c0 3.926 3.193 7.12 7.118 7.12h6.46v10h-6.46C12.678 72.04 5 64.36 5 54.92c0-7.82 5.27-14.43 12.44-16.47 2.108-14.067 14.27-24.89 28.912-24.89 9.04 0 17.616 4.297 23.115 11.402.653-.057 1.306-.085 1.955-.085 13 0 23.578 10.574 23.578 23.57 0 13.01-10.577 23.593-23.58 23.593z"/><text y="115" font-size="5" font-weight="bold" font-family="'Helvetica Neue', Helvetica, Arial-Unicode, Arial, Sans-serif">Created by Agnese Ragucci</text><text y="120" font-size="5" font-weight="bold" font-family="'Helvetica Neue', Helvetica, Arial-Unicode, Arial, Sans-serif">from the Noun Project</text></svg>