<svg xmlns="http://www.w3.org/2000/svg" width="100" height="100" viewBox="0 0 100 100"><path d="M2.343 54.1C.938 53.162 0 51.29 0 49.648c0-1.64.703-3.162 2.46-3.982h-.117c8.317-4.92 19.915-11.48 27.647-16.05v10.896c-3.046 1.757-7.146 3.75-17.455 9.255l.117.116c5.506 2.46 11.832 6.21 17.338 9.49v11.01L2.343 54.1zM97.657 45.9c1.404.938 2.343 2.812 2.343 4.452 0 1.64-.703 3.162-2.46 3.982h.117c-8.317 4.92-19.916 11.48-27.647 16.05V59.487c3.046-1.756 7.146-3.748 17.455-9.254l-.117-.116c-5.505-2.46-11.832-6.21-17.338-9.49V29.62L97.657 45.9zM46.4 71.844h-7.01l14.09-43.688h7.13L46.4 71.844z"/><text transform="translate(-2321 -1309)" font-family="'Courier-Bold'" font-size="177.335">&lt;/&gt;</text></svg>