<svg xmlns="http://www.w3.org/2000/svg" viewBox="0 0 100 100"><title>Noun-Project</title><path d="M88.08 58.637c-4.876-8.18-1.944-18.66 6.543-23.422l-9.128-15.32c-2.607 1.482-5.64 2.332-8.878 2.332C66.86 22.227 58.95 14.515 58.95 5l-18.255.003c.023 2.936-.73 5.915-2.354 8.634-4.874 8.18-15.71 10.96-24.21 6.22L5 35.174c2.625 1.45 4.9 3.567 6.518 6.283 4.866 8.165 1.95 18.625-6.506 23.398l9.13 15.32c2.6-1.47 5.618-2.307 8.838-2.307 9.725 0 17.614 7.663 17.663 17.133H58.9c-.007-2.908.753-5.85 2.356-8.545 4.866-8.164 15.674-10.95 24.17-6.24l9.13-15.32c-2.607-1.446-4.87-3.558-6.477-6.26zm-38.27 17.2c-14.727 0-26.665-11.566-26.665-25.834 0-14.268 11.938-25.833 26.666-25.833 14.73 0 26.667 11.565 26.667 25.833 0 14.268-11.938 25.833-26.666 25.833zm2.905-37.084h5.806l-11.612 22.5h-5.806l11.613-22.5zm8.71 22.5h5.806l5.807-11.25-5.806-11.25h-5.806l5.807 11.25-5.806 11.25zm-23.227 0h-5.806l-5.807-11.25 5.807-11.25h5.806l-5.806 11.25 5.806 11.25z" fill="#000" fill-rule="evenodd"/></svg>