<svg xmlns="http://www.w3.org/2000/svg" viewBox="0 0 100 100"><path d="M98 70c-1.1 0-2-.9-2-2V20H16c-1.104 0-2-.896-2-2 0-1.1.896-2 2-2h82c1.1 0 2 .9 2 2v50c0 1.1-.9 2-2 2zM30 40H14c-1.104 0-2 .9-2 2v20c0 1.1.896 2 2 2h16c1.104 0 2-.9 2-2V42c0-1.1-.896-2-2-2z"/><path d="M90 24H2c-1.104 0-2 .9-2 2v52c0 1.1.896 2 2 2h88c1.1 0 2-.9 2-2V26c0-1.1-.9-2-2-2zM36 62c0 3.31-2.692 6-6 6H14c-3.308 0-6-2.69-6-6V42c0-3.308 2.692-6 6-6h16c3.308 0 6 2.692 6 6v20zm44-2H44c-1.104 0-2-.9-2-2s.896-2 2-2h36c1.1 0 2 .9 2 2s-.9 2-2 2zm0-12H44c-1.104 0-2-.896-2-2 0-1.1.896-2 2-2h36c1.1 0 2 .9 2 2 0 1.104-.9 2-2 2z"/></svg>