<svg xmlns="http://www.w3.org/2000/svg" viewBox="0 0 100 125"><path d="M46.557 52.215c.344.33.5.977.508 2.16.055 6.148-4.52 28.035-6.698 30.2l-.403.25c-.478.16-1.23.062-4.658-2.886-1.334-1.142-3.248-2.91-5.376-4.952L15.278 91.54c-2.35 2.34-6.16 2.34-8.515 0-2.35-2.335-2.35-6.116 0-8.458l14.7-14.602c-4.364-4.582-7.897-8.688-7.746-9.615l.273-.48c1.927-1.91 30.45-8.198 32.567-6.17zm31.98 16.265c4.363-4.582 7.896-8.688 7.746-9.615l-.265-.48c-1.93-1.91-30.456-8.2-32.575-6.17-.344.33-.495.976-.504 2.16-.06 6.147 4.516 28.034 6.693 30.2l.402.25c.483.16 1.23.06 4.66-2.887 1.333-1.14 3.247-2.908 5.375-4.95L84.72 91.54c2.35 2.338 6.165 2.338 8.516 0 2.35-2.336 2.35-6.117 0-8.46l-14.7-14.6zM39.962 15.17c-.478-.156-1.23-.06-4.658 2.887-1.334 1.142-3.246 2.913-5.374 4.956L15.28 8.456c-2.35-2.334-6.16-2.334-8.515 0-2.35 2.342-2.35 6.118 0 8.456l14.7 14.604c-4.364 4.587-7.897 8.69-7.746 9.62l.273.473c1.926 1.913 30.45 8.2 32.566 6.177.344-.336.5-.982.508-2.17.055-6.14-4.52-28.025-6.698-30.195l-.403-.253zM86.02 41.61l.264-.475c.15-.928-3.383-5.032-7.747-9.62l14.7-14.603c2.35-2.338 2.35-6.114 0-8.456-2.35-2.334-6.164-2.334-8.515 0L70.07 23.013c-2.13-2.043-4.04-3.814-5.375-4.956-3.43-2.946-4.176-3.043-4.66-2.888l-.4.25c-2.18 2.17-6.754 24.057-6.695 30.196.01 1.188.16 1.834.504 2.17 2.118 2.023 30.644-4.263 32.575-6.177z"/><text y="115" font-size="5" font-weight="bold" font-family="'Helvetica Neue', Helvetica, Arial-Unicode, Arial, Sans-serif">Created by Cris Dobbins</text><text y="120" font-size="5" font-weight="bold" font-family="'Helvetica Neue', Helvetica, Arial-Unicode, Arial, Sans-serif">from the Noun Project</text></svg>