<svg xmlns="http://www.w3.org/2000/svg" width="100" height="100" viewBox="0 0 100 100"><path d="M93.794 45.797c-.276-2.015-1.833-3.666-3.85-3.94-2.474-.272-7.513-.917-7.513-.917-2.198-.547-3.85-2.474-3.85-4.854 0-.915.276-1.833.828-2.565 0-.09 4.58-6.045 4.58-6.045 1.282-1.556 1.19-3.848-.09-5.405-1.742-2.2-3.76-4.216-5.96-5.958-1.556-1.283-3.848-1.374-5.403-.09-2.017 1.556-5.955 4.583-5.955 4.583-.824.456-1.74.82-2.748.82-2.383 0-4.308-1.738-4.767-4.03l-.914-7.33c-.273-2.015-1.925-3.57-3.94-3.845-2.837-.276-5.678-.276-8.426 0-2.016.273-3.666 1.83-3.94 3.846l-.915 7.33c-.37 2.29-2.384 4.03-4.767 4.03-1.097 0-2.106-.365-2.93-.915l-5.772-4.49c-1.556-1.282-3.848-1.19-5.404.092-2.2 1.742-4.216 3.757-5.958 5.958-1.374 1.557-1.374 3.85-.09 5.405 1.467 1.924 4.397 5.772 4.397 5.772.64.824 1.01 1.833 1.01 2.84 0 2.474-1.834 4.49-4.217 4.853l-7.146.918c-2.016.274-3.663 1.924-3.848 3.94-.274 2.838-.274 5.68 0 8.43.276 2.015 1.833 3.665 3.848 3.938l7.146.915c2.383.277 4.216 2.293 4.216 4.768 0 1.098-.368 2.106-1.01 2.93l-4.397 5.772c-1.283 1.56-1.192 3.85.09 5.405 1.742 2.2 3.758 4.216 5.96 5.957.823.643 1.738 1.007 2.747 1.007.915 0 1.924-.275 2.657-.916l5.773-4.49c.824-.55 1.833-.918 2.93-.918 2.383 0 4.398 1.742 4.766 4.034 0 .09.914 7.33.914 7.33.274 2.015 1.924 3.57 3.94 3.847 1.374.092 2.84.184 4.216.184 1.374 0 2.838-.09 4.21-.183 2.018-.275 3.667-1.832 3.94-3.848l.915-7.33c.46-2.292 2.384-4.034 4.767-4.034 1.007 0 2.017.277 2.748.827l5.955 4.58c.73.642 1.74.916 2.655.916 1.01 0 1.926-.275 2.748-1.008 2.2-1.74 4.218-3.757 5.96-5.957 1.278-1.557 1.372-3.846.09-5.405-1.56-2.016-4.58-5.954-4.58-6.046-.552-.732-.827-1.65-.827-2.656 0-2.29 1.65-4.308 3.85-4.767 0 0 5.04-.64 7.515-.914 2.016-.273 3.572-1.925 3.85-3.94.27-2.84.27-5.68 0-8.43zM50 64.943c-8.246 0-14.933-6.688-14.933-14.934 0-8.245 6.688-14.933 14.934-14.933 8.244 0 14.932 6.688 14.932 14.932 0 8.247-6.688 14.933-14.93 14.933z"/></svg>