<svg xmlns="http://www.w3.org/2000/svg" viewBox="7 7 76 76"><path d="M54.49 21.3l-.25-.045-.25.044-45.733 8.006v26.286L53.99 67.875l.186.05.27.072.007.03 27.29-6.53V26.244L54.49 21.3zm-.5 46.057L8.757 55.21V29.725l45.233-7.92v45.55zm27.252-6.255L54.49 67.505V21.808l26.752 4.854v34.44z"/><path d="M68.518 63.152l.742-.173.5-.118 11-2.565V28.146l-24.363-3.372V65.98l11.62-2.71.5-.118zm2.587-35.838l9.154 1.267v1.493l-9.155-1.046v-1.713zm0 2.216l9.154 1.046v7.063l-9.155-.097V29.53zm0 8.514l9.154.096v1.644h-9.155v-1.74zm0 2.24h9.154v8.08l-9.155.534v-8.614zm0 9.116l9.154-.534v.937l-9.155.895V49.4zm0 1.8l9.154-.895v7.004l-9.155 1.748V51.2zm0 8.367l9.154-1.75V59.9l-9.155 2.135v-2.468zm-1.345.257V27.13l.846.117V62.15l-.846.196v-2.524zm-1.242.238V26.957l.742.103V62.463l-.742.173V60.06zM56.896 25.348l11.12 1.54v1.786l-11.12-1.27v-2.056zm0 2.558l11.12 1.27v8.335l-11.12-.115v-9.49zm0 9.99l11.12.116v1.772h-11.12v-1.888zm0 2.388h11.12v8.795l-11.12.648v-9.444zm0 9.946l11.12-.65V51l-11.12 1.086V50.23zm0 2.358l11.12-1.086v8.146l-11.12 2.126v-9.186zm0 9.694l11.12-2.125v2.598l-11.12 2.594V62.28zM38.106 61.836l12.73 3.372.314.084v-40.73l-2.287.337-.5.073-2.983.44-.5.074-3.148.464-.5.075-2.94.434-.5.073-2.64.39-.5.074-3.028.447-.5.074-3.298.487-.5.074-2.432.358-.5.074-2.446.36-.5.075-1.982.292-.5.073-2.148.317h-.273v.04l-7.22 1.066-.212.032v23.39l28.68 7.6.313.078zm10.757-36.43l1.787-.265v39.5l-1.787-.473V25.405zm-3.483.513l2.983-.44v38.557l-2.983-.79V25.918zm-3.65.537l3.15-.464v37.12l-3.15-.833V26.457zm-3.438.507l2.94-.434v35.616l-2.94-.778V26.964zM10.518 54.01l-.907-.24V31.197l.908-.134v22.95zm1.685.447l-1.186-.313V30.99l1.186-.176v23.643zm2.276.604l-1.777-.47V30.74l1.776-.262V55.06zm2.063.547l-1.564-.415V30.404l1.563-.23v25.433zm2.422.64l-1.922-.508V30.1l1.922-.284v26.432zm2.482.66l-1.982-.526V29.743l1.982-.292v27.456zm2.947.78l-2.446-.648V29.375l2.446-.36v28.67zm2.93.776l-2.43-.645V28.94l2.43-.358v29.88zm3.8 1.006l-3.3-.874V28.51l3.3-.487V59.47zm3.527.933l-3.027-.802V27.95l3.028-.446v32.9zm.5-32.975l2.642-.39v34.197l-2.64-.7V27.43z"/></svg>