<svg xmlns="http://www.w3.org/2000/svg" viewBox="7 7 76 76"><path d="M21.947 57.038l2.447.65V29.014l-2.447.36M19.465 56.38l1.982.526V29.45l-1.982.292M14.98 55.192l1.563.415V30.173l-1.564.23M80.26 28.58l-9.155-1.266v1.713l9.155 1.046M24.894 57.818l2.43.645v-29.88l-2.43.358"/><path d="M8.757 55.21L53.99 67.356v-45.55l-45.233 7.92v25.482zm.354-24.445l.214-.032 7.22-1.065v-.04h.272l2.148-.318.5-.074 1.982-.292.5-.074 2.446-.36.5-.075 2.432-.36.5-.073 3.298-.487.5-.074 3.028-.446.5-.074 2.64-.39.5-.074 2.94-.434.5-.074 3.148-.464.5-.074 2.983-.44.5-.074 2.288-.337v40.73l-.314-.085-12.73-3.372-.314-.083-28.68-7.595v-23.39z"/><path d="M27.825 58.596l3.298.873V28.02l-3.298.487M37.792 27.038l-2.64.39v33.108l2.64.7M31.623 59.602l3.028.8v-32.9l-3.027.446M17.043 55.74l1.922.508V29.816l-1.922.284M48.363 25.48l-2.983.44v37.325l2.983.79M44.88 25.993l-3.15.464V62.28l3.15.833M50.65 25.14l-1.787.265v38.763l1.787.474M9.61 53.77l.908.24V31.064l-.907.133M41.23 26.53l-2.938.434v34.404l2.94.778M11.018 54.144l1.185.313V30.814l-1.185.175M12.703 54.59l1.776.47V30.48l-1.777.262M54.49 67.505l26.752-6.403v-34.44L54.49 21.808v45.697zm1.906-42.732l24.363 3.372V60.296l-11 2.565-.5.118-.743.173-.5.117-11.62 2.71V24.774z"/><path d="M68.018 38.012l-11.122-.116v1.888h11.122M68.018 49.58l-11.122.65v1.856L68.018 51M68.018 40.284H56.896v9.445l11.122-.65M68.018 29.177l-11.122-1.27v9.49l11.122.115M68.018 51.502l-11.122 1.086v9.186l11.122-2.126M80.26 30.577l-9.155-1.047v8.014l9.155.096M68.018 60.157l-11.122 2.125v3.067l11.122-2.595M68.018 26.887l-11.122-1.54v2.056l11.122 1.27M80.26 40.284h-9.155v8.614l9.155-.534M80.26 48.866l-9.155.534v1.297l9.155-.894M80.26 38.14l-9.155-.096v1.74h9.155M69.26 59.92V27.057l-.742-.104V62.64l.742-.174M70.605 59.662V27.243l-.845-.117V62.35l.845-.2M80.26 57.817l-9.155 1.75v2.468L80.26 59.9M80.26 50.306l-9.155.894v7.86l9.155-1.75"/></svg>