<svg xmlns="http://www.w3.org/2000/svg" viewBox="0 0 100 100"><path d="M92.158 41.58c1.554 0 2.812-1.258 2.812-2.812 0-1.554-1.258-2.812-2.812-2.812h-2.812v-5.623h2.812c1.554 0 2.812-1.258 2.812-2.812 0-1.553-1.258-2.81-2.812-2.81h-2.812V10.652H75.29v-2.81c0-1.555-1.26-2.813-2.813-2.813s-2.812 1.258-2.812 2.812v2.812h-5.623V7.842c0-1.554-1.258-2.812-2.812-2.812s-2.81 1.258-2.81 2.812v2.812h-5.623V7.842c0-1.554-1.258-2.812-2.812-2.812s-2.812 1.258-2.812 2.812v2.812H41.55V7.842c0-1.554-1.258-2.812-2.812-2.812s-2.812 1.258-2.812 2.812v2.812h-5.623V7.842c0-1.554-1.258-2.812-2.812-2.812s-2.81 1.258-2.81 2.812v2.812H10.622v14.058h-2.81C6.257 24.712 5 25.97 5 27.522c0 1.555 1.258 2.813 2.812 2.813h2.812v5.623H7.812C6.258 35.958 5 37.215 5 38.768c0 1.555 1.258 2.813 2.812 2.813h2.812v5.624H7.812C6.258 47.204 5 48.46 5 50.014c0 1.555 1.258 2.813 2.812 2.813h2.812v5.623H7.812C6.258 58.45 5 59.707 5 61.26c0 1.555 1.258 2.813 2.812 2.813h2.812v5.623H7.812C6.258 69.696 5 70.954 5 72.508c0 1.554 1.258 2.812 2.812 2.812h2.812v14.058h14.058v2.812c0 1.554 1.258 2.812 2.812 2.812s2.812-1.258 2.812-2.812v-2.812h5.623v2.812c0 1.554 1.257 2.812 2.81 2.812s2.813-1.258 2.813-2.812v-2.812h5.623v2.812c0 1.554 1.258 2.812 2.812 2.812S52.8 93.744 52.8 92.19v-2.812h5.623v2.812c0 1.554 1.258 2.812 2.812 2.812s2.812-1.258 2.812-2.812v-2.812h5.623v2.812c0 1.554 1.258 2.812 2.812 2.812s2.812-1.258 2.812-2.812v-2.812h14.058v-14.06h2.812c1.554 0 2.812-1.257 2.812-2.81 0-1.555-1.258-2.813-2.812-2.813h-2.812v-5.623h2.812c1.554 0 2.812-1.258 2.812-2.812 0-1.554-1.258-2.812-2.812-2.812h-2.812v-5.623h2.812c1.554 0 2.812-1.258 2.812-2.812 0-1.554-1.258-2.812-2.812-2.812h-2.812v-5.62h2.806zm-8.434 33.74c0 4.658-3.778 8.434-8.435 8.434H24.68c-4.655 0-8.434-3.775-8.434-8.435V24.71c0-4.658 3.778-8.434 8.435-8.434h50.61c4.656 0 8.434 3.775 8.434 8.435v50.61z"/><path d="M24.68 33.146V75.32h50.61V24.71H33.123"/></svg>