<svg xmlns="http://www.w3.org/2000/svg" width="100" height="100" viewBox="0 0 100 100"><path d="M0 0v100h100V0H0zm93.164 39.662H66.55V25.47h26.616V39.66zM64.5 58.308h-29V41.706h29v16.602zm-29-18.646V25.47h29V39.66h-29zM31.056 25.47h2.396V39.66H6.837V25.47h24.22zm2.396 16.236v16.602H6.837V41.706H33.45zM6.837 60.352H33.45v16.575H6.837V60.352zm28.665 0h29v16.575h-29V60.352zm31.05 0h26.614v16.575H66.55V60.352zm0-2.044V41.706h26.614v16.602H66.55zM6.836 93.164v-14.18H33.45v14.18H6.837zm28.665 0v-14.18h29v14.18h-29zm31.05-14.18h26.614v14.18H66.55v-14.18z"/></svg>