<svg xmlns="http://www.w3.org/2000/svg" viewBox="0 0 100 100"><path d="M96.336 22l-16.1-18c-.57-.636-1.382-1-2.236-1H5.9c-1.657 0-3 1.343-3 3v88c0 1.657 1.343 3 3 3h88.2c1.657 0 3-1.343 3-3V24c0-.738-.272-1.45-.764-2zM28.5 6h41v23.5h-41V6zm51 88h-61V51.5h61V94zm14.6 0H82.5V50c0-.83-.672-1.5-1.5-1.5H17c-.83 0-1.5.67-1.5 1.5v44H5.9V6h20.6v24.5c0 .552.448 1 1 1h43c.553 0 1-.448 1-1V6H78l16.1 18v70z"/><path d="M63 9.5h-7c-.828 0-1.5.67-1.5 1.5v14c0 .83.672 1.5 1.5 1.5h7c.828 0 1.5-.67 1.5-1.5V11c0-.83-.672-1.5-1.5-1.5zM27.5 62.5h44c.553 0 1-.447 1-1s-.447-1-1-1h-44c-.552 0-1 .447-1 1s.448 1 1 1zM27.5 73.5h44c.553 0 1-.447 1-1s-.447-1-1-1h-44c-.552 0-1 .447-1 1s.448 1 1 1zM27.5 84.5h44c.553 0 1-.447 1-1s-.447-1-1-1h-44c-.552 0-1 .447-1 1s.448 1 1 1z"/></svg>