<svg xmlns="http://www.w3.org/2000/svg" viewBox="0 0 50 50"><path d="M49.316 43.41v-9.366c0-.36-.146-.685-.383-.918-.236-.234-.563-.38-.928-.38h-3.95c-4.106-4.306-10.645-7.154-18.08-7.384v-8.107h3.762c.145 0 .28-.032.41-.08.117-.04.22-.1.32-.168.295-.2.494-.507.545-.873l.01-.04c.004-.048.025-.088.025-.136v-9.37c0-.44-.236-.813-.58-1.048-.21-.145-.45-.248-.73-.248h-9.453c-.18 0-.35.036-.508.102l-.004.002c-.47.197-.8.657-.8 1.193v9.368c0 .536.33.996.8 1.193l.004.003c.157.065.328.102.508.102h3.764v8.107c-7.435.23-13.974 3.078-18.08 7.385H1.99l-.006.002c-.172 0-.336.034-.486.095l-.04.02c-.14.063-.265.145-.372.248l-.037.036c-.105.11-.194.236-.257.378l-.008.02c-.064.153-.102.32-.102.497v9.368c0 .09.01.177.027.26.018.08.043.16.074.234l.008.02c.063.143.152.272.262.384l.028.03c.112.107.243.195.387.258l.02.012c.155.063.325.1.5.1H11.46c.005 0 .01-.003.016-.003.166-.003.324-.036.47-.095.017-.007.03-.016.046-.02.137-.064.26-.146.367-.247.014-.012.026-.025.04-.04.105-.11.193-.236.255-.377l.01-.02c.064-.153.1-.32.1-.495v-9.367c0-.176-.035-.344-.1-.496l-.01-.02c-.063-.143-.15-.272-.258-.38l-.035-.036c-.11-.104-.237-.188-.378-.25l-.034-.017c-.153-.062-.32-.097-.495-.097l-.004-.002H8.54c3.76-3.41 9.286-5.63 15.508-5.838v5.838h-3.764c-.723 0-1.308.575-1.308 1.297v9.368c0 .038.02.07.02.108l.02.1c.08.476.408.858.862 1.007.13.05.263.082.405.082h9.453c.145 0 .28-.034.408-.083.455-.148.78-.53.86-1.008l.02-.1c0-.038.02-.07.02-.108v-9.369c0-.72-.578-1.296-1.31-1.296h-3.762V26.91c6.222.21 11.75 2.43 15.51 5.837h-2.93c-.34 0-.644.135-.876.344-.266.237-.44.57-.44.954v9.367c0 .046.024.085.028.13l.012.055c.045.303.18.572.4.768.133.12.29.207.467.264.13.05.266.082.408.082h9.45c.146 0 .28-.034.41-.083.196-.063.378-.156.52-.297.194-.193.306-.455.347-.738l.008-.047c.007-.046.028-.087.028-.134z"/></svg>