<svg xmlns="http://www.w3.org/2000/svg" viewBox="0 0 100 125"><path d="M45.302 53.567c2.35 2.333 2.35 6.123 0 8.456l-14.7 14.61c4.366 4.587 7.897 8.688 7.746 9.614l-.273.475c-1.922 1.918-30.45 8.204-32.566 6.173-.346-.328-.497-.978-.51-2.162-.055-6.147 4.52-28.038 6.698-30.195l.407-.26c.474-.15 1.226-.05 4.654 2.896 1.333 1.142 3.243 2.908 5.37 4.952l14.656-14.56c2.355-2.337 6.166-2.337 8.516 0zm42.6 6.71c-.48-.15-1.226-.05-4.658 2.897-1.335 1.142-3.24 2.908-5.368 4.952l-14.654-14.56c-2.354-2.337-6.165-2.337-8.516 0-2.35 2.334-2.35 6.124 0 8.457l14.697 14.61c-4.362 4.582-7.896 8.687-7.743 9.613l.265.475c1.93 1.92 30.455 8.205 32.57 6.174.345-.327.5-.978.504-2.16.06-6.148-4.513-28.04-6.69-30.196l-.408-.26zm-57.3-36.913c4.366-4.583 7.897-8.688 7.746-9.615l-.273-.475c-1.922-1.922-30.45-8.2-32.567-6.17-.344.324-.495.974-.508 2.158-.055 6.144 4.52 28.034 6.698 30.195l.407.256c.474.155 1.226.06 4.654-2.892 1.333-1.142 3.245-2.908 5.37-4.956l14.656 14.562c2.354 2.334 6.165 2.334 8.515 0 2.35-2.333 2.35-6.12 0-8.456L30.604 23.364zm32.62 23.065l14.65-14.56c2.128 2.044 4.037 3.81 5.372 4.952 3.433 2.95 4.18 3.047 4.658 2.892l.407-.256c2.177-2.16 6.75-24.05 6.688-30.195-.004-1.184-.16-1.834-.504-2.157-2.115-2.03-30.64 4.247-32.57 6.17l-.265.473c-.154.926 3.38 5.03 7.742 9.618L54.706 37.973c-2.35 2.337-2.35 6.123 0 8.456 2.35 2.333 6.16 2.333 8.516 0z"/><text y="115" font-size="5" font-weight="bold" font-family="'Helvetica Neue', Helvetica, Arial-Unicode, Arial, Sans-serif">Created by Cris Dobbins</text><text y="120" font-size="5" font-weight="bold" font-family="'Helvetica Neue', Helvetica, Arial-Unicode, Arial, Sans-serif">from the Noun Project</text></svg>