<svg xmlns="http://www.w3.org/2000/svg" width="100" height="100" viewBox="-1 -18.982 100 100" overflow="visible"><path d="M49 62.035c-26.167 0-46.674-27.814-47.535-29L0 31.02l1.465-2.02C2.325 27.815 22.833 0 49 0c26.166 0 46.674 27.814 47.534 29L98 31.017l-1.466 2.02C95.674 34.22 75.166 62.034 49 62.034zM8.616 31.015c5.053 6.136 21.5 24.15 40.384 24.15 18.928 0 35.34-18.005 40.386-24.144C84.33 24.884 67.886 6.87 49 6.87c-18.928 0-35.34 18.004-40.384 24.144z"/><circle cx="49" cy="31.018" r="18.997"/></svg>