<svg xmlns="http://www.w3.org/2000/svg" width="100" height="100" viewBox="0 0 100 100"><path d="M54.932 3.03c-24.05-1.443-47.14 3.738-51.56 11.557-.974 1.723-.974 3.484 0 5.207l31.312 39.072c1.333 1.658 2.054 3.725 2.054 5.85v32.156c0 1.293 1.053 2.34 2.34 2.34.46 0 .917-.137 1.3-.397l14.65-9.763c1.3-.87 2.08-2.333 2.08-3.894V64.715c0-2.125.73-4.19 2.055-5.85L90.48 19.793C94.9 11.973 78.988 4.467 54.932 3.03zm-8.01 23.095c-23.276 0-37.57-5.376-37.57-9.23 0-3.852 14.294-9.224 37.57-9.224 23.283 0 37.578 5.373 37.578 9.225 0 3.854-14.295 9.23-37.577 9.23z"/></svg>