<svg xmlns="http://www.w3.org/2000/svg" viewBox="0 0 100 100"><path d="M19 82h62.004C87.067 82 92 77.063 92 71V36.996C92 30.933 87.067 26 81.004 26H53.52c-2.612 0-3.63-1.225-5.174-3.08C46.52 20.73 44.25 18 38.974 18H19c-6.782 0-11 4.213-11 10.996v43.437C8 76.947 12.707 82 19 82zm69-11c0 3.857-3.138 7-6.996 7H19c-4.058 0-7-3.327-7-5.567V52c0-5.782 3.81-7 7-7h19.974c5.198 0 7.463-2.382 9.284-4.298C49.75 39.132 50.828 38 53.52 38h27.485C84.862 38 88 41.138 88 44.996V71zM19 22h19.974c3.4 0 4.68 1.535 6.296 3.48 1.676 2.013 3.762 4.52 8.25 4.52h27.485c3.69 0 6.714 2.874 6.97 6.5-1.9-1.562-4.327-2.5-6.97-2.5H53.52c-4.41 0-6.49 2.187-8.162 3.947C43.736 39.654 42.455 41 38.974 41H19c-2.817 0-5 .74-7 2.077v-14.08C12 23.213 15.81 22 19 22z"/></svg>