<svg height="60" version="1" width="60" xmlns="http://www.w3.org/2000/svg"><defs><linearGradient id="a"><stop offset="0"/><stop offset="1" stop-color="#fff"/></linearGradient></defs><path d="M57.264 32.325c0 2.3-.19 4.482-.565 6.543-.378 2.05-.864 3.812-1.46 5.287-.377.92-.748 1.606-1.114 2.055-.366.45-.853.675-1.46.675-.637 0-1.17-.188-1.6-.565-.418-.376-.627-.873-.627-1.49 0-.136.156-.7.47-1.695.313-.983.6-1.95.862-2.902.262-.952.502-2.113.722-3.483.22-1.37.33-2.845.33-4.425 0-1.893-.168-3.682-.503-5.366-.333-1.695-.73-3.274-1.19-4.74-.46-1.463-.69-2.258-.69-2.384 0-.617.208-1.108.626-1.474.42-.366.952-.55 1.6-.55.618 0 1.11.225 1.475.675.368.44.734 1.125 1.1 2.055.596 1.454 1.082 3.212 1.46 5.272.375 2.06.564 4.23.564 6.51zM34.86 36.922l4.267-4.597-2.59-2.793c-.627-.67-1.05-1.124-1.27-1.364-.21-.252-.37-.497-.486-.738-.114-.25-.172-.533-.172-.847 0-.753.246-1.376.738-1.867.49-.492 1.045-.738 1.663-.738.595 0 1.065.084 1.41.25.346.17.7.493 1.068.974l2.667 3.342 2.667-3.342c.387-.48.748-.805 1.083-.973.334-.168.8-.252 1.396-.252.618 0 1.172.24 1.664.722.492.48.737 1.11.737 1.883 0 .314-.056.596-.17.847-.116.24-.284.486-.503.738-.21.24-.628.695-1.255 1.364l-2.59 2.793 4.268 4.597c.272.293.502.612.69.957.2.334.3.73.3 1.192 0 .763-.247 1.38-.74 1.85-.49.46-1.097.69-1.82.69-.47 0-.856-.098-1.16-.297-.292-.198-.648-.528-1.067-.988l-3.498-4.142-3.5 4.142c-.365.418-.71.737-1.035.957-.324.22-.72.33-1.192.33-.722 0-1.328-.23-1.82-.69-.49-.472-.737-1.09-.737-1.852 0-.45.084-.832.252-1.146.178-.313.423-.648.737-1.004zm-7.798-4.597c0-1.475.088-2.96.266-4.456.178-1.496.42-2.856.722-4.08.314-1.224.66-2.306 1.035-3.248.408-.972.785-1.668 1.13-2.086.345-.43.826-.644 1.444-.644.657 0 1.19.184 1.6.55.407.366.61.857.61 1.474 0 .126-.23.92-.69 2.385-.46 1.466-.857 3.045-1.192 4.74-.335 1.683-.502 3.472-.502 5.365 0 1.475.11 2.924.33 4.346.22 1.424.46 2.61.72 3.563.263.952.55 1.91.864 2.87.314.963.47 1.538.47 1.727 0 .617-.208 1.114-.627 1.49-.418.377-.946.565-1.584.565-.608 0-1.084-.214-1.43-.643-.344-.42-.726-1.114-1.145-2.087-.292-.763-.56-1.564-.8-2.4-.23-.827-.444-1.768-.643-2.825-.188-1.066-.335-2.16-.44-3.28-.093-1.128-.14-2.237-.14-3.325z" font-size="12" font-weight="900" fill="#333" stroke-width="1.333" font-family="VAG Rounded Black SSi"/><path d="M21.692 14.367c-11.643 3.3-5.04 27.413-16.024 30.638M6.684 26.62h16.404" fill="none" fill-opacity=".75" fill-rule="evenodd" stroke="#333" stroke-width="5" stroke-linecap="round" stroke-linejoin="round"/></svg>