<svg xmlns="http://www.w3.org/2000/svg" viewBox="0 0 100 100"><path d="M82.5 37.5C82.5 19.58 67.92 5 50 5S17.5 19.58 17.5 37.5V90H5v5h90v-5H82.5V37.5zM28.878 19.913L43.965 35H22.62c.516-5.708 2.78-10.918 6.258-15.087zM47.5 90h-25V40h25v50zm0-58.535L32.413 16.378c4.17-3.477 9.38-5.742 15.087-6.26v21.347zM77.38 35H56.036l15.087-15.087c3.477 4.17 5.742 9.38 6.26 15.087zM52.5 10.12c5.708.516 10.918 2.78 15.087 6.258L52.5 31.465V10.12zM77.5 90h-25V40h25v50z"/><circle cx="57.5" cy="67.5" r="2.5"/><circle cx="42.5" cy="67.5" r="2.5"/></svg>