<svg xmlns="http://www.w3.org/2000/svg" viewBox="5 5 88.00001 88"><path d="M9.72 12.25C7.13 12.25 5 14.377 5 16.97v36.06c0 2.588 2.132 4.72 4.72 4.72h21.686v4.125h-5.53c-1.083 0-1.94.855-1.94 1.937L23.94 66h27.437c.048-.64.135-1.283.25-1.906.17-.993.752-1.72 1.53-2.22h-3.5V57.75h6.72c-.59-.797-.89-1.803-.844-2.78H9.72c-1.098 0-1.94-.842-1.94-1.94V16.97c0-1.103.842-1.97 1.94-1.97h61.624c1.097 0 1.97.867 1.97 1.97v27.155c.918.017 1.827-.026 2.75.03V16.97c0-2.593-2.133-4.72-4.72-4.72H9.72zm64.718 34.406c-.832 0-1.64.064-2.47.156-.53.06-1 .52-1 1.125v3.25c0 .454-.352.932-.812 1.063-1.127.322-2.222.722-3.187 1.28-.473.274-.96.216-1.345-.155l-2.344-2.25c-.423-.41-1.065-.457-1.53-.094-1.273.998-2.41 2.218-3.47 3.5-.375.456-.308 1.117.064 1.5l2.28 2.345c.337.348.393.895.157 1.344-.518.986-.97 2.055-1.28 3.186-.145.53-.534.844-1.063.844h-3.25c-.604 0-1.06.363-1.124.97-.088.83-.157 1.668-.157 2.5 0 .83.064 1.67.157 2.5.058.53.52.967 1.124.967h3.25c.454 0 .932.385 1.063.844.322 1.13.722 2.192 1.28 3.157.274.472.217.992-.155 1.375l-2.28 2.344c-.412.424-.427 1.036-.064 1.5.998 1.274 2.187 2.41 3.47 3.47.455.375 1.147.308 1.53-.064l2.345-2.28c.348-.337.895-.393 1.344-.157.986.52 2.055.973 3.186 1.28.53.146.813.535.813 1.064v3.25c0 .603.393 1.09 1 1.155.83.087 1.636.125 2.468.125.83 0 1.67-.033 2.5-.125.53-.06 1-.552 1-1.156v-3.25c0-.455.353-.933.812-1.064 1.128-.322 2.222-.722 3.188-1.28.47-.274.96-.216 1.343.155l2.345 2.282c.424.41 1.067.427 1.53.063 1.274-.996 2.41-2.186 3.47-3.47.376-.454.278-1.115-.094-1.5l-2.25-2.343c-.335-.347-.39-.926-.155-1.375.52-.987.973-2.024 1.28-3.156.146-.53.535-.843 1.064-.843h3.25c.603 0 1.06-.363 1.124-.968.087-.83.156-1.67.156-2.5 0-.832-.064-1.672-.156-2.5-.06-.532-.52-.97-1.125-.97h-3.25c-.455 0-.932-.384-1.064-.844-.322-1.127-.722-2.222-1.28-3.187-.274-.473-.216-.96.155-1.345l2.25-2.344c.412-.423.46-1.034.095-1.5-.996-1.272-2.186-2.44-3.47-3.5-.454-.375-1.146-.276-1.53.095l-2.344 2.25c-.346.336-.894.392-1.343.156-.987-.518-2.055-.97-3.187-1.28-.53-.145-.813-.534-.813-1.063v-3.25c0-.604-.394-1.06-1-1.125-.83-.087-1.668-.156-2.5-.156zm-.063 10.28c5.666 0 10.28 4.616 10.28 10.283 0 5.665-4.614 10.28-10.28 10.28-5.666 0-10.28-4.615-10.28-10.28 0-5.668 4.614-10.283 10.28-10.283z"/></svg>