<svg xmlns="http://www.w3.org/2000/svg" viewBox="0 0 100 100"><path fill-rule="evenodd" clip-rule="evenodd" d="M58.865 18.95L57.56 9.574c-.4-2.86-.073-3.84-3.29-4.28-2.982-.418-5.7-.39-8.797.08-3.086.45-2.7 1.49-3.07 4.205-.425 3.19-.84 6.192-1.27 9.383v.004c-2.407.68-4.702 1.638-6.84 2.837l.018-.03c-2.515-1.903-5.025-3.8-7.55-5.696-2.31-1.76-2.765-2.672-5.352-.717-2.4 1.82-4.302 3.77-6.16 6.273-1.86 2.515-.853 2.975.798 5.16 1.955 2.554 3.79 4.965 5.735 7.525v.002c-1.19 2.127-2.137 4.42-2.83 6.816v-.004c-3.122.432-6.25.866-9.377 1.304-2.86.4-3.84.074-4.28 3.292-.418 2.98-.39 5.7.08 8.796.45 3.086 1.49 2.7 4.205 3.07l9.35 1.266c.68 2.412 1.648 4.707 2.842 6.846l-5.724 7.51c-1.65 2.186-2.656 2.646-.8 5.155 1.86 2.526 3.76 4.468 6.162 6.28 2.586 1.962 3.042 1.038 5.353-.708l7.54-5.69c2.143 1.192 4.43 2.157 6.838 2.842l1.267 9.325c.37 2.713-.017 3.753 3.07 4.203 3.095.47 5.814.5 8.795.082 3.218-.44 2.89-1.422 3.292-4.28L58.86 81.1c2.414-.685 4.717-1.646 6.865-2.85l7.48 5.7c2.186 1.65 2.646 2.655 5.16.798 2.504-1.86 4.453-3.762 6.274-6.16 1.954-2.588 1.043-3.043-.718-5.354l-5.67-7.516c1.198-2.148 2.164-4.448 2.845-6.86l9.325-1.267c2.714-.37 3.754.017 4.204-3.07.47-3.095.5-5.814.082-8.795-.44-3.218-1.422-2.89-4.28-3.292l-9.346-1.3c-.682-2.406-1.646-4.694-2.84-6.833l5.68-7.52c1.76-2.316 2.672-2.776.717-5.362-1.82-2.395-3.77-4.305-6.274-6.164-2.515-1.85-2.975-.85-5.16.82L65.7 21.78c-2.143-1.195-4.426-2.14-6.835-2.83zM50 33.404c-9.164 0-16.595 7.43-16.595 16.594 0 9.166 7.43 16.597 16.594 16.597 9.165 0 16.597-7.43 16.597-16.597 0-9.162-7.433-16.594-16.598-16.594z"/></svg>