<svg xmlns="http://www.w3.org/2000/svg" viewBox="50 50 410 410"><path d="M287.902 61.034c2.12 0 3.37.286 3.905.48.192.533.477 1.78.477 3.892v48.603c0 6.655 4.207 12.586 10.49 14.785 13.59 4.758 26.93 12.568 39.645 23.213 2.886 2.417 6.46 3.653 10.058 3.653 2.7 0 5.41-.695 7.854-2.112l39.69-23.01c.11-.065.223-.132.332-.2 1.686-1.032 2.742-1.388 3.242-1.51.47.42 1.348 1.412 2.394 3.27l.078.138 33.405 57.918c1.15 1.984 1.483 3.156 1.58 3.654-.317.395-1.154 1.268-3.082 2.473l-40.19 22.855c-5.468 3.11-8.545 9.188-7.815 15.437.666 5.695 1.01 11.428 1.376 17.497l.007.086v3.977c0 8.164-.653 15.912-1.996 23.69-1.113 6.45 1.902 12.915 7.562 16.207l40.81 23.736c.165.096.33.188.497.276 1.49.797 2.287 1.466 2.686 1.875-.07.43-.216 1.08-.514 1.97-.078.232-.15.468-.218.704-.09.177-.27.51-.61 1.08-.036.06-.072.125-.108.187l-33.27 57.68c-1.218 1.958-2.1 2.8-2.493 3.114-.496-.094-1.68-.427-3.713-1.603l-41.93-24.13c-2.428-1.398-5.124-2.09-7.81-2.09-3.33 0-6.645 1.06-9.42 3.147-4.22 3.174-8.444 6.348-12.667 9.508-8.72 5.187-17.347 9.375-25.65 12.455-6.143 2.28-10.218 8.138-10.218 14.688v48.973c0 2.112-.284 3.358-.477 3.892-.534.192-1.784.48-3.905.48h-64.94c-2.113 0-3.36-.286-3.893-.478-.192-.534-.477-1.78-.477-3.894v-48.235c0-6.545-4.07-12.4-10.203-14.683-14.644-5.448-27.706-13.07-39.93-23.304-2.886-2.416-6.46-3.653-10.06-3.653-2.66 0-5.335.677-7.753 2.056l-39.705 22.628-.114.066c-2.08 1.208-3.304 1.515-3.786 1.593-.41-.342-1.24-1.224-2.234-2.933l-32.744-56.76c-.413-1.014-.942-2.135-1.643-3.273-.294-.726-.42-1.22-.474-1.506.343-.4 1.224-1.262 3.206-2.428l40.406-23.353c5.706-3.297 8.738-9.812 7.586-16.3-.935-5.267-1.276-10.8-1.63-16.656v-3.987c0-8.163.656-15.896 2.005-23.64 1.13-6.495-1.925-13.004-7.646-16.282L73.2 193.64c-1.893-1.148-2.72-1.974-3.005-2.3-.04-.13-.084-.262-.128-.392.1-.472.426-1.605 1.494-3.66l33.58-57.596c.067-.113.13-.228.195-.343.9-1.638 1.663-2.514 2.067-2.883.494.092 1.62.407 3.482 1.485l41.93 24.132c2.428 1.397 5.124 2.088 7.812 2.088 3.316 0 6.62-1.052 9.387-3.122l.205-.153c4.295-3.214 8.354-6.25 12.347-8.928 8.284-5.282 16.968-9.624 25.815-12.91 6.14-2.278 10.213-8.137 10.213-14.686v-48.97c0-2.114.285-3.36.477-3.895.534-.193 1.78-.478 3.893-.478h64.94m0-15.664h-64.94c-13.35 0-20.037 6.688-20.037 20.037v48.97c-10.006 3.715-19.668 8.56-28.937 14.482-4.45 2.975-8.912 6.32-13.363 9.65l-41.93-24.133c-4.17-2.413-8.043-3.61-11.592-3.61-6.242 0-11.47 3.71-15.5 11.037L57.85 179.698c-3.342 6.307-4.448 11.507-2.606 16.325 1.12 4.08 4.464 7.794 10.018 11.124l40.823 23.394c-1.486 8.53-2.238 17.062-2.238 26.33v4.46c.38 6.308.75 12.612 1.87 18.92l-40.454 23.38c-10.754 6.304-13.73 14.468-8.53 25.224.37.368.737 1.12 1.12 2.237l33.384 57.87c4.2 7.23 9.417 10.798 15.567 10.798 3.643 0 7.614-1.253 11.894-3.74l39.705-22.63c13.73 11.493 28.566 20.037 44.523 25.974v48.235c0 13.348 6.687 20.036 20.036 20.036h64.94c13.36 0 20.048-6.688 20.048-20.036v-48.973c10.006-3.712 19.657-8.543 28.937-14.112 4.45-3.33 8.9-6.673 13.35-10.02l41.93 24.132c4.28 2.48 8.2 3.73 11.803 3.73 6.077 0 11.24-3.563 15.672-10.787l33.385-57.884c1.105-1.856 1.856-3.344 2.224-4.83 1.49-4.45 1.858-8.53.738-11.863-1.485-4.08-4.817-7.793-10.387-10.768l-40.81-23.736c1.476-8.544 2.225-17.073 2.225-26.355v-4.447c-.38-6.318-.75-12.612-1.487-18.93l40.442-23c11.506-7.056 13.73-15.954 7.057-27.46l-33.385-57.886c-4.23-7.506-9.49-11.308-15.698-11.308-3.612 0-7.545 1.287-11.777 3.883l-39.69 23.01c-13.744-11.505-28.58-20.403-44.524-25.985V65.405c-.003-13.35-6.69-20.037-20.05-20.037z"/><path d="M256.408 336.41c-21.957 0-41.164-8.076-57.087-24-15.66-15.66-23.6-34.858-23.6-57.06 0-22.45 7.94-41.78 23.6-57.454 15.672-15.673 34.878-23.618 57.088-23.618 22.19 0 41.388 7.945 57.06 23.616 15.915 15.915 23.984 35.246 23.984 57.456 0 21.96-8.07 41.158-23.985 57.062-15.923 15.922-35.12 23.997-57.06 23.997zm0-145.843c-17.982 0-32.888 6.164-45.57 18.845-12.67 12.682-18.83 27.71-18.83 45.938 0 17.974 6.16 32.87 18.83 45.54 12.94 12.94 27.844 19.23 45.57 19.23 17.707 0 32.604-6.29 45.543-19.23 12.93-12.917 19.213-27.812 19.213-45.54 0-17.733-6.464-33.19-19.212-45.938-12.68-12.68-27.58-18.845-45.542-18.845z"/></svg>