<svg xmlns="http://www.w3.org/2000/svg" viewBox="0 0 48 48"><path d="M42.135 48H5.865c-.552 0-1-.447-1-1V1c0-.552.448-1 1-1h36.27c.553 0 1 .448 1 1v46c0 .553-.447 1-1 1zm-35.27-2h34.27V2H6.865v44z"/><path d="M24 42.43c-7.32 0-13.275-5.955-13.275-13.275 0-2.635.78-5.18 2.23-7.346h-1.23c-.552 0-1-.45-1-1V6.57c0-.552.448-1 1-1h24.548c.553 0 1 .448 1 1v14.238c0 .552-.447 1-1 1h-1.23c1.45 2.168 2.23 4.712 2.23 7.346 0 7.32-5.954 13.276-13.273 13.276zM12.725 19.808h2.292c.398 0 .758.236.917.6.16.366.086.79-.185 1.082-1.95 2.097-3.025 4.82-3.025 7.665 0 6.217 5.058 11.275 11.275 11.275 6.216 0 11.273-5.06 11.273-11.275 0-2.844-1.074-5.566-3.023-7.666-.27-.293-.343-.717-.185-1.08.16-.366.52-.602.917-.602h2.29V7.57H12.726v12.238z"/><path d="M30.664 11.935h-13.42c-.553 0-1-.448-1-1s.447-1 1-1h13.42c.553 0 1 .448 1 1s-.447 1-1 1zM30.664 16.804h-13.42c-.553 0-1-.448-1-1s.447-1 1-1h13.42c.553 0 1 .448 1 1s-.447 1-1 1zM24.2 33.328c-2.327 0-4.22-1.894-4.22-4.22 0-2.327 1.893-4.22 4.22-4.22s4.22 1.893 4.22 4.22-1.893 4.22-4.22 4.22zm0-6.44c-1.224 0-2.22.996-2.22 2.22 0 1.225.996 2.22 2.22 2.22 1.224 0 2.22-.995 2.22-2.22 0-1.224-.996-2.22-2.22-2.22z"/></svg>