<svg xmlns="http://www.w3.org/2000/svg" viewBox="0 0 100 100"><path d="M50 14.227c-19.802.008-36.68 14.367-39.863 33.912-5.56 3.208-8.99 9.137-9 15.557 0 9.938 8.055 17.994 17.992 17.994.282-.002.564-.013.847-.03.33-.06.607-.157.837-.308-4.558-6.662-7.235-14.582-7.242-22.907 0-21.34 16.31-38.64 36.428-38.64 20.12 0 36.43 17.3 36.428 38.64-.008 8.284-2.656 16.17-7.176 22.813.267.21.594.34 1.008.41.21.01.418.023.627.023 9.937 0 17.992-8.055 17.992-17.993-.01-6.42-3.44-12.35-9-15.558v.008l-.052-.082.057.12c0 .005 0 .008.002.01l-.06-.087.003.036h-.002C86.65 28.61 69.79 14.252 50 14.225z" style="isolation:auto;mix-blend-mode:normal" color="#000" overflow="visible" solid-color="#000000" stroke-opacity=".171"/><g fill-rule="evenodd"><path d="M79.2 70.65c-4.84-3.233-5.11-7.087.027-11.05-3.805 3.56-3.05 8.47-.026 11.05z"/><path d="M77.59 74.277c-9.09-5.057-9.42-12.097.044-18.304-7.255 6.61-6.776 12.96-.043 18.304z"/><path d="M74.782 79.323c-14.102-7.844-14.617-18.767.066-28.396-11.255 10.256-10.51 20.106-.066 28.396z"/></g><g fill-rule="evenodd"><path d="M20.796 70.65c4.84-3.233 5.112-7.087-.026-11.05 3.804 3.56 3.05 8.47.026 11.05z"/><path d="M22.405 74.277c9.09-5.057 9.422-12.097-.042-18.304 7.254 6.61 6.775 12.96.042 18.304z"/><path d="M25.215 79.323c14.102-7.844 14.616-18.767-.066-28.396 11.253 10.256 10.51 20.106.065 28.396z"/></g></svg>