<svg xmlns="http://www.w3.org/2000/svg" viewBox="0 0 48 60"><path d="M36.1 12.3H1.5c-.6 0-1-.4-1-1V1.5c0-.6.4-1 1-1h34.6c.6 0 1 .4 1 1v9.8c0 .6-.4 1-1 1zm-33.6-2h32.6V2.5H2.5v7.8zM19.6 29.9H1.5c-.6 0-1-.4-1-1v-9.8c0-.6.4-1 1-1h34.6c.6 0 1 .4 1 1V23c0 .6-.4 1-1 1s-1-.4-1-1v-2.9H2.5v7.8h17.1c.6 0 1 .4 1 1s-.5 1-1 1zM19.8 47.5H1.5c-.6 0-1-.4-1-1v-9.8c0-.6.4-1 1-1h18.2c.6 0 1 .4 1 1s-.4 1-1 1H2.5v7.8h17.3c.6 0 1 .4 1 1s-.5 1-1 1z"/><path d="M13.2 7.4H6.9c-.6 0-1-.4-1-1s.4-1 1-1h6.3c.6 0 1 .4 1 1s-.4 1-1 1zM13.2 25H6.9c-.6 0-1-.4-1-1s.4-1 1-1h6.3c.6 0 1 .4 1 1s-.4 1-1 1zM13.2 42.6H6.9c-.6 0-1-.4-1-1s.4-1 1-1h6.3c.6 0 1 .4 1 1 0 .5-.4 1-1 1z"/><ellipse cx="29.1" cy="6.4" rx="1.6" ry="1.5"/><path d="M46.5 47.5H19.8c-.6 0-1-.4-1-1V23.2c0-.6.4-1 1-1h26.7c.6 0 1 .4 1 1v23.3c0 .6-.4 1-1 1zm-25.7-2h24.7V24.2H20.8v21.3z"/><path d="M25.8 44c-.6 0-1-.4-1-1V26.7c0-.6.4-1 1-1s1 .4 1 1V43c0 .5-.5 1-1 1zM33.1 44c-.6 0-1-.4-1-1V26.7c0-.6.4-1 1-1s1 .4 1 1V43c0 .5-.4 1-1 1zM40.5 44c-.6 0-1-.4-1-1V26.7c0-.6.4-1 1-1s1 .4 1 1V43c0 .5-.5 1-1 1z"/><path d="M42.4 32.8h-3.9c-.6 0-1-.4-1-1s.4-1 1-1h3.9c.6 0 1 .4 1 1 0 .5-.4 1-1 1zM35.1 37.2h-3.9c-.6 0-1-.4-1-1s.4-1 1-1h3.9c.6 0 1 .4 1 1 0 .5-.5 1-1 1zM27.7 34.5h-3.9c-.6 0-1-.4-1-1s.4-1 1-1h3.9c.6 0 1 .4 1 1 0 .5-.4 1-1 1z"/><text y="63" font-size="5" font-weight="bold" font-family="'Helvetica Neue', Helvetica, Arial-Unicode, Arial, Sans-serif">Created by Creative Stall</text><text y="68" font-size="5" font-weight="bold" font-family="'Helvetica Neue', Helvetica, Arial-Unicode, Arial, Sans-serif">from the Noun Project</text></svg>