<svg xmlns="http://www.w3.org/2000/svg" viewBox="0 0 100 100"><path d="M53.734 56.65l-.002-.032v.03h.002zM67.175 63.658c-.212.124-.428.24-.643.357 0 .002 0 .005-.002.007.206-.112.423-.233.645-.364zM48.14 65.142l-.002.003c.446.195.988.38 1.494.532l.008-.008c-.506-.158-1.005-.333-1.5-.528z" fill="none"/><path d="M49.63 65.678c.514.155.987.277 1.284.352-.43-.106-.853-.23-1.275-.36l-.01.008zM51.23 66.106l.004-.003c-.078-.02-.154-.032-.232-.052.142.036.228.056.228.056zM66.2 64.198c-.51.267-1.028.507-1.55.73l-.004.007c.052-.022.678-.28 1.553-.737zM66.53 64.02s0-.003.002-.005c-.084.046-.166.096-.25.14.08-.043.165-.087.247-.134z"/><path d="M50.34 20.544l-9.29 9.29c-.802.8-1.53 1.65-2.18 2.54-.142.192-.27.393-.405.59 4.487-1.216 9.25-1.145 13.703.217l.76-.758L58.05 27.3c4.493-4.493 11.778-4.492 16.272 0 4.492 4.494 4.493 11.78 0 16.273l-5.84 5.84-1.2 1.2-1.17 1.17-.004.004-1.946 1.946c-2.028 2.028-4.624 3.137-7.277 3.334v.004h-.003c-.557.05-1.035.052-1.444.036-.9-.04-1.42-.18-1.42-.18v-.002h-.004c-2.243-.397-4.39-1.46-6.123-3.192-1.684-1.685-2.737-3.762-3.16-5.938l-.03-.186c-1.97.162-3.893.99-5.397 2.493l-3.094 3.095c1.06 2.686 2.668 5.205 4.84 7.378 2.17 2.17 4.69 3.784 7.374 4.844.494.195.994.37 1.5.527.42.13.845.254 1.275.36l.086.02c.077.02.154.033.232.052 4.452 1.026 9.16.634 13.415-1.175.524-.222 1.042-.462 1.55-.727l.082-.045c.085-.043.167-.092.25-.14.216-.115.432-.232.643-.357.003 0 .005 0 .008-.003 1.543-.912 2.997-2.03 4.32-3.355l9.29-9.29c8.49-8.487 8.488-22.25 0-30.737-8.487-8.488-22.25-8.49-30.737 0z"/><path d="M51.06 81.3l9.288-9.288c.803-.802 1.53-1.652 2.18-2.54.142-.194.27-.394.405-.59-4.486 1.215-9.25 1.144-13.702-.22l-.76.762-5.122 5.12c-4.493 4.495-11.778 4.494-16.272 0-4.493-4.493-4.493-11.777 0-16.27l5.84-5.84 1.2-1.2 1.17-1.17.004-.005 1.946-1.946c2.027-2.028 4.624-3.137 7.276-3.334v-.003h.002c.558-.05 1.036-.052 1.445-.035.897.037 1.418.178 1.418.178v.003h.005c2.243.396 4.39 1.46 6.123 3.19 1.685 1.685 2.738 3.763 3.16 5.938.012.064.02.126.03.187 1.97-.16 3.895-.988 5.398-2.49l3.094-3.095c-1.06-2.687-2.67-5.206-4.843-7.378-2.17-2.172-4.688-3.784-7.374-4.844-.493-.195-.993-.37-1.498-.528-.422-.13-.847-.255-1.275-.36l-.087-.02c-.077-.02-.155-.034-.23-.052-4.454-1.026-9.164-.633-13.417 1.175-.523.223-1.04.463-1.55.728-.028.014-.055.03-.083.043-.084.045-.166.094-.25.14-.215.117-.43.234-.643.36-.003 0-.004.002-.007.004-1.543.91-2.996 2.03-4.322 3.355l-9.288 9.288c-8.488 8.488-8.488 22.25 0 30.737 8.49 8.49 22.25 8.49 30.74 0zM67.183 63.653c-.003.002-.006.002-.008.005.002-.003.005-.003.008-.005zM66.2 64.198c.026-.014.054-.028.08-.044-.025.016-.053.03-.08.044z"/><path d="M53.734 56.652s.522.14 1.42.18v-.02c-.475-.023-.95-.08-1.42-.163v.002zM51 66.05l-.086-.02.087.02z"/><path d="M55.155 56.812c-.002.006 0 .012 0 .02.408.016.886.013 1.444-.036l-.002-.003c-.48.035-.963.043-1.443.02zM56.602 56.793l-.002-.017c0 .005 0 .01-.002.017h.004z"/><path d="M56.598 56.794l.002-.002.003.002-.003.003z"/></svg>