<svg xmlns="http://www.w3.org/2000/svg" viewBox="0 0 100 100"><path fill-rule="evenodd" clip-rule="evenodd" d="M37.854 26.105c4.42.427 9.428.088 13.873 1.506 9.94 3.173 12.788 12.876 6.95 21.617-5.84 8.748-19.073 12.68-28.706 8.53-5.732-2.47-8.563-7.036-8.385-13.494.03-1.115.004-2.23.004-3.86-1.385 1.08-2.315 2.11-3.475 2.62-1.036.457-2.63.83-3.42.34-.834-.52-1.51-2.167-1.378-3.21.498-3.95 2.573-7.114 5.903-9.304 2.276-1.5 4.43-.315 4.684 2.43.073.804.01 1.62.01 2.587l9.883-8.096c-1.812.35-2.923.823-3.96.693-1.14-.14-2.447-.605-3.204-1.39-.354-.367.118-2.114.728-2.728 3.47-3.495 7.696-5.516 12.69-5.434 2.33.04 3.104 1.876 1.56 3.694-1.263 1.49-2.866 2.69-3.756 3.5zM67.94 49.245c6.422.004 9.633 4.886 6.66 10.807-3.025 6.023-8.02 9.765-15.012 9.99-6.783.216-9.113-4.22-7-10.355 1.982-5.75 9.282-10.445 15.352-10.442zM74.326 45.595c-5.795-.04-10.96-5.35-10.944-11.25.01-4.358 3.075-7.578 7.186-7.55 5.74.038 11.674 6.008 11.645 11.716-.022 4.396-3.055 7.117-7.887 7.085zM36.197 75.248c-2.69-.746-5.478-1.256-8.046-2.303-2.54-1.036-4.416-3.082-4.374-6.015.04-2.863 2.01-4.553 4.556-5.425 4.97-1.703 9.95-1.554 14.65.823 2.614 1.323 4.723 3.39 4.095 6.75-.636 3.415-3.49 4.53-6.35 5.352-1.38.397-2.912.27-4.376.383-.05.145-.1.29-.153.435zM88.205 52.5c5.772-.035 8.32 4.093 5.863 8.747-2.173 4.12-7.616 6.623-11.453 5.267-3.71-1.31-5.093-4.566-3.344-8.096 1.914-3.86 5.204-5.632 8.935-5.918zM46.266 87.77c-2.305-.647-4.112-.884-5.658-1.646-3.387-1.67-3.61-5.446-.465-7.57 3.783-2.553 7.987-2.738 12.106-1.13 3.564 1.393 4.037 5.33.838 7.497-2.075 1.405-4.7 1.997-6.822 2.85z"/><path fill-rule="evenodd" clip-rule="evenodd" d="M57.453 27.11c-2.69-.852-5.713-1.424-8.362-2.75-2.985-1.493-2.786-4.062.092-5.744 3.72-2.173 12.656-1.704 16.048.843 2.476 1.856 2.406 4.396-.435 5.66-2.147.955-4.578 1.27-7.342 1.99zM23.01 56.955c.222 2.71-.845 4.873-3.3 5.907-2.6 1.095-4.784-.288-6.372-2.243-2.035-2.507-3.362-5.388-2.407-8.75 1.26-4.428 5.613-5.746 8.71-2.37 1.8 1.958 2.785 4.662 4.136 7.03-.255.14-.51.283-.767.425zM75.446 15.578c2.298 1.132 4.353 1.767 5.882 3.037.915.76 1.645 2.734 1.288 3.75-.365 1.042-2.194 2.246-3.323 2.19-2-.1-4.194-.743-5.84-1.852-1.147-.772-2.348-2.96-2.01-4.048.385-1.244 2.446-1.967 4.003-3.077zM16.59 70.245c-.966 1.368-1.613 3.255-2.71 3.568-1.08.307-3.026-.646-3.848-1.653-1.048-1.285-1.825-3.18-1.823-4.81 0-1.304 1.065-3.11 2.19-3.732.768-.426 2.856.455 3.63 1.366 1.135 1.34 1.62 3.23 2.56 5.26zM45.207 17.008c-1.104-.705-2.2-1.406-3.298-2.105 1.097-.82 2.09-2.043 3.316-2.354 1.657-.42 3.54-.397 5.24-.09 1.748.318 2.036 1.67.426 2.552-1.597.874-3.468 1.245-5.685 1.996zM10.555 41.71c-.106 3.194-2.276 6.416-3.938 6.2-.64-.083-1.572-1.25-1.612-1.966-.132-2.368 2.467-5.92 4.086-5.665.69.108 1.227 1.182 1.465 1.43zM19.22 28.43c-.552-1.517-1.03-2.235-.99-2.923.027-.5.646-1.162 1.164-1.403 1.83-.85 3.725-1.55 5.596-2.307.114.565.515 1.45.297 1.645-1.747 1.57-3.613 3.006-6.067 4.988z"/></svg>