<svg xmlns="http://www.w3.org/2000/svg" viewBox="0 0 100 100"><path d="M50 5c24.854 0 45 20.147 45 45 0 24.854-20.146 45-45 45C25.147 95 5 74.854 5 50 5 25.147 25.147 5 50 5zm0 53.5c6.075 0 11-4.807 11-10.733V30.205c0-5.927-4.925-10.732-11-10.732s-11 4.805-11 10.732v17.562C39 53.693 43.925 58.5 50 58.5zm19.625-15.25c-.5-3.5-4.688-1.812-4.208 0 3.396 25.438-33.48 27.75-30.75-.03-.542-3.095-4.292-1.97-4.292.03-.898 15.098 7.942 22.826 17.475 23.8v4.716H39c-1.104 0-2 .974-2 2.174s.896 2.176 2 2.176h22c1.104 0 2-.975 2-2.176 0-1.2-.896-2.174-2-2.174h-8.85v-4.73c9.828-1.067 18.952-9.214 17.475-23.786z"/></svg>