<svg xmlns="http://www.w3.org/2000/svg" viewBox="0 0 100.00001 100"><path d="M10.97 13.562c-3.277 0-5.97 2.687-5.97 5.97V65.25c0 3.276 2.693 5.97 5.97 5.97h26.155v6.436h25.72V71.22H89.03c3.277 0 5.97-2.694 5.97-5.97V19.53c0-3.28-2.693-5.968-5.97-5.968H10.97zm0 3.532h78.06c1.39 0 2.44 1.042 2.44 2.437v45.72c0 1.39-1.05 2.437-2.44 2.437H10.97c-1.39 0-2.47-1.048-2.47-2.437V19.53c0-1.394 1.08-2.436 2.47-2.436zm20.468 64.093c-1.37 0-2.47 1.1-2.47 2.47v2.78h42v-2.78c0-1.37-1.098-2.47-2.468-2.47H31.437z"/></svg>