<svg xmlns="http://www.w3.org/2000/svg" width="100" height="100" viewBox="0 0.0 100.0 100.0"><path d="M17.09 78.69h19.417l1.815-6.836h-21.23M41.656 59.298c.218-.815.59-1.576 1.082-2.255H17.09v6.836h23.35l1.216-4.582zM67.222 32.43v-5.01h-50.13v6.836h48.303"/><path d="M75.195 89.885H9.115V10.132h15.382c0 3.46 2.806 6.267 6.266 6.267H53.55c3.46 0 6.266-2.807 6.266-6.268h15.38v14.324L78.9 20.75c1.518-1.515 3.39-2.522 5.41-2.946v-7.672c0-5.033-4.08-9.114-9.114-9.114H9.114C4.08 1.018 0 5.098 0 10.132v79.753C0 94.92 4.08 99 9.114 99h66.08c5.035 0 9.116-4.08 9.116-9.115V64.55l-9.115 9.115v16.22z"/><path d="M57.417 42.23H17.09v6.837h33.49M98.208 33.91l-7.467-7.466c-2.052-2.054-4.95-2.913-7.01-.856L48.265 61.053l-5.397 20.323 20.335-5.384 35.474-35.476c2.05-2.05 1.586-4.554-.468-6.605zM46.736 77.91l1.81-6.82 5.005 5.013-6.814 1.808zm39.803-40.19l-29.607 29.6-3.533-3.533 29.26-29.27c.516-.52 2.357.148 2.87.665.518.514 1.52 2.023 1.01 2.538z"/></svg>