<svg xmlns="http://www.w3.org/2000/svg" width="58" height="52" viewBox="0 0 58 52"><path d="M19.417 17.596l7.597 3.497c1 .46 2.634.46 3.632 0l6.41-2.95 10.515-5.015c-.22-.166-.446-.315-.685-.424L31.56 5.647c-1.5-.69-3.952-.69-5.45 0l-15.332 7.057c-.245.112-.477.267-.703.438l9.342 4.454zM28.098 24.693c0-1.102-.817-2.376-1.816-2.837L14.71 16.532c-.01-.004-.018-.012-.028-.017l-5.232-2.41v17.99c0 1.65 1.227 3.565 2.726 4.256l15.33 7.06c.137.062.29.112.44.163l.15-9.367v-9.513zM42.465 16.466c-.02.01-.04.026-.062.037L30.83 21.83c-1 .46-1.817 1.736-1.817 2.836v7.836h.023L29 43.607c.216-.065.42-.142.61-.23l15.33-7.057c1.498-.69 2.726-2.603 2.726-4.254l-.003-18-5.198 2.4z" fill="#fff"/></svg>