<svg xmlns="http://www.w3.org/2000/svg" viewBox="10 6 86 86"><path d="M52.883 5.87c-23.782 0-43.06 19.278-43.06 43.06 0 23.783 19.278 43.062 43.06 43.062 23.78 0 43.06-19.28 43.06-43.062 0-23.782-19.28-43.06-43.06-43.06zm0 83.868c-22.538 0-40.807-18.27-40.807-40.81 0-22.536 18.27-40.806 40.807-40.806 22.537 0 40.807 18.27 40.807 40.807 0 22.54-18.27 40.808-40.807 40.808z"/><path d="M52.88 14.708c-18.9 0-34.22 15.32-34.22 34.223 0 18.902 15.32 34.222 34.22 34.222 18.902 0 34.225-15.32 34.225-34.22 0-18.902-15.323-34.224-34.224-34.224zm3.003 43.4L40.02 67.225l.035-18.294.034-18.296 15.827 9.176 15.828 9.178-15.862 9.117z"/></svg>