<svg xmlns="http://www.w3.org/2000/svg" viewBox="0 0 100 100"><path d="M94.455 22.233l-.012-.08c-.02-.113-.04-.224-.072-.334-.005-.023-.01-.045-.017-.066-.035-.123-.08-.246-.133-.365l-.04-.08c-.026-.06-.055-.118-.085-.176-.02-.032-.04-.062-.062-.093l-.06-.097c-.063-.098-.133-.193-.205-.282-.008-.008-.016-.018-.02-.027-.087-.103-.182-.195-.277-.285-.02-.018-.038-.034-.06-.05-.087-.076-.176-.146-.268-.21l-.06-.04c-.108-.073-.224-.138-.343-.195-.01-.004-.015-.01-.024-.014L51.348-.034c-.852-.41-1.843-.41-2.694 0L7.28 19.837c-1.08.52-1.765 1.61-1.765 2.805v51.116c0 1.13.613 2.172 1.602 2.72l41.375 22.943c0 .002.003.003.004.003.11.062.223.114.34.162.02.008.04.015.06.02.092.036.188.067.286.095.03.008.062.017.093.023.09.022.18.038.272.053l.092.015c.118.016.238.023.36.023.123 0 .244-.01.362-.022.03-.003.062-.01.092-.014.092-.015.183-.03.27-.053.032-.008.065-.017.097-.023.098-.026.192-.06.286-.094l.06-.02c.114-.05.23-.102.34-.163.002 0 .004 0 .004-.002l41.375-22.94c.988-.55 1.603-1.59 1.603-2.722V22.642v-.007c-.004-.134-.015-.268-.033-.402zm-6.187 49.69l-35.157 19.5V80.458c0-1.72-1.393-3.11-3.11-3.11s-3.11 1.393-3.11 3.11V91.42L11.735 71.926V27.69c3.692.648 7 2.427 9.548 4.975L27.56 39.6c-1.045 1.328-2.384 3.19-2.757 4.592-.852 3.195-.326 6.432 1.208 9.086l20.725-12.01c-1.538-2.65-4.085-4.716-7.282-5.567-1.854-.492-4.69-.178-6.47.19l-.475.303-7.006-7.75c-2.653-2.65-5.927-4.68-9.58-5.856L50 6.22l34.604 16.62-22.547 12.504c-1.502.833-2.045 2.726-1.21 4.23.567 1.023 1.628 1.602 2.722 1.602.508 0 1.026-.126 1.503-.392l23.193-12.86v18.553h-.188c0 10.202-8.298 18.5-18.5 18.5-3.63 0-7.005-1.064-9.86-2.877.39-1.024.61-2.13.61-3.29 0-2.556-1.035-4.868-2.707-6.542l-2.368 2.367-4.594-4.592-.003.003c-.6-.6-1.574-.6-2.175 0-.6.603-.6 1.577 0 2.177l4.59 4.592-3.986 3.986-4.728-4.727-.003.003c-.602-.602-1.576-.602-2.176 0-.6.602-.6 1.576 0 2.177l4.73 4.73-2.37 2.366c1.676 1.673 3.987 2.708 6.542 2.708 1.673 0 3.237-.45 4.593-1.228 3.963 2.715 8.75 4.312 13.906 4.312 7.466 0 14.16-3.338 18.688-8.596v9.378z"/></svg>