<svg xmlns="http://www.w3.org/2000/svg" viewBox="0 0 100 100"><path d="M50 0C22.437 0 0 22.42 0 49.983 0 77.563 22.437 100 50 100s50-22.438 50-50.017C100 22.42 77.563 0 50 0zm0 90.904c-22.558 0-40.904-18.347-40.904-40.92C9.096 27.423 27.442 9.095 50 9.095s40.904 18.33 40.904 40.887c0 22.575-18.346 40.92-40.904 40.92z"/><path d="M67.355 46H54V31.644C54 29.632 52.013 28 50 28s-4 1.632-4 3.644V46H31.644C29.632 46 28 47.987 28 50s1.632 4 3.644 4H46v13.355C46 69.37 47.987 71 50 71s4-1.63 4-3.645V54h13.355C69.37 54 71 52.013 71 50s-1.63-4-3.645-4z"/></svg>