<svg xmlns="http://www.w3.org/2000/svg" viewBox="0 0 100 100"><path d="M50 59.536c-5.316 0-9.64-4.324-9.64-9.644v-32.77c0-5.317 4.324-9.643 9.64-9.643 5.315 0 9.637 4.324 9.637 9.642v32.772c0 5.318-4.322 9.642-9.638 9.642zm0-49.164c-3.722 0-6.75 3.028-6.75 6.752v32.772c0 3.72 3.028 6.75 6.75 6.75 3.72 0 6.748-3.03 6.748-6.75V17.123c0-3.723-3.028-6.75-6.75-6.75z"/><path d="M50 92.52c-22.056 0-40-17.946-40-40.004 0-9.706 3.548-19.082 9.998-26.403 2.53-2.877 7.31-3.185 10.198-.65 2.99 2.633 3.28 7.213.65 10.202-4.122 4.678-6.392 10.663-6.392 16.847 0 14.09 11.462 25.55 25.548 25.55 14.087 0 25.548-11.46 25.548-25.55 0-6.186-2.27-12.172-6.388-16.85-1.277-1.447-1.91-3.307-1.793-5.234.12-1.925.985-3.69 2.433-4.966 2.88-2.534 7.67-2.225 10.202.647 6.445 7.322 10 16.7 10 26.4-.006 22.063-17.948 40.01-40.006 40.01zM25.42 26.55c-1.247 0-2.43.538-3.255 1.476-5.98 6.79-9.275 15.49-9.275 24.49 0 20.465 16.646 37.112 37.11 37.112S87.106 72.98 87.106 52.516c0-9.004-3.293-17.7-9.275-24.49-1.523-1.73-4.393-1.915-6.12-.39-.87.763-1.385 1.822-1.46 2.98-.073 1.154.307 2.27 1.073 3.137 4.586 5.207 7.11 11.87 7.11 18.76 0 15.68-12.758 28.442-28.438 28.442-15.682 0-28.438-12.763-28.438-28.443 0-6.886 2.523-13.55 7.108-18.76 1.582-1.794 1.407-4.536-.387-6.12-.79-.694-1.805-1.08-2.86-1.08z"/></svg>