<svg xmlns="http://www.w3.org/2000/svg" viewBox="0 0 100 125"><title>RAM</title><g stroke="#000"><path d="M21.043 40.087V55.39h9.01l-.007-15.317z" fill="none" stroke-width=".26"/><path d="M5.644 36.893v16.39c1.416.23 2.495 1.418 2.497 2.9.003 1.483-1.076 2.71-2.496 2.938v2.015h88.712V59.08c-1.265-.328-2.232-1.49-2.255-2.858v-.04c0-1.396.96-2.533 2.256-2.86v-16.39l-88.712-.04z" fill="none" stroke-width="1.2887499999999998" stroke-linecap="square" stroke-linejoin="bevel"/><path d="M31.59 40.052v15.304h9.01l-.007-15.318zM42.003 39.99v15.305h9.01l-.007-15.318zM69.84 39.93v15.304h9.01l-.007-15.318zM80.595 39.92v15.314h9.01l-.007-15.318z" fill="none" stroke-width=".26"/><path d="M7.276 64.262v-1.787h2v3.574h-2V64.26zM11.457 64.262v-1.787h.903c.497 0 .947-.017 1-.037.086-.033.096.15.096 1.787v1.824h-2V64.26zM15.576 64.262v-1.787h2v3.574h-2V64.26z" stroke-width=".03" stroke-linecap="round" stroke-linejoin="round" stroke-opacity=".529"/><path d="M19.714 65.466c0-.315-.006-1.13-.014-1.81l-.014-1.237h2.042v3.62h-2.013v-.574z" stroke-width=".01125" stroke-linecap="round" stroke-linejoin="round" stroke-opacity=".529"/><path d="M24.11 64.156v-1.81h.45c.25 0 .702-.004 1.008-.01l.557-.01v3.64H24.11v-1.81zM28.27 65.145l-.018-1.808-.01-1 .15-.01c.082-.006.545-.01 1.03-.01h.883v3.634H28.28l-.01-.805zM32.37 64.15v-1.82H34.4v3.636h-2.03V64.15zM36.545 65.78c-.005-.085-.013-.9-.018-1.81l-.01-1.654 1.024-.004 1.025-.004v3.628h-2.012l-.01-.156zM40.716 64.11V62.3h2.03v3.62h-2.028v-1.81zM44.885 65.31c-.005-.326-.013-1.14-.018-1.81l-.01-1.214h.377c.207 0 .667-.005 1.023-.01l.648-.01v3.64h-2.012l-.01-.595zM48.97 64.103v-1.817H50.986v3.635H48.97v-1.817zM53.134 65.856c-.004-.018-.012-.833-.017-1.81l-.01-1.775h.83c.457 0 .918-.004 1.024-.01l.194-.01v3.64H53.14l-.006-.034zM57.23 64.098V62.29l.692-.01c.38-.005.838-.01 1.015-.01h.322v3.636H57.228v-1.808zM61.397 64.79c-.005-.607-.013-1.425-.018-1.82l-.01-.715H63.432v3.635h-2.027l-.01-1.1zM65.583 64.068V62.26l.14-.01c.075-.005.53-.01 1.006-.01h.868v3.635h-2.014v-1.807zM74.075 65.175c-.005-.37-.013-1.183-.018-1.81l-.01-1.14H76.11v3.62h-2.026l-.01-.67zM77.976 64.043v-1.818H80.007v3.635h-2.029v-1.817zM82.144 64.683c-.005-.63-.013-1.446-.018-1.81l-.008-.663h2.06v3.62h-2.025l-.01-1.147zM86.33 64.012v-1.817h2.013v3.635H86.33v-1.818zM90.49 65.266c-.004-.294-.012-1.108-.017-1.81l-.01-1.276h.922c.507 0 .968-.005 1.024-.01l.1-.01v3.64h-2.009l-.008-.534z" stroke-width=".0075" stroke-linecap="round" stroke-linejoin="round" stroke-opacity=".529"/><path d="M10.335 40.178v15.32l9.01-.02-.008-15.32zM58.826 40.01v15.295h9.01l-.007-15.318z" fill="none" stroke-width=".26"/><path d="M10.74 47.848v-7.233l2.45-.028c1.346-.016 3.187-.03 4.09-.03h1.643V55.08H10.74v-7.232zM21.45 47.762V40.53l.97-.03c.535-.015 2.376-.028 4.092-.028h3.12V54.994H21.45v-7.232zM31.99 47.72v-7.233l4.076-.028c2.242-.017 4.083-.024 4.09-.017.006.006.017 3.274.024 7.26l.012 7.25H31.99v-7.234zM42.427 47.626v-7.24H50.61v14.48H42.427v-7.24zM59.22 47.676v-7.232l2.988-.03c1.643-.014 3.48-.027 4.084-.027h1.096l.028 4.98c.016 2.74.03 6.006.03 7.26v2.282H59.22v-7.234zM70.25 47.584v-7.24H78.432v14.48H70.25v-7.24zM81.002 47.584v-7.24H89.184v14.48H81.002v-7.24z" stroke-width=".0425" stroke-linecap="round" stroke-linejoin="round"/><path d="M6.027 59.94h87.725" fill="none" stroke-width=".38625"/></g><text y="115" font-size="5" font-weight="bold" font-family="'Helvetica Neue', Helvetica, Arial-Unicode, Arial, Sans-serif">Created by Lorenzo Stella</text><text y="120" font-size="5" font-weight="bold" font-family="'Helvetica Neue', Helvetica, Arial-Unicode, Arial, Sans-serif">from the Noun Project</text></svg>