<svg xmlns="http://www.w3.org/2000/svg" version="1.2" baseProfile="tiny" viewBox="0 0 56.693 56.693"><path d="M46.39 36.714c-3.367 0-6.107-2.74-6.107-6.108 0-3.367 2.74-6.107 6.107-6.107 3.368 0 6.108 2.74 6.108 6.106 0 3.368-2.74 6.108-6.108 6.108zm0-9.038c-1.615 0-2.93 1.314-2.93 2.93 0 1.614 1.315 2.93 2.93 2.93s2.93-1.315 2.93-2.93c0-1.616-1.315-2.93-2.93-2.93zm-24.263 11.2c-.11-.87.508-1.664 1.377-1.776.87-.106 1.664.514 1.775 1.383.105.874-.51 1.663-1.384 1.774-.064.006-.132.01-.196.01-.79 0-1.478-.587-1.573-1.392zm-1.043-4.912c-.255-.842.222-1.727 1.065-1.98.836-.256 1.72.22 1.98 1.064.25.837-.222 1.727-1.065 1.975-.154.048-.307.07-.46.07-.684 0-1.315-.44-1.52-1.13zm-1.854-4.666c-.387-.784-.07-1.738.715-2.13.79-.392 1.743-.074 2.135.715.386.784.07 1.737-.715 2.13-.228.11-.47.164-.71.164-.583 0-1.145-.323-1.425-.88zm-2.606-4.29c-.52-.71-.36-1.706.35-2.22.71-.52 1.7-.36 2.22.344.518.71.36 1.706-.35 2.225-.28.2-.61.302-.933.302-.49 0-.973-.23-1.286-.653zm-3.29-3.8c-.624-.613-.635-1.62-.02-2.25.61-.625 1.615-.635 2.246-.026.625.615.636 1.62.027 2.25-.313.32-.726.478-1.14.478-.403 0-.8-.148-1.112-.45zm-3.872-3.203c-.72-.498-.9-1.488-.402-2.21.503-.72 1.494-.9 2.214-.4.72.502.9 1.493.397 2.213-.306.445-.8.683-1.302.683-.312 0-.63-.09-.906-.285zM5.11 15.5c-.796-.376-1.134-1.32-.764-2.114.37-.795 1.32-1.14 2.114-.768v.005c.795.37 1.133 1.32.763 2.114-.27.572-.842.91-1.44.91-.224 0-.457-.047-.674-.147zm17.71 28.258c-.62-.625-.613-1.63.007-2.25.625-.616 1.63-.616 2.25.01.616.625.61 1.626-.01 2.245-.307.307-.715.46-1.117.46-.414 0-.822-.152-1.13-.465zm3.884-3.6c-.51-.722-.334-1.712.382-2.22.72-.504 1.71-.33 2.214.386.508.715.334 1.71-.38 2.214-.282.196-.6.29-.918.29-.498 0-.99-.237-1.298-.67zm4.433-2.904c-.38-.795-.048-1.743.747-2.12.79-.38 1.737-.047 2.12.748.375.79.04 1.738-.748 2.12-.222.105-.455.153-.688.153-.594 0-1.16-.335-1.43-.9zm4.847-2.13c-.238-.84.25-1.72 1.09-1.964.843-.244 1.723.244 1.966 1.09.244.843-.244 1.723-1.086 1.966h-.005c-.144.042-.292.058-.436.058-.693 0-1.33-.45-1.53-1.15z"/></svg>