<svg xmlns="http://www.w3.org/2000/svg" width="612" height="792" viewBox="0 0 612 792"><path d="M111.233 486.327c36.347 0 65.925-29.578 65.925-65.936 0-36.346-29.578-65.924-65.925-65.924-36.357 0-65.936 29.578-65.936 65.925 0 36.36 29.578 65.937 65.936 65.937zm0-97.565c17.434 0 31.618 14.185 31.618 31.62 0 17.433-14.184 31.628-31.617 31.628s-31.63-14.185-31.63-31.63c.012-17.434 14.196-31.618 31.63-31.618zm261.92 120.893c1.196-9.38-5.485-17.952-14.866-19.16-9.38-1.146-17.963 5.548-19.16 14.928-1.146 9.436 5.482 17.952 14.928 19.15.69.065 1.426.12 2.116.12 8.518 0 15.956-6.348 16.982-15.038zm11.257-53.014c2.754-9.088-2.396-18.642-11.496-21.384-9.035-2.753-18.578 2.396-21.385 11.497-2.69 9.035 2.395 18.643 11.495 21.32 1.663.518 3.314.744 4.977.744 7.373.01 14.186-4.74 16.408-12.176zm20.015-50.37c4.178-8.462.745-18.76-7.72-22.992-8.516-4.232-18.814-.8-23.046 7.718-4.168 8.463-.746 18.75 7.717 22.982 2.462 1.2 5.085 1.78 7.665 1.78 6.294.002 12.36-3.485 15.383-9.487zm28.132-46.32c5.603-7.665 3.896-18.405-3.778-23.954-7.666-5.603-18.353-3.886-23.955 3.713-5.603 7.664-3.887 18.416 3.778 24.018 3.022 2.17 6.573 3.26 10.06 3.26 5.312 0 10.515-2.46 13.894-7.038zm35.504-41c6.75-6.627 6.867-17.498.228-24.298-6.573-6.747-17.434-6.855-24.244-.28-6.748 6.638-6.866 17.498-.292 24.298 3.378 3.433 7.837 5.15 12.296 5.15 4.36 0 8.645-1.598 12.013-4.87zm41.81-34.586c7.772-5.376 9.716-16.063 4.34-23.846-5.43-7.772-16.128-9.715-23.9-4.34-7.772 5.43-9.716 16.128-4.286 23.9 3.314 4.804 8.637 7.373 14.066 7.373 3.368 0 6.8-.97 9.78-3.086zm46.99-27.042c8.583-4.06 12.23-14.24 8.237-22.82-4.006-8.583-14.24-12.296-22.82-8.292v.054c-8.582 4.005-12.23 14.24-8.237 22.82 2.915 6.175 9.09 9.835 15.556 9.835 2.407 0 4.922-.518 7.265-1.598zm-191.2 305.045c6.693-6.747 6.628-17.607-.064-24.3-6.748-6.64-17.607-6.64-24.3.12-6.64 6.745-6.574 17.55.118 24.233 3.314 3.314 7.72 4.977 12.06 4.977 4.467 0 8.872-1.65 12.186-5.03zm-41.917-38.873c5.495-7.783 3.605-18.47-4.124-23.965-7.772-5.43-18.47-3.542-23.9 4.177-5.485 7.72-3.606 18.47 4.112 23.9 3.033 2.115 6.455 3.14 9.898 3.14 5.377 0 10.7-2.568 14.013-7.253zm-47.854-31.338c4.11-8.582.517-18.815-8.065-22.875-8.517-4.11-18.75-.517-22.874 8.065-4.06 8.518-.453 18.762 8.064 22.874 2.396 1.144 4.912 1.662 7.427 1.662 6.413-.01 12.523-3.615 15.45-9.726zm-52.324-22.982c2.568-9.09-2.688-18.59-11.777-21.212-9.09-2.634-18.59 2.634-21.214 11.777-2.634 9.088 2.635 18.588 11.724 21.21h.054c1.544.454 3.142.627 4.696.627 7.48 0 14.346-4.857 16.516-12.403z"/></svg>