<svg xmlns="http://www.w3.org/2000/svg" viewBox="11 11 80 80"><path d="M51.042 11.092c-21.872 0-39.667 17.795-39.667 39.667S29.17 90.425 51.042 90.425 90.71 72.63 90.71 50.76 72.913 11.09 51.04 11.09zm0 3.94c15.998 0 29.575 10.57 34.11 25.094L55.766 69.53c-.766.768-.77 2.01-.007 2.78l2.09 2.11H39.515V56.045l2.866 2.854c.765.762 2 .766 2.77.01l12.45-12.22 4.82 4.84c.564.565 1.412.736 2.15.43.736-.304 1.217-1.022 1.217-1.82l-.005-24.974c0-1.088-.88-1.97-1.97-1.97H38.822c-.798 0-1.517.48-1.82 1.218-.306.737-.135 1.585.43 2.148l4.022 4.005L15.74 56.27c-.28-1.798-.424-3.637-.424-5.51 0-19.7 16.026-35.728 35.726-35.728zm0 71.454c-16.207 0-29.925-10.85-34.282-25.664l28.875-28.865c.37-.37.58-.872.578-1.396 0-.522-.21-1.024-.58-1.393l-2.04-2.032h18.252l.003 18.234-2.835-2.848c-.027-.026-.055-.05-.083-.075l-.06-.054c-.03-.024-.064-.047-.095-.07-.02-.016-.04-.033-.063-.047l-.1-.06-.067-.04c-.034-.02-.07-.034-.105-.05l-.068-.032c-.036-.015-.072-.027-.11-.04-.022-.008-.046-.018-.07-.025-.035-.012-.072-.02-.11-.03l-.072-.017c-.036-.007-.073-.01-.11-.017-.025-.004-.05-.01-.077-.01-.034-.004-.07-.005-.104-.007-.03-.002-.057-.005-.085-.005-.03 0-.063 0-.093.003-.033 0-.064 0-.096.004-.025 0-.05.007-.074.01-.038.004-.076.01-.113.016-.012 0-.022.004-.032.007-.156.032-.31.082-.456.152-.018.008-.035.014-.052.023-.027.014-.055.03-.082.047-.028.017-.06.033-.086.05l-.057.04c-.035.024-.07.05-.104.076l-.035.03c-.038.033-.075.064-.112.1l-12.497 12.19-4.808-4.79c-.564-.562-1.41-.73-2.146-.422-.735.305-1.214 1.023-1.214 1.82v25.09c0 1.086.882 1.97 1.97 1.97H62.57c.795 0 1.512-.48 1.817-1.212.307-.734.143-1.58-.417-2.145l-4.03-4.075 26.3-26.315c.35 1.996.532 4.05.532 6.144-.002 19.702-16.03 35.73-35.73 35.73z"/></svg>