<svg xmlns="http://www.w3.org/2000/svg" viewBox="0 0 96 96"><path d="M82 76c-2.208 0-4 1.792-4 4v8h-8c-2.208 0-4 1.792-4 4s1.792 4 4 4h12c2.208 0 4-1.792 4-4V80c0-2.208-1.792-4-4-4zM34 16c-2.208 0-4 1.792-4 4v4h-4c-2.208 0-4 1.792-4 4s1.792 4 4 4h8c2.208 0 4-1.792 4-4v-8c0-2.208-1.792-4-4-4zM26 88h-8v-8c0-2.208-1.792-4-4-4s-4 1.792-4 4v12c0 2.208 1.792 4 4 4h12c2.208 0 4-1.792 4-4s-1.792-4-4-4zM82 0H70c-2.208 0-4 1.792-4 4s1.792 4 4 4h8v8c0 2.208 1.792 4 4 4s4-1.792 4-4V4c0-2.208-1.792-4-4-4zM54 88h-8c-2.208 0-4 1.792-4 4s1.792 4 4 4h8c2.208 0 4-1.792 4-4s-1.792-4-4-4zM54 0h-8c-2.208 0-4 1.792-4 4s1.792 4 4 4h8c2.208 0 4-1.792 4-4s-1.792-4-4-4zM82 52c-2.208 0-4 1.792-4 4v8c0 2.208 1.792 4 4 4s4-1.792 4-4v-8c0-2.208-1.792-4-4-4zM82 28c-2.208 0-4 1.792-4 4v8c0 2.208 1.792 4 4 4s4-1.792 4-4v-8c0-2.208-1.792-4-4-4zM14 72c2.208 0 4-1.792 4-4v-8c0-2.208-1.792-4-4-4s-4 1.792-4 4v8c0 2.208 1.792 4 4 4zM14 48c2.208 0 4-1.792 4-4v-8c0-2.208-1.792-4-4-4s-4 1.792-4 4v8c0 2.208 1.792 4 4 4zM21.196 21.68c.972 0 1.944-.352 2.716-1.064l9.352-8.64c1.62-1.5 1.724-4.028.224-5.652-1.5-1.62-4.028-1.72-5.652-.224l-9.352 8.64c-1.62 1.5-1.724 4.028-.224 5.652.788.856 1.86 1.288 2.936 1.288z"/></svg>