<svg xmlns="http://www.w3.org/2000/svg" viewBox="0 0 96 96"><path d="M82.484 17.5C69.436 2.812 48.468-2 30.308 5.524c-1.02.42-1.504 1.588-1.08 2.612.416 1.024 1.592 1.504 2.608 1.084 16.584-6.876 35.74-2.48 47.656 10.936 7.456 8.388 11.195 19.172 10.52 30.367-.672 11.205-5.676 21.473-14.088 28.916-17.363 15.36-44.02 13.764-59.416-3.564-7.452-8.396-11.192-19.18-10.516-30.38.616-10.236 4.88-19.652 12.016-26.892v3.412c0 1.1.9 2 2 2 1.104 0 2-.9 2-2v-10c0-1.104-.896-2-2-2h-10c-1.1 0-2 .896-2 2 0 1.1.9 2 2 2h6.988c-8.936 8.12-14.268 19.18-15 31.248-.736 12.26 3.36 24.083 11.52 33.272 9.096 10.235 21.776 15.456 34.512 15.456 10.876 0 21.79-3.81 30.548-11.56 9.216-8.153 14.7-19.405 15.432-31.673.74-12.26-3.356-24.076-11.524-33.26z"/><path d="M50.19 68.792c0 1.21-.98 2.192-2.19 2.192s-2.192-.98-2.192-2.192S46.788 66.6 48 66.6s2.19.98 2.19 2.192z"/><path d="M64 82.016c1.104 0 2-.9 2-2v-60c0-1.104-.896-2-2-2H32c-1.1 0-2 .896-2 2v60c0 1.1.9 2 2 2h32zm-16-19.42c3.416 0 6.195 2.78 6.195 6.192 0 3.416-2.775 6.196-6.195 6.196-3.416 0-6.196-2.776-6.196-6.196 0-3.408 2.78-6.192 6.196-6.192z"/></svg>