<svg xmlns="http://www.w3.org/2000/svg" viewBox="0 0 96 96"><path d="M30 36H14c-1.104 0-2 .9-2 2v20c0 1.1.896 2 2 2h16c1.104 0 2-.9 2-2V38c0-1.1-.896-2-2-2z"/><path d="M94 20H2c-1.104 0-2 .896-2 2v52c0 1.104.896 2 2 2h92c1.1 0 2-.896 2-2V22c0-1.104-.9-2-2-2zM36 58c0 3.31-2.692 6-6 6H14c-3.308 0-6-2.69-6-6V38c0-3.308 2.692-6 6-6h16c3.308 0 6 2.692 6 6v20zm44-2H44c-1.104 0-2-.896-2-2 0-1.1.896-2 2-2h36c1.1 0 2 .9 2 2 0 1.104-.9 2-2 2zm0-12H44c-1.104 0-2-.896-2-2 0-1.1.896-2 2-2h36c1.1 0 2 .9 2 2 0 1.104-.9 2-2 2z"/></svg>