<svg xmlns="http://www.w3.org/2000/svg" viewBox="0 0 90 90"><path d="M77.546 34.59h-65.09c-1.817 0-3.29 1.472-3.29 3.288v14.246c0 1.815 1.473 3.287 3.29 3.287h65.09c1.815 0 3.287-1.47 3.287-3.286V37.877c0-1.815-1.472-3.287-3.287-3.287zM57.49 48.178H16.51v-6.355H57.49v6.355zm14.74-.22c-1.635 0-2.96-1.324-2.96-2.958s1.325-2.958 2.96-2.958c1.634 0 2.958 1.325 2.958 2.958s-1.324 2.96-2.96 2.96zm5.316 10.507h-65.09c-1.817 0-3.29 1.472-3.29 3.287v14.246c0 1.815 1.473 3.287 3.29 3.287h65.09c1.815 0 3.287-1.472 3.287-3.287V61.752c0-1.815-1.472-3.287-3.287-3.287zM57.49 72.053H16.51v-6.355H57.49v6.355zm14.74-.22c-1.635 0-2.96-1.324-2.96-2.958s1.325-2.96 2.96-2.96c1.634 0 2.958 1.326 2.958 2.96s-1.324 2.96-2.96 2.96zm5.316-61.618h-65.09c-1.817 0-3.29 1.472-3.29 3.288V27.75c0 1.814 1.473 3.286 3.29 3.286h65.09c1.815 0 3.287-1.472 3.287-3.287V13.5c0-1.815-1.472-3.287-3.287-3.287zM57.49 23.803H16.51v-6.355H57.49v6.355zm14.74-.22c-1.635 0-2.96-1.324-2.96-2.958s1.325-2.958 2.96-2.958c1.634 0 2.958 1.325 2.958 2.958s-1.324 2.96-2.96 2.96z"/></svg>