<svg xmlns="http://www.w3.org/2000/svg" viewBox="0 0 96 96"><path d="M42 68H2c-1.1 0-2-.9-2-2V2C0 .896.9 0 2 0h40c1.1 0 2 .896 2 2v64c0 1.1-.9 2-2 2zM4 64h36V4H4v60z"/><path d="M94 96H30c-1.1 0-2-.9-2-2V54c0-1.1.9-2 2-2h64c1.1 0 2 .9 2 2v40c0 1.1-.9 2-2 2zm-62-4h60V56H32v36zM79.836 45.96c-1.1 0-2-.896-2-2 0-17.252-8.752-26-26-26-1.1 0-2-.896-2-2s.9-2 2-2c19.624 0 30 10.372 30 30 0 1.104-.9 2-2 2z"/><path d="M59.836 29.916c-.512 0-1.024-.196-1.416-.584l-12-12c-.376-.376-.584-.888-.584-1.416s.22-1.04.584-1.416l12-11.916c.78-.78 2.056-.768 2.828.008.776.784.768 2.052-.008 2.832l-10.584 10.5L61.24 26.508c.776.78.776 2.048 0 2.828-.38.388-.892.58-1.404.58zM79.792 49.96c-.536 0-1.044-.212-1.416-.588l-11.916-12c-.78-.784-.772-2.052.008-2.832.788-.78 2.056-.768 2.828.008L79.8 45.132l10.584-10.584c.78-.78 2.048-.78 2.828 0s.78 2.048 0 2.828l-12 12c-.38.372-.888.584-1.42.584z"/>&gt;</svg>