<svg xmlns="http://www.w3.org/2000/svg" viewBox="0 0 96 96"><path d="M79.836 45.96c-1.1 0-2-.896-2-2 0-17.252-8.752-26-26-26-1.1 0-2-.896-2-2s.9-2 2-2c19.628 0 30 10.372 30 30 0 1.104-.9 2-2 2z"/><path d="M55.836 25.916c-.512 0-1.024-.196-1.416-.584l-8-8c-.376-.376-.588-.888-.584-1.42 0-.532.216-1.04.592-1.416l8-7.916c.78-.776 2.052-.772 2.828.016.772.784.764 2.052-.016 2.828l-6.576 6.504 6.584 6.58c.776.78.776 2.048 0 2.828-.388.388-.9.58-1.412.58zM79.792 49.96c-.332 0-1.044-.212-1.42-.592l-7.916-8c-.776-.784-.768-2.052.016-2.828.776-.776 2.052-.772 2.828.016l6.504 6.572 6.58-6.584c.78-.78 2.048-.78 2.828 0s.78 2.048 0 2.828l-8 8c-.38.376-.888.588-1.42.588zM42 68H2c-1.104 0-2-.9-2-2V2C0 .896.896 0 2 0h40c1.104 0 2 .896 2 2v64c0 1.1-.896 2-2 2zM4 64h36V4H4v60z"/><path d="M94 96c-1.1 0-2-.9-2-2v-4c0-1.1.9-2 2-2s2 .9 2 2v4c0 1.1-.9 2-2 2zm-8 0h-4c-1.1 0-2-.9-2-2s.9-2 2-2h4c1.1 0 2 .9 2 2s-.9 2-2 2zm-12 0h-4c-1.1 0-2-.9-2-2s.9-2 2-2h4c1.1 0 2 .9 2 2s-.9 2-2 2zm-12 0h-4c-1.1 0-2-.9-2-2s.9-2 2-2h4c1.1 0 2 .9 2 2s-.9 2-2 2zm-12 0h-4c-1.104 0-2-.9-2-2s.896-2 2-2h4c1.1 0 2 .9 2 2s-.9 2-2 2zm-12 0h-4c-1.104 0-2-.9-2-2s.896-2 2-2h4c1.104 0 2 .9 2 2s-.896 2-2 2zm-8-4c-1.104 0-2-.9-2-2v-4c0-1.1.896-2 2-2s2 .9 2 2v4c0 1.1-.896 2-2 2zm64-8c-1.1 0-2-.9-2-2v-4c0-1.1.9-2 2-2s2 .9 2 2v4c0 1.1-.9 2-2 2zm-64-4c-1.104 0-2-.9-2-2v-4c0-1.1.896-2 2-2s2 .9 2 2v4c0 1.1-.896 2-2 2zm64-8c-1.1 0-2-.9-2-2v-4c0-1.1.9-2 2-2s2 .9 2 2v4c0 1.1-.9 2-2 2zm-64-4c-1.104 0-2-.9-2-2v-4c0-1.1.896-2 2-2s2 .9 2 2v4c0 1.1-.896 2-2 2zm64-8c-1.1 0-2-.9-2-2v-2h-2c-1.1 0-2-.9-2-2s.9-2 2-2h4c1.1 0 2 .9 2 2v4c0 1.1-.9 2-2 2zm-12-4h-4c-1.1 0-2-.9-2-2s.9-2 2-2h4c1.1 0 2 .9 2 2s-.9 2-2 2zm-12 0h-4c-1.1 0-2-.9-2-2s.9-2 2-2h4c1.1 0 2 .9 2 2s-.9 2-2 2zm-12 0h-4c-1.1 0-2-.9-2-2s.9-2 2-2h4c1.1 0 2 .9 2 2s-.9 2-2 2zm-12 0h-4c-1.104 0-2-.9-2-2s.896-2 2-2h4c1.104 0 2 .9 2 2s-.896 2-2 2zm-12 0h-4c-1.104 0-2-.9-2-2s.896-2 2-2h4c1.104 0 2 .9 2 2s-.896 2-2 2z"/></svg>