<svg xmlns="http://www.w3.org/2000/svg" viewBox="0 0 96 96"><path d="M30 52h14V2c0-1.104-.896-2-2-2H2C.896 0 0 .896 0 2v64c0 1.1.896 2 2 2h26V54c0-1.1.896-2 2-2zM58.42 29.332c.393.388.904.584 1.416.584s1.023-.196 1.416-.584c.78-.784.78-2.048 0-2.832l-8.484-8.48c16.3.324 24.713 8.752 25.008 25.068l-8.483-8.54c-.78-.784-2.048-.788-2.828-.012-.784.78-.788 2.048-.008 2.828l11.916 12c.376.38 1.048.604 1.42.592.532 0 1.04-.212 1.416-.584l12-12c.78-.784.78-2.048 0-2.832s-2.05-.78-2.83 0l-8.57 8.572c-.3-18.8-10.373-28.852-29.192-29.132l8.624-8.568c.783-.776.787-2.044.008-2.828-.78-.784-2.044-.788-2.828-.008l-12 11.916c-.376.376-.588.884-.588 1.416 0 .532.208 1.044.584 1.42L58.42 29.332z"/><path d="M94 52H44v14c0 1.1-.896 2-2 2H28v26c0 1.1.896 2 2 2h64c1.1 0 2-.9 2-2V54c0-1.1-.9-2-2-2z"/><path d="M32 56h8v8h-8v-8z"/></svg>