<svg xmlns="http://www.w3.org/2000/svg" width="100" height="100" viewBox="0 0 100 100"><path d="M94.5 95.146H89v1h6.5v-6.5h-1M66.715 95.146h11.143v1H66.715zM44.43 95.146H55.57v1H44.43zM22.144 95.146h11.143v1H22.144zM5.5 89.646h-1v6.5H11v-1H5.5M4.5 45.074h1v11.143h-1zM4.5 22.79h1V33.93h-1zM4.5 67.36h1v11.143h-1zM4.5 11.646h1v-5.5H11v-1H4.5M44.43 5.146H55.57v1H44.43zM66.714 5.146h11.143v1H66.714zM22.143 5.146h11.143v1H22.143zM89 6.146h5.5v5.5h1v-6.5H89M94.5 45.074h1v11.143h-1zM94.5 67.36h1v11.143h-1zM94.5 22.79h1V33.93h-1z"/></svg>