<svg xmlns="http://www.w3.org/2000/svg" baseProfile="tiny" viewBox="0 0 100 100"><path d="M21.7 38.3c7.5-7.6 17.6-11.7 28.2-11.7 10.7 0 20.7 4.2 28.3 11.7.4.4 1 .7 1.6.7.6 0 1.1-.2 1.6-.7.9-.9.9-2.3 0-3.2-8.4-8.4-19.5-13-31.4-13-11.9 0-23 4.6-31.4 13-.9.9-.9 2.3 0 3.2.9.9 2.3.9 3.1 0z"/><path d="M69.3 49.5c.6 0 1.1-.2 1.6-.7.9-.9.9-2.3 0-3.2-5.6-5.5-13-8.6-20.9-8.6-7.9 0-15.3 3.1-20.9 8.7-.9.9-.9 2.3 0 3.2.9.9 2.3.9 3.2 0 4.7-4.7 11-7.4 17.7-7.4 6.7 0 13 2.6 17.8 7.4.4.4 1 .6 1.5.6zM58.8 60c.6 0 1.1-.2 1.6-.6.9-.9.9-2.3 0-3.2-2.8-2.8-6.5-4.3-10.4-4.3-3.9 0-7.6 1.5-10.4 4.3-.9.9-.9 2.3 0 3.2.9.9 2.3.9 3.2 0 1.9-1.9 4.5-3 7.2-3s5.3 1.1 7.2 3c.5.4 1 .6 1.6.6z"/><circle cx="50" cy="71.9" r="4.6"/></svg>