<svg xmlns="http://www.w3.org/2000/svg" viewBox="0 0 99.956 99.956"><path d="M49.984 0C22.384.008.01 22.375 0 49.98c.01 27.606 22.384 49.975 49.984 49.982 27.605-.008 49.97-22.376 49.97-49.982C99.957 22.375 77.59.008 49.985 0zM8.014 49.98c.018-8.94 2.838-17.206 7.602-24.007.04 3.958 1.506 8.964 6.333 14.757 5.608 6.728 11.494 9.536 20.752 15.144 9.253 5.602 7.846 8.128 5.597 10.655-2.242 2.52-7.565 11.764.84 16.817 6.478 3.88 7.58 4.2 6.454 7.564-.08.247-.17.423-.256.65-1.756.227-3.533.383-5.352.388C26.808 91.91 8.056 73.163 8.014 49.98zm60.662 37.513c1.898-2.8 3.933-6.535 5.69-11.436 3.936-10.928 5.89-25.23-1.674-23.546-6.665 1.48-14.855 3.082-18.79 3.64-3.918.56-8.687-3.365-14.01-6.166-5.323-2.8-8.41-7.573-4.21-10.654 4.21-3.082 12.615 7.572 15.428 4.208 2.793-3.364.844-6.454 4.48-13.736 3.643-7.29 3.99-5.953 6.73-12.055 1.378-3.076 1.11-5.707.25-7.79 17.014 5.357 29.348 21.23 29.38 40.022-.028 16.45-9.505 30.634-23.274 37.513z"/></svg>