<svg xmlns="http://www.w3.org/2000/svg" xmlns:xlink="http://www.w3.org/1999/xlink" version="1.1" x="0px" y="0px" viewBox="0 0 100 100" enable-background="new 0 0 100 100" xml:space="preserve"><g><path d="M86.932,77.886H8.936c-2.485,0-4.5-2.015-4.5-4.5V28.953c0-2.485,2.015-4.5,4.5-4.5h77.996c2.485,0,4.5,2.015,4.5,4.5   v8.081l2.248,0.881c1.724,0.675,2.858,2.338,2.858,4.19v17.388c0,1.852-1.134,3.515-2.858,4.189l-2.248,0.881v8.823   C91.432,75.871,89.417,77.886,86.932,77.886z M13.436,68.886h68.996v-7.393c0-1.852,1.134-3.515,2.858-4.189l2.248-0.881V45.174   l-2.248-0.881c-1.724-0.675-2.858-2.338-2.858-4.19v-6.651H13.436V68.886z"/></g><g><polygon points="40.3,38.689 19.23,38.689 19.23,63.908 65.486,63.908  "/></g><g><polygon points="81.881,32.4 81.881,71.484 88.297,68.871 88.297,31.821  "/></g></svg>