<svg xmlns:x="http://ns.adobe.com/Extensibility/1.0/" xmlns:i="http://ns.adobe.com/AdobeIllustrator/10.0/" xmlns:graph="http://ns.adobe.com/Graphs/1.0/" xmlns="http://www.w3.org/2000/svg" xmlns:xlink="http://www.w3.org/1999/xlink" version="1.1" x="0px" y="0px" viewBox="5 5 90 90" enable-background="new 0 0 100 100" xml:space="preserve"><g i:extraneous="self"><g><polygon fill="#000000" points="44.1,61.3 43.5,61.7 44.1,61.3    "/><path fill="#000000" d="M46.4,31L5.7,54.7l43.9,25.7l40-24.1L46.4,31z M45.1,62.2L43,63.4l-0.9-0.5c-2.1-1.2-5.5-1.2-7.6,0     l-0.8-0.4c2.5-1.5,6.6-1.5,9.1,0l1.2-0.7l-3.1-1.8l1.1-0.7c2.1-1.2,2.1-3.2,0-4.5l0.8-0.4c2.5,1.5,2.5,3.9,0,5.4l-0.8-0.4     l11.3,6.6l21.6-12.6l-18-10.5l-1.9,1.1l-1.1-0.6l1.9-1.1l-11.1-6.5l-8.5,5l11.1,6.5l1.9-1.1l1.1,0.7c2.2,1.3,5.7,1.3,7.8,0     l0.8,0.5c-2.6,1.5-6.8,1.5-9.4,0l0.8-0.5l-14.9,8.8l1.9,1.1l-1.1,0.7l-3-1.7l13.1-7.7l-11.1-6.5L13.6,54l21.9,12.8l1.9-1.1     l0.9,0.5l-3,1.7L11.6,54.1l33.5-19.6l32.3,18.9L53.7,67.2L45.1,62.2z M57.1,55.6l7.8-4.5l-1.9-0.3l4.8-1.2l-2,2.8l-0.5-1.1     l-7.8,4.5l3.5,2l0.5-1.1l2,2.8l-4.8-1.2l1.9-0.3l-3.5-2L50,60.1l1.9,0.3l-4.8,1.2l2-2.8l0.5,1.1l7.1-4.1L49,51.3l-0.5,1.1l-2-2.8     l4.8,1.2l-1.9,0.3L57.1,55.6z M24.3,55.7l-4.8,1.2l2-2.8l0.5,1.1l11.5-6.7l-2.1-1.2l-0.5,1.1l-2-2.8l4.8,1.2L31.8,47l2.1,1.2     l3.5-2.1l-1.9-0.3l4.8-1.2l-2,2.8l-0.5-1.1l-3.5,2.1l2.3,1.4l0.5-1.1l2,2.8l-4.8-1.2l1.9-0.3l-2.3-1.4l-11.5,6.7L24.3,55.7z      M56.7,69.1l23.8-14l0.5,0.3l-23.8,14L56.7,69.1z M59.5,70.8l23.9-14l0.5,0.3l-23.8,14L59.5,70.8z"/></g><path fill="#000000" d="M89.2,53.8c0-2,1.5-4.3,3.2-5.2c0.5-0.2,0.9-0.3,1.3-0.3c0.2,0,0.5,0,0.7,0.1L50.8,22.9l0,0    c-0.6-0.4-1.4-0.4-2.3,0c-1.8,0.9-3.2,3.2-3.2,5.2c0,0.8,0.3,1.5,0.7,1.9l0,0l0,0c0.2,0.2,0.4,0.3,0.7,0.4l43.5,25.5c0,0,0,0,0,0    C89.6,55.5,89.2,54.8,89.2,53.8z"/><path fill="#000000" d="M93.7,48.7c-0.3,0-0.7,0.1-1.1,0.3c-1.6,0.8-3,2.9-3,4.8c0,1.2,0.6,1.9,1.5,1.9c0.3,0,0.7-0.1,1.1-0.3    c1.6-0.8,3-2.9,3-4.8C95.2,49.5,94.6,48.7,93.7,48.7z M92.4,53.6c-0.7,0.3-1.2,0-1.2-0.8s0.6-1.7,1.2-2s1.2,0,1.2,0.8    C93.7,52.4,93.1,53.3,92.4,53.6z"/></g></svg>