<svg xmlns="http://www.w3.org/2000/svg" xmlns:xlink="http://www.w3.org/1999/xlink" version="1.1" x="0px" y="0px" viewBox="0 0 100 100" enable-background="new 0 0 100 100" xml:space="preserve"><path fill="#000000" d="M93.068,52.504c0.114-1.063,0.185-2.139,0.174-3.234C93.11,34.088,80.693,21.883,65.506,22.016  c-11.365,0.099-21.059,7.081-25.162,16.957c-2.244-0.856-4.677-1.321-7.223-1.298c-8.585,0.074-15.84,5.595-18.524,13.253  c-0.482-0.05-0.972-0.072-1.468-0.067C5.782,50.924-0.125,56.932-0.058,64.279c0.063,7.348,6.071,13.254,13.418,13.189  c0,0,69.617-0.609,72.663-0.635c7.302-0.063,13.17-6.035,13.106-13.336C99.089,58.876,96.678,54.836,93.068,52.504z M63.247,34.874  c-0.011-1.301,1.032-2.361,2.329-2.374c1.302-0.012,2.358,1.034,2.369,2.333l0.167,18.798c0.011,1.3-1.031,2.36-2.329,2.371  c-1.299,0.013-2.362-1.03-2.373-2.33L63.247,34.874z M65.875,66.694c-8.422,0.07-15.308-6.696-15.386-15.119  c-0.057-6.947,4.531-12.842,10.864-14.743l0.042,5.003c-3.68,1.672-6.229,5.388-6.201,9.696c0.061,5.824,4.818,10.499,10.642,10.461  c5.829-0.062,10.499-4.819,10.456-10.646c-0.042-4.308-2.655-7.978-6.372-9.586l-0.042-5.005c6.365,1.789,11.061,7.606,11.12,14.55  C81.072,59.732,74.304,66.618,65.875,66.694z"/></svg>