<svg xmlns="http://www.w3.org/2000/svg" xmlns:xlink="http://www.w3.org/1999/xlink" version="1.1" x="0px" y="0px" viewBox="0 0 108 108" enable-background="new 0 0 108 96" xml:space="preserve"><path d="M30,44H14c-1.1,0-2,0.9-2,2v20c0,1.1,0.9,2,2,2h16c1.1,0,2-0.9,2-2V46C32,44.9,31.1,44,30,44z"/><path d="M90,28H2c-1.104,0-2,0.896-2,2v52c0,1.1,0.896,2,2,2h88c1.1,0,2-0.9,2-2V30C92,28.896,91.1,28,90,28z M36,66  c0,3.309-2.692,6-6,6H14c-3.308,0-6-2.691-6-6V46c0-3.308,2.692-6,6-6h16c3.308,0,6,2.692,6,6V66z M80,64H44c-1.104,0-2-0.9-2-2  s0.896-2,2-2h36c1.1,0,2,0.9,2,2S81.1,64,80,64z M80,52H44c-1.104,0-2-0.9-2-2c0-1.104,0.896-2,2-2h36c1.1,0,2,0.896,2,2  C82,51.1,81.1,52,80,52z"/><path d="M98,74c-1.1,0-2-0.9-2-2V24H16c-1.104,0-2-0.896-2-2s0.896-2,2-2h82c1.1,0,2,0.896,2,2v50C100,73.1,99.1,74,98,74z"/><path d="M106,66c-1.1,0-2-0.9-2-2V16H24c-1.104,0-2-0.896-2-2s0.896-2,2-2h82c1.1,0,2,0.896,2,2v50C108,65.1,107.1,66,106,66z"/></svg>