<svg xmlns="http://www.w3.org/2000/svg" xmlns:xlink="http://www.w3.org/1999/xlink" version="1.1" x="0px" y="0px" viewBox="0 0 100 125" enable-background="new 0 0 100 100" xml:space="preserve"><path d="M46.557,52.215c0.344,0.33,0.5,0.977,0.508,2.16c0.055,6.148-4.52,28.035-6.698,30.201l-0.403,0.25  c-0.478,0.16-1.229,0.061-4.658-2.887c-1.334-1.141-3.248-2.908-5.376-4.951L15.278,91.541c-2.35,2.338-6.161,2.338-8.515,0  c-2.35-2.336-2.35-6.117,0-8.459L21.462,68.48c-4.363-4.582-7.896-8.688-7.745-9.615l0.273-0.479  C15.917,56.475,44.441,50.187,46.557,52.215z M78.536,68.48c4.364-4.582,7.897-8.688,7.747-9.615l-0.265-0.479  c-1.931-1.912-30.456-8.2-32.575-6.172c-0.344,0.33-0.495,0.977-0.504,2.16c-0.059,6.148,4.517,28.035,6.694,30.201l0.402,0.25  c0.483,0.16,1.23,0.061,4.659-2.887c1.334-1.141,3.248-2.908,5.376-4.951l14.65,14.553c2.351,2.338,6.165,2.338,8.516,0  c2.35-2.336,2.35-6.117,0-8.459L78.536,68.48z M39.963,15.169c-0.478-0.155-1.229-0.059-4.658,2.888  c-1.334,1.142-3.246,2.913-5.374,4.956L15.278,8.456c-2.35-2.334-6.161-2.334-8.515,0c-2.35,2.342-2.35,6.118,0,8.456l14.699,14.604  c-4.363,4.587-7.896,8.691-7.745,9.619l0.273,0.474c1.926,1.914,30.451,8.2,32.566,6.178c0.344-0.336,0.5-0.982,0.508-2.17  c0.055-6.14-4.52-28.025-6.698-30.195L39.963,15.169z M86.019,41.609l0.265-0.474c0.15-0.928-3.383-5.032-7.747-9.619l14.701-14.604  c2.35-2.338,2.35-6.114,0-8.456c-2.351-2.334-6.165-2.334-8.516,0L70.069,23.013c-2.128-2.043-4.04-3.814-5.374-4.956  c-3.429-2.946-4.176-3.043-4.659-2.888l-0.402,0.252c-2.178,2.17-6.753,24.056-6.694,30.195c0.009,1.188,0.16,1.834,0.504,2.17  C55.562,49.809,84.088,43.523,86.019,41.609z"/><text x="0" y="115" fill="#000000" font-size="5px" font-weight="bold" font-family="'Helvetica Neue', Helvetica, Arial-Unicode, Arial, Sans-serif">Created by Cris Dobbins</text><text x="0" y="120" fill="#000000" font-size="5px" font-weight="bold" font-family="'Helvetica Neue', Helvetica, Arial-Unicode, Arial, Sans-serif">from the Noun Project</text></svg>