<svg xmlns="http://www.w3.org/2000/svg" xmlns:xlink="http://www.w3.org/1999/xlink" version="1.1" x="0px" y="0px" viewBox="0 0 100 100" enable-background="new 0 0 100 100" xml:space="preserve"><path d="M92.158,41.58c1.554,0,2.812-1.258,2.812-2.812c0-1.554-1.258-2.812-2.812-2.812h-2.812v-5.623h2.812  c1.554,0,2.812-1.258,2.812-2.812c0-1.554-1.258-2.812-2.812-2.812h-2.812V10.653H75.289V7.842c0-1.554-1.258-2.812-2.812-2.812  s-2.812,1.258-2.812,2.812v2.812h-5.623V7.842c0-1.554-1.258-2.812-2.812-2.812S58.42,6.288,58.42,7.842v2.812h-5.623V7.842  c0-1.554-1.258-2.812-2.812-2.812s-2.812,1.258-2.812,2.812v2.812H41.55V7.842c0-1.554-1.258-2.812-2.812-2.812  s-2.812,1.258-2.812,2.812v2.812h-5.623V7.842c0-1.554-1.258-2.812-2.812-2.812s-2.812,1.258-2.812,2.812v2.812H10.623v14.058H7.812  C6.258,24.711,5,25.969,5,27.523c0,1.554,1.258,2.812,2.812,2.812h2.812v5.623H7.812C6.258,35.957,5,37.215,5,38.769  c0,1.554,1.258,2.812,2.812,2.812h2.812v5.623H7.812C6.258,47.204,5,48.461,5,50.015c0,1.554,1.258,2.812,2.812,2.812h2.812v5.623  H7.812C6.258,58.45,5,59.707,5,61.261c0,1.554,1.258,2.812,2.812,2.812h2.812v5.623H7.812C6.258,69.696,5,70.954,5,72.508  c0,1.554,1.258,2.812,2.812,2.812h2.812v14.058h14.058v2.812c0,1.554,1.258,2.812,2.812,2.812s2.812-1.258,2.812-2.812v-2.812h5.623  v2.812c0,1.554,1.258,2.812,2.812,2.812s2.812-1.258,2.812-2.812v-2.812h5.623v2.812c0,1.554,1.258,2.812,2.812,2.812  s2.812-1.258,2.812-2.812v-2.812h5.623v2.812c0,1.554,1.258,2.812,2.812,2.812s2.812-1.258,2.812-2.812v-2.812h5.623v2.812  c0,1.554,1.258,2.812,2.812,2.812s2.812-1.258,2.812-2.812v-2.812h14.058V75.319h2.812c1.554,0,2.812-1.258,2.812-2.812  c0-1.554-1.258-2.812-2.812-2.812h-2.812v-5.623h2.812c1.554,0,2.812-1.258,2.812-2.812c0-1.554-1.258-2.812-2.812-2.812h-2.812  v-5.623h2.812c1.554,0,2.812-1.258,2.812-2.812c0-1.554-1.258-2.812-2.812-2.812h-2.812V41.58H92.158z M83.724,75.319  c0,4.659-3.778,8.435-8.435,8.435H24.681c-4.656,0-8.435-3.775-8.435-8.435V24.711c0-4.659,3.778-8.435,8.435-8.435h50.608  c4.657,0,8.435,3.775,8.435,8.435V75.319z"></path><polygon points="24.681,33.146 24.681,75.319 75.289,75.319 75.289,24.711 33.124,24.711 "></polygon></svg>