<svg xmlns="http://www.w3.org/2000/svg" xmlns:xlink="http://www.w3.org/1999/xlink" version="1.1" x="0px" y="0px" viewBox="0 0 100 125" enable-background="new 0 0 100 100" xml:space="preserve"><path d="M45.302,53.567c2.35,2.333,2.35,6.123,0,8.456L30.603,76.633c4.365,4.587,7.896,8.688,7.745,9.614l-0.273,0.475  c-1.922,1.918-30.451,8.204-32.566,6.173C5.164,92.567,5.013,91.917,5,90.733c-0.055-6.147,4.52-28.038,6.698-30.195l0.407-0.26  c0.474-0.151,1.226-0.051,4.654,2.896c1.334,1.142,3.244,2.908,5.372,4.952l14.655-14.559  C39.141,51.229,42.952,51.229,45.302,53.567z M87.902,60.278c-0.479-0.151-1.226-0.051-4.658,2.896  c-1.335,1.142-3.24,2.908-5.368,4.952L63.222,53.567c-2.354-2.338-6.165-2.338-8.516,0c-2.35,2.333-2.35,6.123,0,8.456  l14.697,14.609c-4.362,4.583-7.896,8.688-7.743,9.614l0.265,0.475c1.93,1.918,30.455,8.204,32.57,6.173  c0.345-0.327,0.5-0.978,0.504-2.161c0.062-6.147-4.512-28.038-6.689-30.195L87.902,60.278z M30.603,23.364  c4.365-4.583,7.896-8.688,7.745-9.615l-0.273-0.474C36.153,11.353,7.624,5.074,5.508,7.105C5.164,7.429,5.013,8.079,5,9.263  c-0.055,6.144,4.52,28.034,6.698,30.195l0.407,0.256c0.474,0.155,1.226,0.059,4.654-2.892c1.334-1.142,3.246-2.908,5.372-4.956  l14.655,14.562c2.354,2.334,6.165,2.334,8.515,0c2.35-2.333,2.35-6.119,0-8.456L30.603,23.364z M63.222,46.429l14.65-14.559  c2.128,2.044,4.037,3.811,5.372,4.952c3.433,2.95,4.18,3.047,4.658,2.892l0.407-0.256c2.178-2.161,6.752-24.051,6.689-30.195  c-0.004-1.184-0.159-1.834-0.504-2.157c-2.115-2.031-30.641,4.247-32.57,6.169l-0.265,0.474c-0.153,0.927,3.381,5.032,7.743,9.619  L54.706,37.973c-2.35,2.337-2.35,6.123,0,8.456C57.057,48.763,60.867,48.763,63.222,46.429z"/><text x="0" y="115" fill="#000000" font-size="5px" font-weight="bold" font-family="'Helvetica Neue', Helvetica, Arial-Unicode, Arial, Sans-serif">Created by Cris Dobbins</text><text x="0" y="120" fill="#000000" font-size="5px" font-weight="bold" font-family="'Helvetica Neue', Helvetica, Arial-Unicode, Arial, Sans-serif">from the Noun Project</text></svg>