<svg xmlns="http://www.w3.org/2000/svg" xmlns:xlink="http://www.w3.org/1999/xlink" version="1.1" x="0px" y="0px" viewBox="0 0 100 100" enable-background="new 0 0 100 100" xml:space="preserve"><path fill="#000000" d="M19,82h62.004C87.067,82,92,77.063,92,71V44.996v-8C92,30.933,87.067,26,81.004,26H53.521  c-2.613,0-3.632-1.225-5.175-3.079C46.521,20.729,44.251,18,38.974,18H19c-6.782,0-11,4.213-11,10.996V52v20.433  C8,76.947,12.707,82,19,82z M88,71c0,3.857-3.138,7-6.996,7H19c-4.058,0-7-3.327-7-5.567V52c0-5.782,3.809-7,7-7h19.974  c5.198,0,7.463-2.382,9.284-4.298C49.75,39.133,50.828,38,53.521,38h27.484C84.862,38,88,41.138,88,44.996V71z M19,22h19.974  c3.401,0,4.679,1.535,6.296,3.479C46.946,27.493,49.032,30,53.521,30h27.484c3.69,0,6.714,2.874,6.97,6.499  C86.076,34.938,83.648,34,81.004,34H53.521c-4.41,0-6.49,2.187-8.163,3.947C43.736,39.654,42.455,41,38.974,41H19  c-2.817,0-5,0.741-7,2.077V28.996C12,23.214,15.809,22,19,22z"/></svg>