<svg xmlns="http://www.w3.org/2000/svg" xmlns:xlink="http://www.w3.org/1999/xlink" version="1.1" x="0px" y="0px" viewBox="0 0 100 100" enable-background="new 0 0 100 100" xml:space="preserve"><path fill="#000000" d="M81,54c-9.374,0-17,7.626-17,17s7.626,17,17,17s17-7.626,17-17S90.374,54,81,54z M81,84  c-7.168,0-13-5.832-13-13s5.832-13,13-13s13,5.832,13,13S88.168,84,81,84z"/><path fill="#000000" d="M88,69h-5v-5c0-1.104-0.896-2-2-2s-2,0.896-2,2v5h-5c-1.104,0-2,0.896-2,2s0.896,2,2,2h5v5  c0,1.104,0.896,2,2,2s2-0.896,2-2v-5h5c1.104,0,2-0.896,2-2S89.104,69,88,69z"/><path fill="#000000" d="M19,82h40.875c1.104,0,2-0.896,2-2s-0.896-2-2-2H19c-4.058,0-7-3.327-7-5.567V52c0-5.782,3.809-7,7-7h19.974  c5.198,0,7.463-2.382,9.284-4.298C49.75,39.133,50.828,38,53.521,38h27.484C84.862,38,88,41.138,88,44.996v5.379  c0,1.104,0.896,2,2,2s2-0.896,2-2V36.996C92,30.933,87.067,26,81.004,26H53.521c-2.613,0-3.633-1.225-5.175-3.079  C46.521,20.729,44.251,18,38.974,18H19c-6.782,0-11,4.213-11,10.996v43.437C8,76.947,12.707,82,19,82z M19,22h19.974  c3.401,0,4.679,1.535,6.296,3.479C46.946,27.493,49.032,30,53.521,30h27.484c3.69,0,6.714,2.874,6.97,6.499  C86.076,34.938,83.648,34,81.004,34H53.521c-4.41,0-6.49,2.187-8.162,3.947C43.736,39.654,42.455,41,38.974,41H19  c-2.817,0-5,0.741-7,2.077V28.996C12,23.214,15.809,22,19,22z"/></svg>