<svg xmlns="http://www.w3.org/2000/svg" xmlns:xlink="http://www.w3.org/1999/xlink" version="1.1" x="0px" y="0px" viewBox="0 0 100 100" style="enable-background:new 0 0 100 100;" xml:space="preserve"><path d="M82.5,37.5C82.5,19.58,67.921,5,50,5S17.5,19.58,17.5,37.5V90H5v5h90v-5H82.5V37.5z M28.878,19.913L43.965,35H22.619  C23.136,29.292,25.401,24.082,28.878,19.913z M47.5,90h-25V40h25V90z M47.5,31.465L32.413,16.378  c4.169-3.477,9.379-5.742,15.087-6.259V31.465z M77.381,35H56.035l15.087-15.087C74.599,24.082,76.864,29.292,77.381,35z   M52.5,10.119c5.708,0.517,10.918,2.782,15.087,6.259L52.5,31.465V10.119z M77.5,90h-25V40h25V90z"/><circle cx="57.5" cy="67.5" r="2.5"/><circle cx="42.5" cy="67.5" r="2.5"/></svg>
