<svg xmlns="http://www.w3.org/2000/svg" xmlns:xlink="http://www.w3.org/1999/xlink" version="1.1" x="0px" y="0px" viewBox="50 50 410 410" enable-background="new 0 0 512 512" xml:space="preserve"><g><path d="M287.902,61.034c2.121,0,3.37,0.286,3.905,0.479c0.192,0.534,0.477,1.78,0.477,3.893v48.603     c0,6.656,4.207,12.587,10.489,14.786c13.591,4.758,26.93,12.568,39.646,23.213c2.887,2.417,6.461,3.653,10.059,3.653     c2.699,0,5.411-0.696,7.854-2.113l39.689-23.011c0.112-0.064,0.224-0.131,0.333-0.198c1.686-1.033,2.742-1.389,3.242-1.51     c0.47,0.42,1.348,1.411,2.394,3.268c0.025,0.047,0.052,0.093,0.078,0.139l33.405,57.918c1.15,1.984,1.483,3.156,1.58,3.654     c-0.317,0.395-1.154,1.268-3.082,2.473l-40.19,22.854c-5.469,3.109-8.546,9.188-7.816,15.437     c0.666,5.695,1.011,11.428,1.376,17.497l0.006,0.087v3.977c0,8.164-0.653,15.912-1.996,23.689     c-1.114,6.451,1.901,12.916,7.561,16.208l40.811,23.736c0.164,0.096,0.329,0.188,0.496,0.276     c1.492,0.797,2.288,1.466,2.687,1.875c-0.07,0.431-0.216,1.08-0.514,1.969c-0.078,0.233-0.15,0.469-0.218,0.705     c-0.09,0.176-0.27,0.509-0.609,1.078c-0.037,0.062-0.073,0.126-0.109,0.188l-33.269,57.681c-1.219,1.957-2.101,2.799-2.494,3.113     c-0.496-0.095-1.681-0.428-3.713-1.604l-41.929-24.131c-2.429-1.397-5.125-2.088-7.812-2.088c-3.329,0-6.644,1.059-9.418,3.146     c-4.222,3.174-8.445,6.348-12.668,9.508c-8.721,5.187-17.347,9.375-25.651,12.455c-6.142,2.279-10.217,8.138-10.217,14.688     v48.973c0,2.112-0.284,3.358-0.477,3.892c-0.534,0.192-1.784,0.479-3.905,0.479h-64.94c-2.113,0-3.359-0.285-3.893-0.477     c-0.192-0.534-0.477-1.78-0.477-3.894v-48.235c0-6.545-4.069-12.4-10.203-14.683c-14.644-5.448-27.706-13.071-39.93-23.304     c-2.886-2.416-6.46-3.653-10.059-3.653c-2.661,0-5.336,0.677-7.754,2.056l-39.705,22.629c-0.038,0.022-0.076,0.045-0.114,0.066     c-2.079,1.208-3.304,1.515-3.786,1.593c-0.41-0.342-1.24-1.224-2.234-2.933l-32.744-56.759c-0.413-1.015-0.942-2.136-1.643-3.274     c-0.295-0.727-0.421-1.22-0.475-1.507c0.343-0.399,1.224-1.262,3.206-2.428l40.406-23.353c5.706-3.297,8.738-9.812,7.586-16.301     c-0.935-5.266-1.276-10.8-1.63-16.655v-3.987c0-8.163,0.656-15.896,2.005-23.64c1.132-6.495-1.924-13.004-7.645-16.282     L73.201,193.64c-1.894-1.148-2.721-1.974-3.006-2.3c-0.041-0.131-0.084-0.262-0.128-0.392c0.099-0.472,0.426-1.605,1.494-3.659     l33.58-57.597c0.066-0.113,0.13-0.228,0.194-0.343c0.9-1.637,1.663-2.513,2.067-2.882c0.494,0.092,1.62,0.407,3.482,1.485     l41.929,24.132c2.429,1.397,5.125,2.088,7.813,2.088c3.316,0,6.619-1.052,9.387-3.122l0.205-0.153     c4.295-3.214,8.354-6.251,12.347-8.928c8.284-5.281,16.968-9.623,25.815-12.908c6.14-2.279,10.213-8.138,10.213-14.687v-48.97     c0-2.114,0.285-3.36,0.477-3.895c0.534-0.192,1.78-0.477,3.893-0.477H287.902 M287.902,45.368h-64.94     c-13.35,0-20.036,6.688-20.036,20.037v48.97c-10.006,3.715-19.668,8.559-28.937,14.482c-4.448,2.975-8.911,6.319-13.362,9.649     l-41.929-24.132c-4.17-2.413-8.044-3.611-11.593-3.611c-6.242,0-11.471,3.711-15.5,11.038l-33.754,57.896     c-3.343,6.307-4.449,11.507-2.607,16.325c1.119,4.081,4.464,7.794,10.018,11.124l40.823,23.394     c-1.486,8.53-2.238,17.062-2.238,26.329c0,1.488,0,2.976,0,4.461c0.381,6.308,0.751,12.612,1.871,18.919L65.263,303.63     c-10.754,6.304-13.729,14.468-8.529,25.224c0.368,0.368,0.736,1.119,1.118,2.237l33.385,57.87     c4.2,7.228,9.417,10.797,15.567,10.797c3.643,0,7.614-1.253,11.894-3.74l39.705-22.63c13.73,11.493,28.566,20.037,44.523,25.974     v48.235c0,13.348,6.687,20.036,20.036,20.036h64.94c13.361,0,20.048-6.688,20.048-20.036v-48.973     c10.006-3.712,19.657-8.543,28.937-14.112c4.449-3.329,8.9-6.673,13.35-10.019l41.929,24.131     c4.281,2.479,8.202,3.729,11.804,3.729c6.077,0,11.241-3.562,15.672-10.786l33.385-57.884c1.105-1.856,1.856-3.344,2.224-4.83     c1.488-4.45,1.857-8.53,0.737-11.863c-1.485-4.081-4.817-7.793-10.387-10.768l-40.811-23.736     c1.476-8.544,2.225-17.073,2.225-26.355c0-1.486,0-2.974,0-4.448c-0.381-6.318-0.749-12.612-1.487-18.931l40.442-22.998     c11.506-7.057,13.731-15.955,7.057-27.462l-33.385-57.885c-4.229-7.506-9.491-11.308-15.698-11.308     c-3.612,0-7.545,1.288-11.777,3.884l-39.689,23.011c-13.745-11.506-28.581-20.404-44.525-25.986V65.405     C307.95,52.056,301.264,45.368,287.902,45.368L287.902,45.368z"/></g><g><path d="M256.408,336.409c-21.957,0-41.164-8.075-57.087-24c-15.661-15.66-23.602-34.857-23.602-57.059    c0-22.451,7.94-41.781,23.6-57.454c15.673-15.673,34.879-23.618,57.089-23.618c22.191,0,41.388,7.945,57.061,23.616    c15.914,15.915,23.983,35.246,23.983,57.456c0,21.96-8.07,41.158-23.985,57.062C297.544,328.334,278.346,336.409,256.408,336.409z     M256.408,190.567c-17.982,0-32.888,6.164-45.569,18.845c-12.67,12.682-18.831,27.709-18.831,45.938    c0,17.974,6.159,32.87,18.831,45.541c12.938,12.939,27.843,19.229,45.569,19.229c17.707,0,32.604-6.29,45.543-19.229    c12.929-12.918,19.212-27.813,19.212-45.541c0-17.733-6.464-33.189-19.212-45.938    C289.269,196.731,274.371,190.567,256.408,190.567z"/></g></svg>