<svg xmlns:dc="http://purl.org/dc/elements/1.1/" xmlns:cc="http://creativecommons.org/ns#" xmlns:rdf="http://www.w3.org/1999/02/22-rdf-syntax-ns#" xmlns:svg="http://www.w3.org/2000/svg" xmlns="http://www.w3.org/2000/svg" version="1.1" viewBox="0 0 100 100" x="0px" y="0px"><g transform="translate(0,-952.36216)"><path transform="translate(0,952.36216)" d="M 50 14.226562 C 30.19754 14.235163 13.319331 28.593635 10.136719 48.138672 C 4.575725 51.347719 1.1460062 57.276789 1.1367188 63.697266 C 1.1362774 73.634575 9.1915987 81.690769 19.128906 81.691406 C 19.41168 81.688346 19.694253 81.676526 19.976562 81.660156 C 20.306487 81.600227 20.583551 81.503033 20.814453 81.351562 C 16.256066 74.689613 13.578963 66.769969 13.572266 58.445312 C 13.571075 37.105425 29.880531 19.80521 50 19.804688 C 70.119469 19.805211 86.428925 37.105425 86.427734 58.445312 C 86.420267 66.72923 83.771703 74.615015 79.251953 81.257812 C 79.518519 81.468864 79.845577 81.59875 80.259766 81.667969 C 80.468698 81.678261 80.677567 81.691406 80.886719 81.691406 C 90.824028 81.690706 98.879347 73.634566 98.878906 63.697266 C 98.869606 57.276766 95.439898 51.347772 89.878906 48.138672 C 89.879448 48.141972 89.880259 48.145138 89.880859 48.148438 L 89.828125 48.066406 L 89.884766 48.1875 C 89.885302 48.1908 89.886119 48.193966 89.886719 48.197266 L 89.828125 48.109375 L 89.830078 48.146484 L 89.828125 48.144531 C 86.650132 28.61025 69.791039 14.25285 50 14.226562 z " style="color:#000000;clip-rule:nonzero;display:inline;overflow:visible;visibility:visible;opacity:1;isolation:auto;mix-blend-mode:normal;color-interpolation:sRGB;color-interpolation-filters:linearRGB;solid-color:#000000;solid-opacity:1;fill:#000000;fill-opacity:1;fill-rule:nonzero;stroke:none;stroke-width:1;stroke-linecap:butt;stroke-linejoin:miter;stroke-miterlimit:4;stroke-dasharray:none;stroke-dashoffset:0;stroke-opacity:0.17096773;color-rendering:auto;image-rendering:auto;shape-rendering:auto;text-rendering:auto;enable-background:accumulate"></path><g transform="matrix(-0.47100265,0,0,-0.47100265,92.854295,1493.761)"><path style="" d="m 28.987871,999.46344 c 10.276635,6.86086 10.85418,15.04476 -0.05452,23.45586 8.077017,-7.5568 6.472318,-17.9795 0.05452,-23.45586 z" fill="#000000" fill-opacity="1" fill-rule="evenodd" stroke="none"></path><path d="m 32.405521,991.76103 c 19.298741,10.73547 20.003056,25.68317 -0.09033,38.86067 15.401969,-14.035 14.384869,-27.5149 0.09033,-38.86067 z" style="" fill="#000000" fill-opacity="1" fill-rule="evenodd" stroke="none"></path><path style="" d="m 38.369826,981.04674 c 29.940463,16.65523 31.033152,39.84536 -0.14014,60.28926 23.894931,-21.7742 22.316981,-42.6872 0.14014,-60.28926 z" fill="#000000" fill-opacity="1" fill-rule="evenodd" stroke="none"></path></g><g transform="matrix(0.47100265,0,0,-0.47100265,7.14239,1493.761)"><path d="m 28.987871,999.46344 c 10.276635,6.86086 10.85418,15.04476 -0.05452,23.45586 8.077017,-7.5568 6.472318,-17.9795 0.05452,-23.45586 z" style="" fill="#000000" fill-opacity="1" fill-rule="evenodd" stroke="none"></path><path style="" d="m 32.405521,991.76103 c 19.298741,10.73547 20.003056,25.68317 -0.09033,38.86067 15.401969,-14.035 14.384869,-27.5149 0.09033,-38.86067 z" fill="#000000" fill-opacity="1" fill-rule="evenodd" stroke="none"></path><path d="m 38.369826,981.04674 c 29.940463,16.65523 31.033152,39.84536 -0.14014,60.28926 23.894931,-21.7742 22.316981,-42.6872 0.14014,-60.28926 z" style="" fill="#000000" fill-opacity="1" fill-rule="evenodd" stroke="none"></path></g></g></svg>