<svg xmlns="http://www.w3.org/2000/svg" xmlns:xlink="http://www.w3.org/1999/xlink" version="1.1" x="0px" y="0px" viewBox="0 0 48 60" enable-background="new 0 0 48 48" xml:space="preserve"><g><path fill="#000000" d="M36.1,12.3H1.5c-0.6,0-1-0.4-1-1V1.5c0-0.6,0.4-1,1-1h34.6c0.6,0,1,0.4,1,1v9.8   C37.1,11.9,36.7,12.3,36.1,12.3z M2.5,10.3h32.6V2.5H2.5V10.3z"/><path fill="#000000" d="M19.6,29.9H1.5c-0.6,0-1-0.4-1-1v-9.8c0-0.6,0.4-1,1-1h34.6c0.6,0,1,0.4,1,1V23c0,0.6-0.4,1-1,1s-1-0.4-1-1   v-2.9H2.5v7.8h17.1c0.6,0,1,0.4,1,1S20.1,29.9,19.6,29.9z"/><path fill="#000000" d="M19.8,47.5H1.5c-0.6,0-1-0.4-1-1v-9.8c0-0.6,0.4-1,1-1h18.2c0.6,0,1,0.4,1,1s-0.4,1-1,1H2.5v7.8h17.3   c0.6,0,1,0.4,1,1C20.8,47.1,20.3,47.5,19.8,47.5z"/><path fill="#000000" d="M13.2,7.4H6.9c-0.6,0-1-0.4-1-1s0.4-1,1-1h6.3c0.6,0,1,0.4,1,1S13.8,7.4,13.2,7.4z"/><path fill="#000000" d="M13.2,25H6.9c-0.6,0-1-0.4-1-1c0-0.6,0.4-1,1-1h6.3c0.6,0,1,0.4,1,1C14.2,24.6,13.8,25,13.2,25z"/><path fill="#000000" d="M13.2,42.6H6.9c-0.6,0-1-0.4-1-1c0-0.6,0.4-1,1-1h6.3c0.6,0,1,0.4,1,1C14.2,42.1,13.8,42.6,13.2,42.6z"/><ellipse fill="#000000" cx="29.1" cy="6.4" rx="1.6" ry="1.5"/><g><path fill="#000000" d="M46.5,47.5H19.8c-0.6,0-1-0.4-1-1V23.2c0-0.6,0.4-1,1-1h26.7c0.6,0,1,0.4,1,1v23.3    C47.5,47.1,47.1,47.5,46.5,47.5z M20.8,45.5h24.7V24.2H20.8V45.5z"/><g><path fill="#000000" d="M25.8,44c-0.6,0-1-0.4-1-1V26.7c0-0.6,0.4-1,1-1c0.6,0,1,0.4,1,1V43C26.8,43.5,26.3,44,25.8,44z"/><path fill="#000000" d="M33.1,44c-0.6,0-1-0.4-1-1V26.7c0-0.6,0.4-1,1-1c0.6,0,1,0.4,1,1V43C34.1,43.5,33.7,44,33.1,44z"/><path fill="#000000" d="M40.5,44c-0.6,0-1-0.4-1-1V26.7c0-0.6,0.4-1,1-1c0.6,0,1,0.4,1,1V43C41.5,43.5,41,44,40.5,44z"/><path fill="#000000" d="M42.4,32.8h-3.9c-0.6,0-1-0.4-1-1c0-0.6,0.4-1,1-1h3.9c0.6,0,1,0.4,1,1C43.4,32.3,43,32.8,42.4,32.8z"/><path fill="#000000" d="M35.1,37.2h-3.9c-0.6,0-1-0.4-1-1c0-0.6,0.4-1,1-1h3.9c0.6,0,1,0.4,1,1C36.1,36.7,35.6,37.2,35.1,37.2z"/><path fill="#000000" d="M27.7,34.5h-3.9c-0.6,0-1-0.4-1-1c0-0.6,0.4-1,1-1h3.9c0.6,0,1,0.4,1,1C28.7,34,28.3,34.5,27.7,34.5z"/></g></g></g><text x="0" y="63" fill="#000000" font-size="5px" font-weight="bold" font-family="'Helvetica Neue', Helvetica, Arial-Unicode, Arial, Sans-serif">Created by Creative Stall</text><text x="0" y="68" fill="#000000" font-size="5px" font-weight="bold" font-family="'Helvetica Neue', Helvetica, Arial-Unicode, Arial, Sans-serif">from the Noun Project</text></svg>