<svg xmlns:dc="http://purl.org/dc/elements/1.1/" xmlns:cc="http://creativecommons.org/ns#" xmlns:rdf="http://www.w3.org/1999/02/22-rdf-syntax-ns#" xmlns:svg="http://www.w3.org/2000/svg" xmlns="http://www.w3.org/2000/svg" version="1.1" viewBox="0 0 100.00001 100" xml:space="preserve" x="0px" y="0px"><path d="M 10.96875,13.5625 C 7.6926253,13.5625 5,16.248897 5,19.53125 L 5,65.25 c 0,3.276124 2.6926253,5.96875 5.96875,5.96875 l 26.15625,0 0,6.4375 25.71875,0 0,-6.4375 26.1875,0 C 92.307374,71.21875 95,68.526124 95,65.25 L 95,19.53125 C 95,16.248897 92.307374,13.5625 89.03125,13.5625 l -78.0625,0 z m 0,3.53125 78.0625,0 c 1.388927,0 2.4375,1.042344 2.4375,2.4375 l 0,45.71875 c 0,1.388926 -1.048573,2.4375 -2.4375,2.4375 l -78.0625,0 C 9.5798224,67.6875 8.5,66.638926 8.5,65.25 l 0,-45.71875 c 0,-1.395156 1.0798224,-2.4375 2.46875,-2.4375 z M 31.4375,81.1875 c -1.370243,0 -2.46875,1.098509 -2.46875,2.46875 l 0,2.78125 42,0 0,-2.78125 c 0,-1.370241 -1.098506,-2.46875 -2.46875,-2.46875 l -37.0625,0 z" transform="translate(0,-5e-6)" style="" fill="#000000" fill-opacity="1" fill-rule="nonzero" stroke="none"/></svg>