<svg xmlns="http://www.w3.org/2000/svg" xmlns:xlink="http://www.w3.org/1999/xlink" version="1.1" x="0px" y="0px" viewBox="0 0 100 100" style="enable-background:new 0 0 100 100;" xml:space="preserve"><style type="text/css">
	.st0{fill:#FFFFFF;stroke:#38499F;stroke-width:3;stroke-miterlimit:10;}
	.st1{fill:none;stroke:#38499F;stroke-width:2.25;stroke-miterlimit:10;}
	.st2{fill:#FFFFFF;}
</style><path d="M90.4,21.6v40.7c0,1.9-1.5,3.4-3.3,3.4h-75c-1.9,0-3.4-1.5-3.4-3.4V21.6c0-1.9,1.5-3.4,3.4-3.4h75     C88.8,18.2,90.4,19.7,90.4,21.6z M12.1,20.2c-0.8,0-1.4,0.6-1.4,1.4v40.7c0,0.7,0.6,1.3,1.4,1.3h75c0.7,0,1.3-0.6,1.3-1.3V21.6     c0-0.7-0.6-1.4-1.3-1.4H12.1z"/><path d="M59.9,87.2H18.3c-0.4,0-0.7,0.3-0.7,0.6c0,0.3,0.3,0.7,0.7,0.7h62.5c0.3,0,0.6-0.3,0.6-0.7c0-0.3-0.3-0.6-0.6-0.6H61.9     H59.9z M9.8,15.7c-2.2,0-4,1.8-4,4v51.6c0,2.2,1.8,4,4,4h79.5c2.2,0,4-1.8,4-4V19.7c0-2.2-1.8-4-4-4H9.8z M39.2,85.2h20.7v-7.9     H39.2V85.2z M61.9,85.2h18.9c1.5,0,2.6,1.2,2.6,2.6c0,1.5-1.2,2.7-2.6,2.7H18.3c-1.5,0-2.7-1.2-2.7-2.7c0-1.5,1.2-2.6,2.7-2.6     h18.9v-7.9H9.8c-3.3,0-6-2.7-6-6V19.7c0-3.3,2.7-6,6-6h79.5c3.3,0,6,2.7,6,6v51.6c0,3.3-2.7,6-6,6H61.9V85.2z"/></svg>
