<svg xmlns:dc="http://purl.org/dc/elements/1.1/" xmlns:cc="http://creativecommons.org/ns#" xmlns:rdf="http://www.w3.org/1999/02/22-rdf-syntax-ns#" xmlns:svg="http://www.w3.org/2000/svg" xmlns="http://www.w3.org/2000/svg" version="1.1" xml:space="preserve" x="0px" y="0px" viewBox="0 0 100 125"><title>RAM</title><g transform="matrix(1.25,0,0,-1.25,0,100)"><path d="m 16.834694,47.930718 c 0,-12.750255 0,-12.243553 0,-12.243553 l 7.208331,0 -0.006,12.25441 z" style="" fill="none" stroke="#000000" stroke-width="0.20823625" stroke-linecap="butt" stroke-linejoin="miter" stroke-miterlimit="4" stroke-opacity="1" stroke-dasharray="none"/><path d="m 4.5154363,50.485422 0,-13.11141 C 5.648202,37.190073 6.5110798,36.239548 6.5127514,35.05455 6.5144873,33.866801 5.6515533,32.886732 4.5154363,32.702871 l 0,-1.610738 70.9691277,0 0,1.642953 c -1.012157,0.263147 -1.785632,1.193389 -1.804026,2.287248 l 0,0.03222 c -0.0016,1.116913 0.767879,2.026369 1.804026,2.287247 l 0,13.11141 -70.9691277,0.03222 z" style="" fill="none" stroke="#000000" stroke-width="1.03087258px" stroke-linecap="square" stroke-linejoin="bevel" stroke-opacity="1"/><path d="m 25.272266,47.958762 c 0,-12.750254 0,-12.243551 0,-12.243551 l 7.208333,0 -0.006,12.254411 z" style="" fill="none" stroke="#000000" stroke-width="0.20823625" stroke-linecap="butt" stroke-linejoin="miter" stroke-miterlimit="4" stroke-opacity="1" stroke-dasharray="none"/><path d="m 33.602416,48.008245 c 0,-12.750254 0,-12.244159 0,-12.244159 l 7.208335,0 -0.006,12.254408 z" style="" fill="none" stroke="#000000" stroke-width="0.20823625" stroke-linecap="butt" stroke-linejoin="miter" stroke-miterlimit="4" stroke-opacity="1" stroke-dasharray="none"/><path d="m 55.872445,48.056508 c 0,-12.750253 0,-12.243549 0,-12.243549 l 7.208331,0 -0.006,12.254407 z" style="" fill="none" stroke="#000000" stroke-width="0.20823625" stroke-linecap="butt" stroke-linejoin="miter" stroke-miterlimit="4" stroke-opacity="1" stroke-dasharray="none"/><path d="m 64.475711,48.065074 c 0,-12.750252 0,-12.252115 0,-12.252115 l 7.208333,0 -0.006,12.254407 z" style="" fill="none" stroke="#000000" stroke-width="0.20823625" stroke-linecap="butt" stroke-linejoin="miter" stroke-miterlimit="4" stroke-opacity="1" stroke-dasharray="none"/><path d="m 5.8210545,28.59036 0,1.429763 0.7996982,0 0.7996982,0 0,-1.429763 0,-1.429763 -0.7996982,0 -0.7996982,0 0,1.429763 z" style="" fill="#000000" fill-opacity="1" fill-rule="nonzero" stroke="#000000" stroke-width="0.02423327" stroke-linecap="round" stroke-linejoin="round" stroke-miterlimit="4" stroke-opacity="0.52941165" stroke-dasharray="none"/><path d="m 9.1652463,28.59036 0,1.429763 0.7230345,0 c 0.3976692,0 0.7575322,0.01323 0.7996982,0.02942 0.06886,0.02643 0.07667,-0.119093 0.07667,-1.429763 l 0,-1.459182 -0.7996984,0 -0.7996982,0 0,1.429763 z" style="" fill="#000000" fill-opacity="1" fill-rule="nonzero" stroke="#000000" stroke-width="0.02423327" stroke-linecap="round" stroke-linejoin="round" stroke-miterlimit="4" stroke-opacity="0.52941165" stroke-dasharray="none"/><path d="m 12.460971,28.59036 0,1.429763 0.799699,0 0.799698,0 0,-1.429763 0,-1.429763 -0.799698,0 -0.799699,0 0,1.429763 z" style="" fill="#000000" fill-opacity="1" fill-rule="nonzero" stroke="#000000" stroke-width="0.02423327" stroke-linecap="round" stroke-linejoin="round" stroke-miterlimit="4" stroke-opacity="0.52941165" stroke-dasharray="none"/><path d="m 15.771496,27.626941 c -9e-6,0.252106 -0.0051,0.903684 -0.01137,1.447951 l -0.01136,0.989576 0.816745,0 0.816743,0 0,-1.447951 0,-1.44795 -0.805369,0 -0.805369,0 -1.7e-5,0.458374 z" style="" fill="#000000" fill-opacity="1" fill-rule="nonzero" stroke="#000000" stroke-width="0.00856776" stroke-linecap="round" stroke-linejoin="round" stroke-miterlimit="4" stroke-opacity="0.52941165" stroke-dasharray="none"/><path d="m 19.28815,28.674973 0,1.447937 0.360471,1.9e-5 c 0.198258,9e-6 0.560849,0.0036 0.805757,0.008 l 0.445286,0.008 0,-1.455963 0,-1.45596 -0.805757,0 -0.805757,0 0,1.447936 z" style="" fill="#000000" fill-opacity="1" fill-rule="nonzero" stroke="#000000" stroke-width="0.00605832" stroke-linecap="round" stroke-linejoin="round" stroke-miterlimit="4" stroke-opacity="0.52941165" stroke-dasharray="none"/><path d="m 22.61584,27.884361 c -0.0041,0.354866 -0.01045,1.005593 -0.01433,1.446061 l -0.007,0.800849 0.118901,0.0079 c 0.06539,0.0043 0.436509,0.0079 0.824695,0.0079 l 0.705794,6.3e-5 0,-1.453997 0,-1.453996 -0.81037,0 -0.810371,0 -0.0072,0.645212 0,0 z" style="" fill="#000000" fill-opacity="1" fill-rule="nonzero" stroke="#000000" stroke-width="0.00605832" stroke-linecap="round" stroke-linejoin="round" stroke-miterlimit="4" stroke-opacity="0.52941165" stroke-dasharray="none"/><path d="m 25.895902,28.68103 0,1.453996 0.811814,0 0.811815,0 0,-1.453996 0,-1.453996 -0.811815,0 -0.811814,0 0,1.453996 z" style="" fill="#000000" fill-opacity="1" fill-rule="nonzero" stroke="#000000" stroke-width="0.00605832" stroke-linecap="round" stroke-linejoin="round" stroke-miterlimit="4" stroke-opacity="0.52941165" stroke-dasharray="none"/><path d="m 29.235939,27.375462 c -0.0038,0.0683 -0.01032,0.719805 -0.01442,1.44777 l -0.0075,1.323575 0.819017,0.0033 0.819017,0.0033 -2e-6,-1.450967 -1e-6,-1.450968 -0.804591,0 -0.804589,0 -0.0069,0.124196 z" style="" fill="#000000" fill-opacity="1" fill-rule="nonzero" stroke="#000000" stroke-width="0.00605832" stroke-linecap="round" stroke-linejoin="round" stroke-miterlimit="4" stroke-opacity="0.52941165" stroke-dasharray="none"/><path d="m 32.572637,28.711322 0,1.447938 0.811815,0 0.811814,0 0,-1.447938 0,-1.447939 -0.811814,0 -0.811815,0 0,1.447939 z" style="" fill="#000000" fill-opacity="1" fill-rule="nonzero" stroke="#000000" stroke-width="0.00605832" stroke-linecap="round" stroke-linejoin="round" stroke-miterlimit="4" stroke-opacity="0.52941165" stroke-dasharray="none"/><path d="m 35.907817,27.751078 c -0.0041,0.261568 -0.01057,0.913141 -0.01457,1.447939 l -0.0072,0.97236 0.300927,1.6e-5 c 0.165508,8e-6 0.53402,0.0036 0.818912,0.008 l 0.517987,0.008 0,-1.455969 0,-1.455969 -0.804337,0 -0.804337,0 -0.0072,0.475577 z" style="" fill="#000000" fill-opacity="1" fill-rule="nonzero" stroke="#000000" stroke-width="0.00605832" stroke-linecap="round" stroke-linejoin="round" stroke-miterlimit="4" stroke-opacity="0.52941165" stroke-dasharray="none"/><path d="m 39.176674,28.717379 0,1.453998 0.805755,0 0.805757,0 0,-1.453998 0,-1.453996 -0.805757,0 -0.805755,0 0,1.453996 z" style="" fill="#000000" fill-opacity="1" fill-rule="nonzero" stroke="#000000" stroke-width="0.00605832" stroke-linecap="round" stroke-linejoin="round" stroke-miterlimit="4" stroke-opacity="0.52941165" stroke-dasharray="none"/><path d="m 42.50686,27.314879 c -0.0031,0.015 -0.0092,0.666567 -0.01351,1.447939 l -0.0079,1.420675 0.664557,5e-5 c 0.365506,2.6e-5 0.734076,0.0036 0.819045,0.0079 l 0.154486,0.0079 0,-1.455867 0,-1.455867 -0.805526,0 -0.805524,0 -0.0056,0.02727 z" style="" fill="#000000" fill-opacity="1" fill-rule="nonzero" stroke="#000000" stroke-width="0.00605832" stroke-linecap="round" stroke-linejoin="round" stroke-miterlimit="4" stroke-opacity="0.52941165" stroke-dasharray="none"/><path d="m 45.783542,28.721463 0,1.445962 0.554336,0.008 c 0.304886,0.0044 0.670201,0.008 0.811814,0.008 l 0.257479,1.5e-5 0,-1.453997 0,-1.453996 -0.811814,0 -0.811815,0 0,1.445962 z" style="" fill="#000000" fill-opacity="1" fill-rule="nonzero" stroke="#000000" stroke-width="0.00605832" stroke-linecap="round" stroke-linejoin="round" stroke-miterlimit="4" stroke-opacity="0.52941165" stroke-dasharray="none"/><path d="m 49.117312,28.169103 c -0.0041,0.484817 -0.01048,1.139115 -0.01427,1.453997 l -0.0069,0.57251 0.824619,0 0.824619,0 0,-1.453996 0,-1.453997 -0.810352,0 -0.810353,0 -0.0072,0.881486 0,0 z" style="" fill="#000000" fill-opacity="1" fill-rule="nonzero" stroke="#000000" stroke-width="0.00605832" stroke-linecap="round" stroke-linejoin="round" stroke-miterlimit="4" stroke-opacity="0.52941165" stroke-dasharray="none"/><path d="m 52.466728,28.745858 0,1.446123 0.110912,0.0079 c 0.06099,0.0043 0.423592,0.0079 0.805756,0.0079 l 0.694845,0 0,-1.453996 0,-1.453997 -0.805756,0 -0.805757,0 0,1.446124 z" style="" fill="#000000" fill-opacity="1" fill-rule="nonzero" stroke="#000000" stroke-width="0.00605832" stroke-linecap="round" stroke-linejoin="round" stroke-miterlimit="4" stroke-opacity="0.52941165" stroke-dasharray="none"/><path d="m 59.25975,27.860128 c -0.004,0.294888 -0.01044,0.94646 -0.01443,1.447939 l -0.0071,0.911776 0.824818,0 0.824819,0 0,-1.447938 0,-1.447939 -0.810384,0 -0.810386,0 -0.0074,0.536162 0,0 z" style="" fill="#000000" fill-opacity="1" fill-rule="nonzero" stroke="#000000" stroke-width="0.00605831" stroke-linecap="round" stroke-linejoin="round" stroke-miterlimit="4" stroke-opacity="0.52941165" stroke-dasharray="none"/><path d="m 62.381124,28.765846 0,1.453997 0.811814,0 0.811815,0 0,-1.453997 0,-1.453996 -0.811815,0 -0.811814,0 0,1.453996 z" style="" fill="#000000" fill-opacity="1" fill-rule="nonzero" stroke="#000000" stroke-width="0.00605832" stroke-linecap="round" stroke-linejoin="round" stroke-miterlimit="4" stroke-opacity="0.52941165" stroke-dasharray="none"/><path d="m 65.714918,28.253919 c -0.0041,0.504809 -0.01035,1.156381 -0.01402,1.447938 l -0.0067,0.530102 0.824366,0 0.824366,0 0,-1.447936 0,-1.447939 -0.81035,0 -0.810351,0 -0.0072,0.917835 0,0 z" style="" fill="#000000" fill-opacity="1" fill-rule="nonzero" stroke="#000000" stroke-width="0.00605832" stroke-linecap="round" stroke-linejoin="round" stroke-miterlimit="4" stroke-opacity="0.52941165" stroke-dasharray="none"/><path d="m 69.063209,28.79008 0,1.453996 0.805756,0 0.805757,0 0,-1.453996 0,-1.453996 -0.805757,0 -0.805756,0 0,1.453996 z" style="" fill="#000000" fill-opacity="1" fill-rule="nonzero" stroke="#000000" stroke-width="0.00605832" stroke-linecap="round" stroke-linejoin="round" stroke-miterlimit="4" stroke-opacity="0.52941165" stroke-dasharray="none"/><path d="m 72.393026,27.787428 c -0.0041,0.234912 -0.01057,0.886484 -0.01458,1.447939 l -0.0072,1.020826 0.737149,8.8e-5 c 0.405434,4.6e-5 0.773957,0.0036 0.818939,0.0079 l 0.08179,0.0078 0,-1.455748 0,-1.455749 -0.804349,0 -0.804346,0 -0.0072,0.427111 z" style="" fill="#000000" fill-opacity="1" fill-rule="nonzero" stroke="#000000" stroke-width="0.00605832" stroke-linecap="round" stroke-linejoin="round" stroke-miterlimit="4" stroke-opacity="0.52941165" stroke-dasharray="none"/><path d="m 8.2676197,47.857547 c 0,-12.750255 0,-12.256273 0,-12.256273 l 7.2083293,0.01713 -0.006,12.254406 z" style="" fill="none" stroke="#000000" stroke-width="0.20823625" stroke-linecap="butt" stroke-linejoin="miter" stroke-miterlimit="4" stroke-opacity="1" stroke-dasharray="none"/><path d="m 47.060526,47.990994 c 0,-12.750255 0,-12.234984 0,-12.234984 l 7.208337,0 -0.006,12.254409 z" style="" fill="none" stroke="#000000" stroke-width="0.20823625" stroke-linecap="butt" stroke-linejoin="miter" stroke-miterlimit="4" stroke-opacity="1" stroke-dasharray="none"/><path d="m 8.5924139,41.721856 0,5.78619 1.9590911,0.02275 c 1.077502,0.01252 2.5503,0.02275 3.272884,0.02275 l 1.31379,0 0,-5.808938 0,-5.808939 -3.272883,0 -3.2728821,0 0,5.78619 z" style="" fill="#000000" fill-opacity="1" fill-rule="nonzero" stroke="#000000" stroke-width="0.03427103" stroke-linecap="round" stroke-linejoin="round" stroke-miterlimit="4" stroke-opacity="1" stroke-dasharray="none"/><path d="m 17.160169,41.790544 0,5.786337 0.776638,0.02261 c 0.42715,0.01244 1.899947,0.0226 3.272882,0.0226 l 2.496248,0 0,-5.808938 0,-5.80894 -3.272885,0 -3.272883,0 0,5.786336 z" style="" fill="#000000" fill-opacity="1" fill-rule="nonzero" stroke="#000000" stroke-width="0.03427103" stroke-linecap="round" stroke-linejoin="round" stroke-miterlimit="4" stroke-opacity="1" stroke-dasharray="none"/><path d="m 25.590841,41.824636 0,5.786156 3.261883,0.02235 c 1.794034,0.0123 3.266201,0.01804 3.271483,0.01276 0.0053,-0.0053 0.01408,-2.619117 0.01957,-5.808522 l 0.01001,-5.79892 -3.281451,3e-6 -3.281452,5e-6 0,5.786157 z" style="" fill="#000000" fill-opacity="1" fill-rule="nonzero" stroke="#000000" stroke-width="0.03427103" stroke-linecap="round" stroke-linejoin="round" stroke-miterlimit="4" stroke-opacity="1" stroke-dasharray="none"/><path d="m 33.941371,41.898823 0,5.791805 3.272883,0 3.272883,0 0,-5.791805 0,-5.791803 -3.272883,0 -3.272883,0 0,5.791803 z" style="" fill="#000000" fill-opacity="1" fill-rule="nonzero" stroke="#000000" stroke-width="0.03427103" stroke-linecap="round" stroke-linejoin="round" stroke-miterlimit="4" stroke-opacity="1" stroke-dasharray="none"/><path d="m 47.375613,41.858923 0,5.786171 2.390405,0.02274 c 1.314723,0.01251 2.784971,0.02275 3.267219,0.02276 l 0.876818,2.7e-5 0.02278,-3.984007 c 0.01253,-2.191203 0.02279,-4.805226 0.0228,-5.808938 l 1.6e-5,-1.824933 -3.290018,0 -3.290019,0 0,5.786173 z" style="" fill="#000000" fill-opacity="1" fill-rule="nonzero" stroke="#000000" stroke-width="0.03427103" stroke-linecap="round" stroke-linejoin="round" stroke-miterlimit="4" stroke-opacity="1" stroke-dasharray="none"/><path d="m 56.199767,41.933096 0,5.791803 3.272884,0 3.272883,0 0,-5.791803 0,-5.791804 -3.272883,0 -3.272884,0 0,5.791804 z" style="" fill="#000000" fill-opacity="1" fill-rule="nonzero" stroke="#000000" stroke-width="0.03427103" stroke-linecap="round" stroke-linejoin="round" stroke-miterlimit="4" stroke-opacity="1" stroke-dasharray="none"/><path d="m 64.801794,41.933096 0,5.791803 3.272885,0 3.272883,0 0,-5.791803 0,-5.791804 -3.272883,0 -3.272885,0 0,5.791804 z" style="" fill="#000000" fill-opacity="1" fill-rule="nonzero" stroke="#000000" stroke-width="0.03427103" stroke-linecap="round" stroke-linejoin="round" stroke-miterlimit="4" stroke-opacity="1" stroke-dasharray="none"/><path d="m 4.8219645,32.047549 c 70.1795635,0 70.1795635,0 70.1795635,0" style="" fill="none" stroke="#000000" stroke-width="0.30926174" stroke-linecap="butt" stroke-linejoin="miter" stroke-miterlimit="4" stroke-opacity="1" stroke-dasharray="none"/></g><text x="0" y="115" fill="#000000" font-size="5px" font-weight="bold" font-family="'Helvetica Neue', Helvetica, Arial-Unicode, Arial, Sans-serif">Created by Lorenzo Stella</text><text x="0" y="120" fill="#000000" font-size="5px" font-weight="bold" font-family="'Helvetica Neue', Helvetica, Arial-Unicode, Arial, Sans-serif">from the Noun Project</text></svg>