<?xml version="1.0" encoding="utf-8"?>
<!-- Generator: Adobe Illustrator 16.0.0, SVG Export Plug-In . SVG Version: 6.00 Build 0)  -->
<!DOCTYPE svg PUBLIC "-//W3C//DTD SVG 1.1//EN" "http://www.w3.org/Graphics/SVG/1.1/DTD/svg11.dtd">
<svg version="1.1" id="Layer_1" xmlns="http://www.w3.org/2000/svg" xmlns:xlink="http://www.w3.org/1999/xlink" x="0px" y="0px"
	 width="612px" height="792px" viewBox="0 0 612 792" enable-background="new 0 0 612 792" xml:space="preserve">
<g>
	<path d="M111.233,486.327c36.347,0,65.925-29.578,65.925-65.936c0-36.347-29.578-65.925-65.925-65.925
		c-36.357,0-65.936,29.578-65.936,65.925C45.297,456.749,74.875,486.327,111.233,486.327z M111.233,388.762
		c17.434,0,31.618,14.185,31.618,31.619c0,17.434-14.185,31.629-31.618,31.629s-31.629-14.185-31.629-31.629
		C79.615,402.946,93.799,388.762,111.233,388.762z M373.152,509.655c1.197-9.381-5.484-17.952-14.865-19.161l0,0
		c-9.381-1.145-17.963,5.549-19.161,14.929l0,0l0,0l0,0c-1.145,9.436,5.483,17.952,14.929,19.15l0,0
		c0.691,0.065,1.426,0.119,2.116,0.119l0,0C364.688,524.692,372.126,518.345,373.152,509.655z M384.41,456.641L384.41,456.641
		c2.754-9.089-2.396-18.643-11.496-21.385l0,0c-9.035-2.753-18.578,2.396-21.385,11.497l0,0
		c-2.688,9.035,2.396,18.643,11.496,21.319l0,0c1.663,0.519,3.314,0.745,4.977,0.745l0,0
		C375.375,468.828,382.188,464.078,384.41,456.641z M404.425,406.271L404.425,406.271c4.178-8.463,0.745-18.762-7.719-22.993l0,0
		c-8.517-4.232-18.815-0.799-23.047,7.718l0,0l0,0l0,0c-4.167,8.463-0.745,18.75,7.718,22.982l0,0
		c2.462,1.199,5.085,1.781,7.665,1.781l0,0C395.336,415.76,401.402,412.273,404.425,406.271z M432.557,359.95L432.557,359.95
		c5.603-7.665,3.896-18.405-3.778-23.954l0,0c-7.665-5.603-18.352-3.886-23.954,3.713l0,0c-5.603,7.665-3.887,18.417,3.778,24.019
		l0,0c3.022,2.17,6.573,3.26,10.061,3.26l0,0C423.975,366.988,429.178,364.527,432.557,359.95z M468.061,318.951
		c6.748-6.628,6.866-17.499,0.227-24.299l0,0c-6.573-6.747-17.434-6.855-24.244-0.281l0,0c-6.748,6.639-6.866,17.499-0.292,24.299
		l0,0c3.378,3.433,7.837,5.149,12.296,5.149l0,0C460.408,323.819,464.693,322.222,468.061,318.951z M509.87,284.364
		c7.772-5.376,9.716-16.063,4.339-23.846l0,0c-5.43-7.772-16.127-9.715-23.899-4.34l0,0c-7.772,5.43-9.716,16.128-4.286,23.9l0,0
		c3.314,4.804,8.637,7.373,14.066,7.373l0,0C503.458,287.451,506.891,286.479,509.87,284.364z M556.861,257.322
		c8.582-4.059,12.23-14.239,8.236-22.821l0,0c-4.006-8.582-14.239-12.295-22.82-8.291l0,0c0,0,0,0,0,0.054l0,0
		c-8.582,4.005-12.231,14.239-8.237,22.821l0,0c2.915,6.174,9.089,9.834,15.556,9.834l0,0
		C552.003,258.92,554.518,258.402,556.861,257.322z M365.66,562.367c6.693-6.747,6.628-17.607-0.064-24.3l0,0l0,0l0,0
		c-6.748-6.639-17.607-6.639-24.301,0.119l0,0c-6.639,6.746-6.573,17.552,0.119,24.234l0,0c3.314,3.314,7.719,4.977,12.059,4.977
		l0,0C357.941,567.397,362.346,565.746,365.66,562.367z M323.743,523.494c5.495-7.783,3.605-18.47-4.124-23.965l0,0
		c-7.771-5.43-18.47-3.541-23.9,4.178l0,0c-5.484,7.719-3.605,18.47,4.113,23.9l0,0c3.033,2.115,6.455,3.141,9.898,3.141l0,0
		C315.107,530.748,320.429,528.179,323.743,523.494z M275.889,492.156c4.112-8.582,0.518-18.815-8.064-22.875l0,0
		c-8.517-4.112-18.751-0.518-22.874,8.064l0,0c-4.06,8.518-0.454,18.762,8.063,22.874l0,0c2.396,1.145,4.912,1.663,7.427,1.663l0,0
		C266.853,501.872,272.963,498.267,275.889,492.156z M223.566,469.174c2.568-9.09-2.688-18.589-11.777-21.212l0,0l0,0l0,0
		c-9.09-2.634-18.589,2.634-21.213,11.777l0,0c-2.634,9.089,2.635,18.589,11.724,21.212h0.054c1.544,0.453,3.142,0.626,4.696,0.626
		l0,0C214.53,481.577,221.396,476.72,223.566,469.174z"/>
</g>
</svg>
