<svg xmlns="http://www.w3.org/2000/svg" xmlns:xlink="http://www.w3.org/1999/xlink" version="1.1" x="0px" y="0px" viewBox="11 11 80 80" enable-background="new 0 0 100 100" xml:space="preserve"><path d="M51.042,11.092c-21.872,0-39.667,17.795-39.667,39.667S29.17,90.426,51.042,90.426s39.667-17.795,39.667-39.667  S72.914,11.092,51.042,11.092z M51.042,15.032c15.998,0,29.575,10.57,34.111,25.094L55.765,69.53  c-0.766,0.768-0.769,2.009-0.007,2.779l2.089,2.11H39.516V56.046l2.866,2.854c0.765,0.762,2,0.766,2.771,0.01l12.45-12.219  l4.82,4.839c0.563,0.565,1.411,0.736,2.148,0.431c0.737-0.305,1.218-1.023,1.218-1.821l-0.004-24.974c0-1.088-0.881-1.97-1.97-1.97  H38.822c-0.798,0-1.517,0.481-1.821,1.218c-0.305,0.737-0.134,1.585,0.431,2.148l4.022,4.005L15.741,56.27  c-0.28-1.798-0.425-3.637-0.425-5.511C15.315,31.059,31.342,15.032,51.042,15.032z M51.042,86.486  c-16.207,0-29.925-10.85-34.282-25.664l28.875-28.865c0.371-0.37,0.579-0.872,0.578-1.396c0-0.523-0.209-1.025-0.58-1.394  l-2.041-2.032h18.253l0.003,18.234l-2.835-2.847c-0.027-0.026-0.055-0.049-0.083-0.075c-0.02-0.017-0.039-0.037-0.061-0.054  c-0.029-0.024-0.063-0.047-0.094-0.07c-0.021-0.016-0.041-0.033-0.063-0.047c-0.033-0.021-0.067-0.041-0.101-0.061  c-0.022-0.013-0.044-0.027-0.066-0.04c-0.034-0.019-0.07-0.033-0.105-0.05c-0.022-0.01-0.045-0.021-0.068-0.031  c-0.036-0.015-0.072-0.027-0.11-0.041c-0.022-0.007-0.046-0.017-0.069-0.024c-0.036-0.011-0.073-0.019-0.111-0.028  c-0.024-0.006-0.048-0.013-0.072-0.018c-0.036-0.007-0.073-0.011-0.11-0.017c-0.025-0.004-0.051-0.009-0.077-0.011  c-0.034-0.003-0.069-0.004-0.104-0.006c-0.028-0.001-0.056-0.004-0.084-0.004c-0.031-0.001-0.063,0.001-0.093,0.003  c-0.033,0.001-0.064,0.001-0.096,0.004c-0.025,0.001-0.05,0.007-0.074,0.01c-0.038,0.004-0.076,0.009-0.113,0.016  c-0.011,0.001-0.021,0.004-0.031,0.007c-0.156,0.032-0.31,0.082-0.456,0.152c-0.018,0.008-0.035,0.014-0.052,0.023  c-0.027,0.014-0.055,0.031-0.082,0.047c-0.028,0.017-0.059,0.033-0.086,0.05c-0.02,0.013-0.038,0.027-0.057,0.04  c-0.035,0.024-0.07,0.049-0.104,0.076c-0.013,0.01-0.024,0.021-0.036,0.031c-0.038,0.032-0.075,0.063-0.112,0.099l-12.497,12.19  l-4.808-4.789c-0.564-0.563-1.411-0.73-2.146-0.423c-0.735,0.304-1.214,1.022-1.214,1.819v25.089c0,1.087,0.882,1.97,1.971,1.97  h25.021c0.795,0,1.512-0.478,1.817-1.211c0.307-0.734,0.143-1.58-0.417-2.145l-4.03-4.075l26.301-26.315  c0.348,1.996,0.531,4.049,0.531,6.144C86.77,70.459,70.742,86.486,51.042,86.486z"/></svg>