<svg xmlns="http://www.w3.org/2000/svg" xmlns:xlink="http://www.w3.org/1999/xlink" version="1.1" x="0px" y="0px" viewBox="0 0 96 96" enable-background="new 0 0 96 96" xml:space="preserve"><path d="M82.484,17.5C69.436,2.812,48.468-2,30.308,5.524c-1.02,0.42-1.504,1.588-1.08,2.612C29.644,9.16,30.82,9.64,31.836,9.22  C48.42,2.344,67.576,6.74,79.492,20.156c7.456,8.388,11.195,19.172,10.52,30.367c-0.672,11.205-5.676,21.473-14.088,28.916  c-17.363,15.36-44.02,13.765-59.416-3.563C9.056,67.48,5.316,56.695,5.992,45.496c0.616-10.236,4.88-19.652,12.016-26.892v3.412  c0,1.1,0.9,2,2,2c1.104,0,2-0.9,2-2v-10c0-1.104-0.896-2-2-2h-10c-1.1,0-2,0.896-2,2c0,1.1,0.9,2,2,2h6.988  c-8.936,8.12-14.268,19.18-15,31.248c-0.736,12.259,3.36,24.083,11.52,33.272c9.096,10.235,21.776,15.456,34.512,15.456  c10.876,0,21.789-3.809,30.548-11.561c9.216-8.152,14.699-19.404,15.432-31.672C94.748,38.5,90.652,26.684,82.484,17.5z"/><path d="M50.191,68.792c0,1.211-0.98,2.192-2.191,2.192s-2.192-0.981-2.192-2.192S46.789,66.6,48,66.6S50.191,67.581,50.191,68.792z  "/><path d="M64,82.016c1.104,0,2-0.899,2-2v-60c0-1.104-0.896-2-2-2H32c-1.1,0-2,0.896-2,2v60c0,1.101,0.9,2,2,2H64z M48,62.596  c3.416,0,6.195,2.78,6.195,6.192c0,3.416-2.775,6.196-6.195,6.196c-3.416,0-6.196-2.776-6.196-6.196  C41.804,65.38,44.584,62.596,48,62.596z"/></svg>