<svg xmlns="http://www.w3.org/2000/svg" xmlns:xlink="http://www.w3.org/1999/xlink" version="1.1" x="0px" y="0px" viewBox="0 0 96 96" enable-background="new 0 0 96 96" xml:space="preserve"><path d="M30,36H14c-1.104,0-2,0.9-2,2v20c0,1.1,0.896,2,2,2h16c1.104,0,2-0.9,2-2V38C32,36.9,31.104,36,30,36z"/><path d="M94,20H2c-1.104,0-2,0.896-2,2v52c0,1.104,0.896,2,2,2h92c1.1,0,2-0.896,2-2V22C96,20.896,95.1,20,94,20z M36,58  c0,3.309-2.692,6-6,6H14c-3.308,0-6-2.691-6-6V38c0-3.308,2.692-6,6-6h16c3.308,0,6,2.692,6,6V58z M80,56H44c-1.104,0-2-0.896-2-2  c0-1.1,0.896-2,2-2h36c1.1,0,2,0.9,2,2C82,55.104,81.1,56,80,56z M80,44H44c-1.104,0-2-0.896-2-2c0-1.1,0.896-2,2-2h36  c1.1,0,2,0.9,2,2C82,43.104,81.1,44,80,44z"/></svg>