<svg xmlns="http://www.w3.org/2000/svg" xmlns:xlink="http://www.w3.org/1999/xlink" viewBox="35 40 440 440" version="1.1" x="0px" y="0px"><g fill="#000000" fill-rule="evenodd"><path d="M124.466631,448.199682 C126.418057,465.762513 142.335281,480 160.001768,480 L351.998232,480 C369.67232,480 385.581423,465.76719 387.533369,448.199682 L416,192 L96,192 L124.466631,448.199682 Z M160,96 L184,32 L328,32 L352,96 L416,96 C448,96 448,160 448,160 L256,160 L64,160 C64,160 64,96 96,96 L160,96 Z M192,96 L320,96 L304,64 L208,64 L192,96 Z M192,96" fill="#000000"/></g></svg>